<svg width="322" height="645" viewBox="0 0 322 645" fill="none" xmlns="http://www.w3.org/2000/svg">
<g clip-path="url(#clip0_27_14)">
<path fill-rule="evenodd" clip-rule="evenodd" d="M221.779 0.499512V171.335C199.319 203.058 189.014 191.434 179.465 213.397C174.007 175.773 187.603 166.658 210.693 143.662V92.743C190.182 128.703 163.102 144.627 160.248 161.557C153.68 189.138 156.361 207.545 195.724 256.383C257.068 318.185 285.097 350.943 308.806 401.574C331.797 475.9 331.285 571.217 240.676 624.676C235.794 627.558 230.548 629.857 225.197 631.73C170.082 651 134.178 654.343 83.0705 599.39C75.1445 590.867 66.853 580.945 58.067 569.458C36.1748 513.342 43.4164 485.414 70.5955 442.767C73.286 438.545 76.339 434.533 79.817 430.931C103.102 406.821 123.208 399.759 161.891 405.809C171.259 407.275 180.291 410.513 188.411 415.406C221.723 435.479 232.187 454.678 232.674 489.308C232.785 497.191 231.384 505.053 228.415 512.358C217.243 539.841 203.037 550.318 175.844 552.402C162.997 553.386 149.856 550.863 138.913 544.068C126.619 536.434 120.682 527.691 118.249 514.886C115.956 502.815 118.445 490.262 123.863 479.236C134.212 458.175 146.093 451.975 167.27 448.434C142.815 468.098 138.459 478.602 145.651 496.401C156.82 517.434 183.838 520.676 199.786 500.607C201.917 497.926 203.455 494.833 204.725 491.653C213.641 469.32 213.089 455.368 194.598 435.416C193.519 434.252 192.3 433.203 190.982 432.317C169.349 417.763 152.109 418.015 130.729 424.087C125.504 425.57 120.458 427.661 115.764 430.392C99.01 440.138 91.349 449.383 84.687 462.59C80.5515 470.789 78.1295 479.791 77.57 488.955C76.319 509.46 79.757 525.073 92.251 550.638C94.9055 554.76 97.2385 558.212 99.4815 561.22C108.995 573.96 124.851 579.671 140.655 581.509C176.926 585.726 199.156 580.025 230.832 563.183C264.569 540.586 277.068 520.007 281.26 483.564C282.04 476.784 281.91 469.906 280.984 463.144C275.827 425.482 264.589 403.074 236.93 367.26C205.579 330.312 187.26 310.153 160.618 269.666C138.268 234.496 130.212 213.645 129.576 172.995C134.951 123.747 149.155 106.111 179.465 79.0911C203.763 54.1174 212.414 36.4547 221.779 0.499512ZM293.042 506.128C296.12 496.684 297.525 486.752 297.501 476.821C297.403 435.893 292.067 409.864 263.537 370.765C299.481 409.608 306.165 434.828 308.806 482.195C307.069 514.371 301.488 547.206 255.038 580.71C213.211 608.014 188.497 612.285 141.771 596.577C180.474 597.906 200.329 595.114 230.832 580.71C265.35 562.334 280.489 544.628 293.042 506.128Z" fill="url(#paint0_linear_27_14)"/>
<path d="M58.067 569.459C26.8301 546.916 11.7682 517.084 12.5571 476.51C12.7129 468.499 14.1632 460.545 16.5013 452.881C23.929 428.533 31.4018 417.281 42.0776 405.128C47.3641 399.111 53.317 393.67 59.868 389.058C83.62 372.335 98.718 368.681 122.923 367.26C154.351 365.906 171.958 371.057 193.567 382.618C204.403 388.415 214.122 396.138 222.449 405.172C245.937 430.658 256.41 448.998 260.454 479.612C260.552 457.131 265.276 447.209 240.074 405.445C231.55 391.319 220.116 378.994 206.106 370.27C178.557 353.116 157.166 348.613 122.923 351.209C89.499 352.936 72.149 361.677 42.9749 387.184C23.3214 405.766 12.8307 419.572 4.23464 450.843C1.75676 459.857 0.389717 469.185 0.515274 478.533C0.781259 498.334 4.52365 513.512 12.7292 531.883C18.9942 545.912 28.5354 558.252 40.0568 568.419C55.041 581.649 66.5355 589.703 83.0705 599.39C75.1445 590.867 66.853 580.945 58.067 569.459Z" fill="url(#paint1_linear_27_14)"/>
<path d="M58.067 569.458C36.1747 513.342 43.4163 485.414 70.5955 442.767C73.286 438.545 76.339 434.533 79.817 430.931C103.102 406.821 123.207 399.759 161.89 405.809C171.259 407.275 180.291 410.513 188.411 415.406C221.723 435.479 232.187 454.678 232.674 489.308C232.785 497.191 231.384 505.053 228.415 512.358C217.243 539.841 203.037 550.318 175.844 552.402C162.997 553.386 149.856 550.863 138.912 544.068C126.619 536.434 120.681 527.691 118.248 514.886C115.955 502.815 118.444 490.262 123.862 479.236C134.211 458.175 146.092 451.975 167.269 448.434C142.815 468.098 138.459 478.602 145.651 496.401C156.819 517.434 183.838 520.676 199.786 500.607C201.917 497.926 203.455 494.833 204.724 491.653C213.641 469.32 213.089 455.368 194.597 435.416C193.518 434.252 192.3 433.203 190.982 432.317C169.349 417.763 152.108 418.015 130.728 424.087C125.504 425.57 120.457 427.661 115.764 430.392C99.01 440.138 91.349 449.383 84.687 462.59C80.5515 470.789 78.1295 479.791 77.57 488.955C76.319 509.46 79.757 525.073 92.251 550.638C94.9055 554.76 97.2385 558.212 99.4815 561.22C108.994 573.96 124.851 579.671 140.654 581.509C176.926 585.726 199.156 580.025 230.832 563.183C264.569 540.586 277.067 520.007 281.26 483.564C282.04 476.784 281.91 469.906 280.984 463.144C275.827 425.482 264.588 403.074 236.929 367.26C205.578 330.312 187.26 310.153 160.617 269.666C138.268 234.496 130.211 213.645 129.575 172.995C134.951 123.747 149.155 106.111 179.465 79.0911C203.763 54.1174 212.414 36.4547 221.779 0.499512V171.335C199.318 203.058 189.014 191.434 179.465 213.397C174.007 175.773 187.603 166.658 210.692 143.662V92.743C190.181 128.703 163.101 144.627 160.248 161.557C153.68 189.138 156.361 207.545 195.724 256.383C257.068 318.185 285.097 350.943 308.806 401.574C331.796 475.9 331.285 571.217 240.675 624.676C235.793 627.558 230.547 629.857 225.196 631.73C170.082 651 134.178 654.343 83.0705 599.39M58.067 569.458C26.8301 546.916 11.7682 517.084 12.5571 476.51C12.7129 468.499 14.1632 460.545 16.5013 452.881C23.929 428.533 31.4018 417.281 42.0776 405.128C47.3641 399.111 53.317 393.67 59.868 389.058C83.62 372.335 98.718 368.681 122.923 367.26C154.351 365.906 171.958 371.057 193.567 382.618C204.403 388.415 214.122 396.138 222.449 405.172C245.937 430.658 256.41 448.998 260.454 479.612C260.552 457.131 265.276 447.209 240.074 405.445C231.55 391.319 220.116 378.994 206.106 370.27C178.557 353.116 157.166 348.613 122.923 351.209C89.499 352.936 72.149 361.677 42.9749 387.184C23.3214 405.766 12.8307 419.572 4.23464 450.843C1.75676 459.857 0.389717 469.185 0.515274 478.532C0.781259 498.334 4.52365 513.512 12.7292 531.883C18.9942 545.912 28.5354 558.252 40.0568 568.419C55.041 581.649 66.5355 589.703 83.0705 599.39M58.067 569.458C66.853 580.945 75.1445 590.867 83.0705 599.39M263.537 370.765C292.067 409.864 297.403 435.893 297.501 476.821C297.525 486.752 296.12 496.684 293.041 506.128C280.489 544.628 265.35 562.334 230.832 580.71C200.329 595.114 180.474 597.906 141.77 596.577C188.496 612.285 213.21 608.014 255.037 580.71C301.488 547.206 307.069 514.371 308.806 482.195C306.165 434.828 299.481 409.608 263.537 370.765Z" stroke="#F5F5F5"/>
</g>
<defs>
<linearGradient id="paint0_linear_27_14" x1="183.344" y1="0.499512" x2="183.344" y2="644.499" gradientUnits="userSpaceOnUse">
<stop offset="0.401" stop-color="#0F587D"/>
<stop offset="1" stop-color="#45BBEB"/>
</linearGradient>
<linearGradient id="paint1_linear_27_14" x1="130.687" y1="350.528" x2="130.687" y2="599.39" gradientUnits="userSpaceOnUse">
<stop stop-color="#0F587D"/>
<stop offset="1" stop-color="#45BBEB"/>
</linearGradient>
<clipPath id="clip0_27_14">
<rect width="322" height="645" fill="white"/>
</clipPath>
</defs>
</svg>
