<svg width="644" height="1291" viewBox="0 0 644 1291" fill="none" xmlns="http://www.w3.org/2000/svg">
<path fill-rule="evenodd" clip-rule="evenodd" d="M443.558 1V342.935C398.637 406.431 378.029 383.165 358.931 427.126C348.014 351.819 375.206 333.574 421.385 287.546V185.63C380.363 257.606 326.203 289.479 320.496 323.364C307.36 378.57 312.723 415.411 391.448 513.164C514.136 636.864 570.194 702.431 617.612 803.771C663.593 952.538 662.57 1143.32 481.351 1250.32C471.587 1256.09 461.095 1260.69 450.393 1264.44C340.164 1303.01 268.356 1309.7 166.141 1199.71C150.289 1182.65 133.706 1162.79 116.134 1139.8C72.3495 1027.48 86.8327 971.58 141.191 886.221C146.572 877.771 152.678 869.739 159.634 862.53C206.204 814.273 246.415 800.137 323.781 812.248C342.518 815.181 360.582 821.662 376.823 831.456C443.446 871.634 464.374 910.061 465.349 979.374C465.57 995.152 462.768 1010.89 456.83 1025.51C434.487 1080.52 406.074 1101.49 351.688 1105.66C325.995 1107.63 299.712 1102.58 277.825 1088.98C253.238 1073.7 241.363 1056.2 236.497 1030.57C231.911 1006.41 236.889 981.285 247.725 959.216C268.423 917.061 292.185 904.65 334.539 897.564C285.63 936.922 276.918 957.946 291.302 993.571C313.639 1035.67 367.676 1042.16 399.573 1001.99C403.834 996.624 406.91 990.433 409.449 984.069C427.282 939.367 426.178 911.442 389.195 871.508C387.037 869.177 384.6 867.078 381.964 865.304C338.698 836.173 304.217 836.679 261.457 848.831C251.008 851.8 240.915 855.986 231.528 861.451C198.02 880.958 182.698 899.463 169.374 925.898C161.103 942.308 156.259 960.326 155.14 978.668C152.638 1019.71 159.514 1050.96 184.502 1102.13C189.811 1110.38 194.477 1117.29 198.963 1123.31C217.989 1148.81 249.702 1160.24 281.309 1163.92C353.853 1172.36 398.313 1160.95 461.664 1127.24C529.138 1082.01 554.135 1040.82 562.521 967.878C564.081 954.308 563.82 940.54 561.969 927.006C551.655 851.624 529.177 806.773 473.859 735.089C411.157 661.137 374.52 620.787 321.235 539.75C276.536 469.356 260.423 427.622 259.151 346.258C269.902 247.687 298.31 212.387 358.931 158.305C407.526 108.319 424.828 72.9662 443.558 1ZM586.083 1013.04C592.241 994.139 595.051 974.259 595.003 954.381C594.807 872.463 584.135 820.363 527.074 742.105C598.962 819.852 612.33 870.331 617.612 965.138C614.139 1029.54 602.977 1095.26 510.075 1162.32C426.421 1216.97 376.993 1225.52 283.541 1194.08C360.948 1196.74 400.658 1191.15 461.664 1162.32C530.701 1125.54 560.978 1090.1 586.083 1013.04Z" fill="#F5F5F5"/>
<path d="M116.134 1139.8C53.6603 1094.68 23.5365 1034.97 25.1142 953.759C25.4258 937.724 28.3264 921.805 33.0027 906.464C47.858 857.73 62.8036 835.209 84.1553 810.885C94.7283 798.841 106.634 787.951 119.736 778.719C167.24 745.248 197.436 737.933 245.847 735.089C308.703 732.38 343.917 742.69 387.135 765.83C408.807 777.433 428.245 792.89 444.898 810.973C491.874 861.983 512.82 898.693 520.908 959.968C521.104 914.97 530.553 895.111 480.149 811.518C463.101 783.245 440.233 758.576 412.213 741.115C357.115 706.78 314.332 697.766 245.847 702.963C178.998 706.419 144.298 723.915 85.9499 774.969C46.6428 812.162 25.6615 839.794 8.46932 902.385C3.51355 920.427 0.779465 939.098 1.03058 957.807C1.56255 997.44 9.04734 1027.82 25.4584 1064.59C37.9884 1092.67 57.0708 1117.37 80.1136 1137.72C110.082 1164.2 133.071 1180.32 166.141 1199.71C150.289 1182.65 133.706 1162.79 116.134 1139.8Z" fill="#F5F5F5"/>
<path d="M116.134 1139.8C72.3495 1027.48 86.8327 971.58 141.191 886.221C146.572 877.771 152.678 869.739 159.634 862.53C206.204 814.273 246.415 800.137 323.781 812.248C342.518 815.181 360.582 821.662 376.823 831.456C443.446 871.634 464.374 910.061 465.349 979.374C465.57 995.152 462.768 1010.89 456.83 1025.51C434.487 1080.52 406.074 1101.49 351.688 1105.66C325.995 1107.63 299.712 1102.58 277.825 1088.98C253.238 1073.7 241.363 1056.2 236.497 1030.57C231.911 1006.41 236.889 981.285 247.725 959.216C268.423 917.061 292.185 904.65 334.539 897.564C285.63 936.922 276.918 957.946 291.302 993.571C313.639 1035.67 367.676 1042.16 399.573 1001.99C403.834 996.624 406.91 990.433 409.449 984.069C427.282 939.367 426.178 911.442 389.195 871.508C387.037 869.177 384.6 867.078 381.964 865.304C338.698 836.173 304.217 836.679 261.457 848.831C251.008 851.8 240.915 855.986 231.528 861.451C198.02 880.958 182.698 899.463 169.374 925.898C161.103 942.308 156.259 960.326 155.14 978.668C152.638 1019.71 159.514 1050.96 184.502 1102.13C189.811 1110.38 194.477 1117.29 198.963 1123.31C217.989 1148.81 249.702 1160.24 281.309 1163.92C353.853 1172.36 398.313 1160.95 461.664 1127.24C529.138 1082.01 554.135 1040.82 562.521 967.878C564.081 954.308 563.82 940.54 561.969 927.006C551.655 851.624 529.177 806.773 473.859 735.089C411.157 661.137 374.52 620.787 321.235 539.75C276.536 469.356 260.423 427.622 259.151 346.258C269.902 247.687 298.31 212.387 358.931 158.305C407.526 108.319 424.828 72.9662 443.558 1V342.935C398.637 406.431 378.029 383.165 358.931 427.126C348.014 351.819 375.206 333.574 421.385 287.546V185.63C380.363 257.606 326.203 289.479 320.496 323.364C307.36 378.57 312.723 415.411 391.448 513.164C514.136 636.864 570.194 702.431 617.612 803.771C663.593 952.538 662.57 1143.32 481.351 1250.32C471.587 1256.09 461.095 1260.69 450.393 1264.44C340.164 1303.01 268.356 1309.7 166.141 1199.71M116.134 1139.8C53.6603 1094.68 23.5365 1034.97 25.1142 953.759C25.4258 937.724 28.3264 921.805 33.0027 906.464C47.858 857.73 62.8036 835.209 84.1553 810.885C94.7283 798.841 106.634 787.951 119.736 778.719C167.24 745.248 197.436 737.933 245.847 735.089C308.703 732.38 343.917 742.69 387.135 765.83C408.807 777.433 428.245 792.89 444.898 810.973C491.874 861.983 512.82 898.693 520.908 959.968C521.104 914.97 530.553 895.111 480.149 811.518C463.101 783.245 440.233 758.576 412.213 741.115C357.115 706.78 314.332 697.766 245.847 702.963C178.998 706.419 144.298 723.915 85.9499 774.969C46.6428 812.162 25.6615 839.794 8.46932 902.385C3.51355 920.427 0.779465 939.098 1.03058 957.807C1.56255 997.44 9.04734 1027.82 25.4584 1064.59C37.9884 1092.67 57.0708 1117.37 80.1136 1137.72C110.082 1164.2 133.071 1180.32 166.141 1199.71M116.134 1139.8C133.706 1162.79 150.289 1182.65 166.141 1199.71M527.074 742.105C584.135 820.363 594.807 872.463 595.003 954.381C595.051 974.259 592.241 994.139 586.083 1013.04C560.978 1090.1 530.701 1125.54 461.664 1162.32C400.658 1191.15 360.948 1196.74 283.541 1194.08C376.993 1225.52 426.421 1216.97 510.075 1162.32C602.977 1095.26 614.139 1029.54 617.612 965.138C612.33 870.331 598.962 819.852 527.074 742.105Z" stroke="#F5F5F5"/>
</svg>
