<svg width="3586" height="1291" viewBox="0 0 3586 1291" fill="none" xmlns="http://www.w3.org/2000/svg">
<path fill-rule="evenodd" clip-rule="evenodd" d="M443.558 1V342.935C398.637 406.431 378.029 383.165 358.931 427.126C348.014 351.819 375.206 333.574 421.385 287.546V185.63C380.363 257.606 326.203 289.479 320.496 323.364C307.36 378.57 312.723 415.411 391.448 513.164C514.136 636.864 570.194 702.431 617.612 803.771C663.593 952.538 662.57 1143.32 481.351 1250.32C471.587 1256.09 461.095 1260.69 450.393 1264.44C340.164 1303.01 268.356 1309.7 166.141 1199.71C150.289 1182.65 133.706 1162.79 116.134 1139.8C72.3495 1027.48 86.8327 971.58 141.191 886.221C146.572 877.771 152.678 869.739 159.634 862.53C206.204 814.273 246.415 800.137 323.781 812.248C342.518 815.181 360.582 821.662 376.823 831.456C443.446 871.634 464.374 910.061 465.349 979.374C465.57 995.152 462.768 1010.89 456.83 1025.51C434.487 1080.52 406.074 1101.49 351.688 1105.66C325.995 1107.63 299.712 1102.58 277.825 1088.98C253.238 1073.7 241.363 1056.2 236.497 1030.57C231.911 1006.41 236.889 981.285 247.725 959.216C268.423 917.061 292.185 904.65 334.539 897.564C285.63 936.922 276.918 957.946 291.302 993.571C313.639 1035.67 367.676 1042.16 399.573 1001.99C403.834 996.624 406.91 990.433 409.449 984.069C427.282 939.367 426.178 911.442 389.195 871.508C387.037 869.177 384.6 867.078 381.964 865.304C338.698 836.173 304.217 836.679 261.457 848.831C251.008 851.8 240.915 855.986 231.528 861.451C198.02 880.958 182.698 899.463 169.374 925.898C161.103 942.308 156.259 960.326 155.14 978.668C152.638 1019.71 159.514 1050.96 184.502 1102.13C189.811 1110.38 194.477 1117.29 198.963 1123.31C217.989 1148.81 249.702 1160.24 281.309 1163.92C353.853 1172.36 398.313 1160.95 461.664 1127.24C529.138 1082.01 554.135 1040.82 562.521 967.878C564.081 954.308 563.82 940.54 561.969 927.006C551.655 851.624 529.177 806.773 473.859 735.089C411.157 661.137 374.52 620.787 321.235 539.75C276.536 469.356 260.423 427.622 259.151 346.258C269.902 247.687 298.31 212.387 358.931 158.305C407.526 108.319 424.828 72.9662 443.558 1ZM586.083 1013.04C592.241 994.139 595.051 974.259 595.003 954.381C594.807 872.463 584.135 820.363 527.074 742.105C598.962 819.852 612.33 870.331 617.612 965.138C614.139 1029.54 602.977 1095.26 510.075 1162.32C426.421 1216.97 376.993 1225.52 283.541 1194.08C360.948 1196.74 400.658 1191.15 461.664 1162.32C530.701 1125.54 560.978 1090.1 586.083 1013.04Z" fill="#F5F5F5"/>
<path d="M116.134 1139.8C53.6603 1094.68 23.5365 1034.97 25.1142 953.759C25.4258 937.724 28.3264 921.805 33.0027 906.464C47.858 857.73 62.8036 835.209 84.1553 810.885C94.7283 798.841 106.634 787.951 119.736 778.719C167.24 745.248 197.436 737.933 245.847 735.089C308.703 732.38 343.917 742.69 387.135 765.83C408.807 777.433 428.245 792.89 444.898 810.973C491.874 861.983 512.82 898.693 520.908 959.968C521.104 914.97 530.553 895.111 480.149 811.518C463.101 783.245 440.233 758.576 412.213 741.115C357.115 706.78 314.332 697.766 245.847 702.963C178.998 706.419 144.298 723.915 85.9499 774.969C46.6428 812.162 25.6615 839.794 8.46932 902.385C3.51355 920.427 0.779465 939.098 1.03058 957.807C1.56255 997.44 9.04734 1027.82 25.4584 1064.59C37.9884 1092.67 57.0708 1117.37 80.1136 1137.72C110.082 1164.2 133.071 1180.32 166.141 1199.71C150.289 1182.65 133.706 1162.79 116.134 1139.8Z" fill="#F5F5F5"/>
<path d="M116.134 1139.8C72.3495 1027.48 86.8327 971.58 141.191 886.221C146.572 877.771 152.678 869.739 159.634 862.53C206.204 814.273 246.415 800.137 323.781 812.248C342.518 815.181 360.582 821.662 376.823 831.456C443.446 871.634 464.374 910.061 465.349 979.374C465.57 995.152 462.768 1010.89 456.83 1025.51C434.487 1080.52 406.074 1101.49 351.688 1105.66C325.995 1107.63 299.712 1102.58 277.825 1088.98C253.238 1073.7 241.363 1056.2 236.497 1030.57C231.911 1006.41 236.889 981.285 247.725 959.216C268.423 917.061 292.185 904.65 334.539 897.564C285.63 936.922 276.918 957.946 291.302 993.571C313.639 1035.67 367.676 1042.16 399.573 1001.99C403.834 996.624 406.91 990.433 409.449 984.069C427.282 939.367 426.178 911.442 389.195 871.508C387.037 869.177 384.6 867.078 381.964 865.304C338.698 836.173 304.217 836.679 261.457 848.831C251.008 851.8 240.915 855.986 231.528 861.451C198.02 880.958 182.698 899.463 169.374 925.898C161.103 942.308 156.259 960.326 155.14 978.668C152.638 1019.71 159.514 1050.96 184.502 1102.13C189.811 1110.38 194.477 1117.29 198.963 1123.31C217.989 1148.81 249.702 1160.24 281.309 1163.92C353.853 1172.36 398.313 1160.95 461.664 1127.24C529.138 1082.01 554.135 1040.82 562.521 967.878C564.081 954.308 563.82 940.54 561.969 927.006C551.655 851.624 529.177 806.773 473.859 735.089C411.157 661.137 374.52 620.787 321.235 539.75C276.536 469.356 260.423 427.622 259.151 346.258C269.902 247.687 298.31 212.387 358.931 158.305C407.526 108.319 424.828 72.9662 443.558 1V342.935C398.637 406.431 378.029 383.165 358.931 427.126C348.014 351.819 375.206 333.574 421.385 287.546V185.63C380.363 257.606 326.203 289.479 320.496 323.364C307.36 378.57 312.723 415.411 391.448 513.164C514.136 636.864 570.194 702.431 617.612 803.771C663.593 952.538 662.57 1143.32 481.351 1250.32C471.587 1256.09 461.095 1260.69 450.393 1264.44C340.164 1303.01 268.356 1309.7 166.141 1199.71M116.134 1139.8C53.6603 1094.68 23.5365 1034.97 25.1142 953.759C25.4258 937.724 28.3264 921.805 33.0027 906.464C47.858 857.73 62.8036 835.209 84.1553 810.885C94.7283 798.841 106.634 787.951 119.736 778.719C167.24 745.248 197.436 737.933 245.847 735.089C308.703 732.38 343.917 742.69 387.135 765.83C408.807 777.433 428.245 792.89 444.898 810.973C491.874 861.983 512.82 898.693 520.908 959.968C521.104 914.97 530.553 895.111 480.149 811.518C463.101 783.245 440.233 758.576 412.213 741.115C357.115 706.78 314.332 697.766 245.847 702.963C178.998 706.419 144.298 723.915 85.9499 774.969C46.6428 812.162 25.6615 839.794 8.46932 902.385C3.51355 920.427 0.779465 939.098 1.03058 957.807C1.56255 997.44 9.04734 1027.82 25.4584 1064.59C37.9884 1092.67 57.0708 1117.37 80.1136 1137.72C110.082 1164.2 133.071 1180.32 166.141 1199.71M116.134 1139.8C133.706 1162.79 150.289 1182.65 166.141 1199.71M527.074 742.105C584.135 820.363 594.807 872.463 595.003 954.381C595.051 974.259 592.241 994.139 586.083 1013.04C560.978 1090.1 530.701 1125.54 461.664 1162.32C400.658 1191.15 360.948 1196.74 283.541 1194.08C376.993 1225.52 426.421 1216.97 510.075 1162.32C602.977 1095.26 614.139 1029.54 617.612 965.138C612.33 870.331 598.962 819.852 527.074 742.105Z" stroke="#F5F5F5"/>
<path d="M3238.53 1243.22C3238.53 1240.07 3238.78 1236.33 3239.26 1231.97C3239.74 1227.62 3241.55 1224.35 3244.69 1222.18C3246.37 1220.48 3248.54 1218.79 3251.2 1217.1C3254.09 1215.4 3257.11 1213.83 3260.24 1212.38C3263.62 1210.93 3266.88 1209.72 3270.01 1208.75C3273.15 1208.03 3275.8 1207.66 3277.97 1207.66C3284.97 1207.66 3291.48 1208.63 3297.51 1210.57C3303.54 1212.74 3310.17 1213.83 3317.41 1213.83H3327.54C3328.02 1213.59 3328.99 1212.86 3330.43 1211.65C3331.88 1210.45 3333.45 1208.99 3335.14 1207.3C3337.07 1205.85 3338.76 1204.4 3340.2 1202.95C3341.89 1201.74 3343.1 1200.77 3343.82 1200.04C3344.06 1199.8 3344.42 1198.96 3344.91 1197.51C3345.39 1196.3 3345.87 1194.84 3346.35 1193.15C3347.08 1191.46 3347.68 1189.89 3348.16 1188.44C3348.89 1186.98 3349.25 1186.02 3349.25 1185.53C3349.73 1185.29 3350.7 1184.44 3352.14 1182.99C3353.59 1181.78 3354.31 1180.94 3354.31 1180.45C3357.21 1176.1 3360.22 1170.42 3363.36 1163.4C3366.74 1156.39 3369.75 1149.01 3372.4 1141.27C3375.3 1133.53 3377.71 1125.91 3379.64 1118.41C3381.57 1110.92 3382.53 1104.63 3382.53 1099.55C3382.53 1098.34 3382.29 1097.73 3381.81 1097.73C3379.16 1090.72 3376.02 1084.55 3372.4 1079.23C3368.79 1073.91 3365.65 1068.11 3363 1061.82C3361.07 1056.74 3359.5 1051.66 3358.29 1046.58C3357.09 1041.5 3355.88 1036.42 3354.68 1031.34C3353.71 1026.26 3352.62 1021.18 3351.42 1016.1C3350.45 1011.03 3349.13 1006.07 3347.44 1001.23C3345.99 997.843 3344.3 994.578 3342.37 991.434C3340.44 988.048 3338.51 984.783 3336.58 981.638C3334.66 978.494 3332.85 975.35 3331.16 972.205C3329.47 968.819 3328.26 965.433 3327.54 962.047V948.261C3327.06 945.358 3326.21 942.335 3325.01 939.19C3323.8 936.046 3322.47 932.902 3321.03 929.758C3319.58 926.613 3318.13 923.59 3316.69 920.688C3315.48 917.785 3314.51 915.125 3313.79 912.706C3313.79 911.98 3313.31 910.65 3312.34 908.715C3311.62 906.538 3311.26 905.087 3311.26 904.361C3309.09 896.622 3306.68 889.124 3304.02 881.868C3301.61 874.37 3299.44 866.872 3297.51 859.374C3297.51 859.132 3297.39 858.407 3297.15 857.197C3296.91 855.988 3296.54 854.658 3296.06 853.206C3295.82 851.513 3295.58 850.062 3295.34 848.853C3295.1 847.402 3294.98 846.434 3294.98 845.95C3292.08 837.485 3287.98 828.778 3282.68 819.829C3277.61 810.88 3272.06 802.898 3266.03 795.884C3264.34 793.707 3261.81 791.651 3258.43 789.716C3255.06 787.539 3251.68 785.362 3248.3 783.186C3245.17 780.767 3242.27 778.227 3239.62 775.567C3237.21 772.664 3236 769.399 3236 765.771C3236 763.836 3236.6 762.385 3237.81 761.418C3239.02 760.45 3240.46 759.724 3242.15 759.241C3244.08 758.757 3246.01 758.515 3247.94 758.515C3249.87 758.273 3251.56 758.152 3253.01 758.152C3257.83 758.152 3262.29 758.999 3266.39 760.692C3270.49 762.385 3274.59 763.232 3278.7 763.232H3281.23C3282.92 762.99 3285.33 762.748 3288.46 762.506C3291.84 762.264 3295.1 762.022 3298.23 761.78C3301.61 761.538 3304.5 761.418 3306.92 761.418C3309.33 761.176 3310.78 760.934 3311.26 760.692C3311.5 760.692 3312.34 760.692 3313.79 760.692C3315.48 760.45 3317.17 760.329 3318.86 760.329C3320.79 760.087 3322.59 759.966 3324.28 759.966C3325.97 759.724 3327.06 759.604 3327.54 759.604C3331.4 759.604 3335.98 759.362 3341.29 758.878C3346.59 758.394 3350.94 758.152 3354.31 758.152C3356.48 758.152 3358.78 758.394 3361.19 758.878C3363.84 759.362 3366.25 760.208 3368.42 761.418C3370.84 762.627 3372.77 764.199 3374.21 766.134C3375.9 768.069 3376.75 770.488 3376.75 773.39C3376.75 776.776 3376.02 779.437 3374.57 781.372C3373.13 783.065 3371.32 784.637 3369.15 786.088C3367.22 787.297 3365.17 788.628 3363 790.079C3360.83 791.53 3359.02 793.465 3357.57 795.884C3355.88 799.995 3354.92 803.382 3354.68 806.042C3354.43 808.703 3354.31 812.21 3354.31 816.563C3354.31 821.401 3354.43 825.633 3354.68 829.262C3354.92 832.648 3355.88 836.397 3357.57 840.508C3357.81 841.234 3358.53 843.048 3359.74 845.95C3361.19 848.611 3362.63 851.513 3364.08 854.658C3365.77 857.56 3367.22 860.342 3368.42 863.002C3369.87 865.663 3370.84 867.356 3371.32 868.081C3371.56 868.565 3371.8 869.653 3372.04 871.347C3372.52 872.798 3372.89 874.491 3373.13 876.426C3373.37 878.119 3373.61 879.812 3373.85 881.505C3374.09 883.198 3374.33 884.166 3374.57 884.407C3376.02 892.873 3377.95 901.459 3380.36 910.166C3382.78 918.632 3385.43 926.734 3388.32 934.474C3389.77 940.037 3392.18 945.116 3395.56 949.712C3399.18 954.307 3402.19 959.265 3404.6 964.587C3405.57 967.247 3406.41 970.512 3407.14 974.382C3407.86 978.01 3408.71 981.517 3409.67 984.903C3410.88 988.29 3412.44 991.192 3414.37 993.611C3416.54 996.029 3419.56 997.239 3423.42 997.239C3425.59 997.239 3427.28 997.118 3428.48 996.876C3429.93 996.392 3431.14 994.82 3432.1 992.16C3434.27 987.322 3436.44 982.122 3438.61 976.559C3440.79 970.754 3442.96 965.07 3445.13 959.507C3445.85 958.056 3447.42 954.791 3449.83 949.712C3452.48 944.632 3455.26 939.19 3458.15 933.386C3461.05 927.339 3463.7 921.897 3466.11 917.06C3468.77 911.98 3470.33 908.836 3470.82 907.627C3471.06 906.901 3471.42 905.45 3471.9 903.273C3472.38 901.096 3472.99 898.678 3473.71 896.017C3474.43 893.356 3475.04 890.938 3475.52 888.761C3476 886.584 3476.36 885.133 3476.6 884.407C3476.6 883.924 3476.97 882.835 3477.69 881.142C3478.41 879.207 3478.78 877.998 3478.78 877.514C3480.46 872.919 3481.79 868.565 3482.76 864.453C3483.72 860.1 3484.56 855.988 3485.29 852.118C3486.01 848.006 3486.61 843.895 3487.1 839.783C3487.82 835.671 3488.66 831.317 3489.63 826.722C3489.63 826.238 3490.11 825.271 3491.08 823.819C3492.28 822.368 3492.89 821.401 3492.89 820.917V815.475V810.759C3492.89 809.791 3492.52 808.461 3491.8 806.768C3491.08 805.075 3490.23 803.382 3489.27 801.689C3488.3 799.754 3487.34 798.061 3486.37 796.609C3485.41 794.916 3484.81 793.828 3484.56 793.344C3482.88 791.167 3480.1 789.232 3476.24 787.539C3472.62 785.846 3468.89 784.274 3465.03 782.823C3461.41 781.13 3458.15 779.558 3455.26 778.106C3452.6 776.655 3451.28 775.083 3451.28 773.39C3451.28 770.971 3452.48 769.036 3454.9 767.585C3457.31 765.892 3460.2 764.562 3463.58 763.594C3466.96 762.627 3470.21 761.901 3473.35 761.418C3476.73 760.934 3479.38 760.692 3481.31 760.692C3485.41 760.692 3489.27 761.176 3492.89 762.143C3496.75 762.869 3501.09 763.232 3505.91 763.232C3509.05 763.232 3512.06 763.594 3514.96 764.32C3518.09 764.804 3521.47 765.046 3525.09 765.046C3529.19 765.046 3532.68 765.167 3535.58 765.408C3538.71 765.65 3542.33 765.771 3546.43 765.771C3549.81 765.771 3552.95 765.408 3555.84 764.683C3558.73 763.715 3562.11 763.232 3565.97 763.232C3567.9 763.232 3569.95 763.353 3572.12 763.594C3574.53 763.594 3576.7 763.957 3578.63 764.683C3580.81 765.167 3582.49 766.134 3583.7 767.585C3585.15 769.036 3585.87 770.971 3585.87 773.39C3585.87 776.776 3583.58 780.162 3579 783.548C3574.65 786.693 3569.59 789.958 3563.8 793.344C3558.01 796.73 3552.22 800.116 3546.43 803.503C3540.89 806.889 3536.79 810.154 3534.13 813.298C3532.2 815.475 3531 818.015 3530.51 820.917C3530.27 823.819 3529.55 826.601 3528.34 829.262C3528.1 829.987 3527.38 831.438 3526.17 833.615C3525.21 835.55 3524.12 837.727 3522.92 840.146C3521.71 842.564 3520.5 844.983 3519.3 847.402C3518.33 849.578 3517.85 851.03 3517.85 851.755C3517.61 851.997 3517.13 852.844 3516.4 854.295C3515.92 855.504 3515.32 856.955 3514.59 858.648C3513.87 860.1 3513.15 861.551 3512.42 863.002C3511.94 864.453 3511.58 865.3 3511.34 865.542C3511.34 866.025 3510.98 866.872 3510.25 868.081C3509.77 869.291 3509.41 870.137 3509.17 870.621C3508.93 871.105 3508.32 871.951 3507.36 873.161C3506.63 874.37 3505.79 875.579 3504.83 876.789C3504.1 877.998 3503.26 879.207 3502.29 880.417C3501.57 881.626 3501.09 882.352 3500.85 882.593C3500.6 883.077 3500 884.407 3499.04 886.584C3498.31 888.519 3497.47 890.696 3496.5 893.115C3495.54 895.533 3494.69 897.831 3493.97 900.008C3493.25 902.185 3492.89 903.636 3492.89 904.361C3492.4 905.087 3491.08 907.385 3488.91 911.255C3486.98 914.883 3484.93 918.874 3482.76 923.227C3480.58 927.581 3478.53 931.693 3476.6 935.562C3474.67 939.432 3473.59 941.972 3473.35 943.181C3472.14 945.842 3471.06 948.986 3470.09 952.614C3469.37 956.242 3468.52 959.991 3467.56 963.861C3466.84 967.489 3465.99 971.117 3465.03 974.745C3464.06 978.131 3463.1 981.275 3462.13 984.178C3457.79 996.513 3452.73 1008.24 3446.94 1019.37C3441.39 1030.25 3436.44 1041.5 3432.1 1053.11C3431.86 1053.59 3431.5 1054.68 3431.02 1056.38C3430.53 1058.07 3429.93 1059.88 3429.21 1061.82C3428.73 1063.51 3428.12 1065.2 3427.4 1066.9C3426.92 1068.59 3426.55 1069.68 3426.31 1070.16C3424.38 1075 3422.7 1080.56 3421.25 1086.85C3420.04 1093.14 3417.99 1098.7 3415.1 1103.54C3414.86 1103.78 3414.25 1104.75 3413.29 1106.44C3412.32 1107.89 3411.24 1109.47 3410.03 1111.16C3408.83 1113.09 3407.62 1114.91 3406.41 1116.6C3405.45 1118.29 3404.85 1119.38 3404.6 1119.87C3404.36 1119.87 3404.12 1120.47 3403.88 1121.68C3403.64 1123.13 3403.4 1124.7 3403.16 1126.4C3402.92 1128.09 3402.67 1129.66 3402.43 1131.11C3402.19 1132.56 3402.07 1133.41 3402.07 1133.65C3401.59 1135.83 3400.87 1138.61 3399.9 1142C3398.94 1145.62 3397.97 1149.13 3397.01 1152.52C3396.04 1156.15 3395.2 1159.29 3394.47 1161.95C3393.75 1164.61 3393.27 1166.18 3393.03 1166.67C3388.44 1180.21 3382.05 1192.43 3373.85 1203.31C3365.65 1214.19 3357.45 1225.2 3349.25 1236.33C3349.25 1236.57 3348.64 1237.41 3347.44 1238.86C3346.47 1240.56 3345.39 1242.25 3344.18 1243.94C3342.98 1245.88 3341.77 1247.69 3340.56 1249.39C3339.6 1251.08 3339 1252.05 3338.76 1252.29C3338.03 1253.26 3336.34 1254.83 3333.69 1257C3331.28 1259.42 3328.75 1261.96 3326.09 1264.62C3323.44 1267.28 3320.91 1269.82 3318.49 1272.24C3316.08 1274.66 3314.51 1276.35 3313.79 1277.32C3307.04 1277.81 3300.77 1279.26 3294.98 1281.68C3289.43 1284.09 3283.4 1285.3 3276.89 1285.3C3263.14 1285.3 3253.25 1281.55 3247.22 1274.06C3241.43 1266.8 3238.53 1256.52 3238.53 1243.22Z" fill="#F5F5F5"/>
<path d="M2856.78 1102.54C2856.78 1099.87 2856.9 1097.32 2857.14 1094.9C2857.63 1092.47 2858.84 1090.41 2860.77 1088.72C2861.74 1088.72 2863.67 1088.6 2866.58 1088.35C2869.48 1087.87 2872.38 1087.51 2875.28 1087.26C2878.43 1086.78 2881.33 1086.29 2883.99 1085.81C2886.89 1085.32 2888.95 1085.08 2890.16 1085.08C2895.72 1084.35 2899.59 1082.05 2901.76 1078.17C2904.18 1074.29 2905.75 1069.69 2906.48 1064.35C2907.21 1059.02 2907.69 1053.57 2907.93 1047.99C2908.17 1042.17 2909.14 1037.08 2910.83 1032.72C2911.07 1029.57 2911.2 1024.23 2911.2 1016.72C2911.44 1008.96 2911.68 1000.84 2911.92 992.354C2912.16 983.869 2912.28 975.869 2912.28 968.354C2912.53 960.597 2912.65 955.263 2912.65 952.354C2912.65 951.627 2912.65 949.809 2912.65 946.9C2912.89 943.748 2913.01 940.233 2913.01 936.354C2913.01 932.476 2913.01 928.597 2913.01 924.718C2913.25 920.597 2913.37 917.203 2913.37 914.536C2913.37 912.597 2913.25 909.93 2913.01 906.536C2913.01 902.9 2913.01 899.385 2913.01 895.991C2913.01 892.597 2912.89 889.567 2912.65 886.9C2912.65 883.991 2912.65 882.294 2912.65 881.809C2912.65 881.082 2912.53 879.627 2912.28 877.445C2912.28 875.264 2912.16 872.961 2911.92 870.536C2911.68 868.112 2911.44 865.93 2911.2 863.991C2911.2 862.052 2911.07 860.84 2910.83 860.355C2910.59 859.385 2909.62 858.052 2907.93 856.355C2906.24 854.658 2904.91 853.324 2903.94 852.355C2903.46 850.415 2901.88 848.112 2899.22 845.446C2896.56 842.537 2894.63 840.84 2893.42 840.355C2891 838.658 2888.22 837.809 2885.08 837.809C2881.93 837.567 2878.79 837.324 2875.64 837.082C2872.5 836.84 2869.72 836.112 2867.3 834.9C2864.88 833.688 2863.31 831.021 2862.59 826.9C2862.59 826.415 2862.95 825.567 2863.67 824.355C2864.64 822.9 2865.37 821.931 2865.85 821.446C2866.09 820.718 2866.7 819.87 2867.66 818.9C2868.87 817.688 2870.08 816.476 2871.29 815.264C2872.5 814.052 2873.59 813.082 2874.56 812.355C2875.77 811.385 2876.61 810.779 2877.1 810.537C2877.34 810.052 2878.67 808.961 2881.09 807.264C2883.75 805.567 2886.89 803.749 2890.52 801.809C2894.15 799.628 2897.77 797.567 2901.4 795.628C2905.27 793.446 2908.41 791.749 2910.83 790.537C2914.7 788.355 2919.06 786.658 2923.89 785.446C2928.73 783.991 2933.45 782.173 2938.04 779.991C2942.15 777.325 2945.54 774.779 2948.2 772.355C2951.1 769.931 2954.97 768.719 2959.81 768.719C2964.4 768.719 2967.79 770.537 2969.96 774.173C2972.14 777.567 2973.71 781.688 2974.68 786.537C2975.65 791.143 2976.25 795.991 2976.49 801.082C2976.74 805.931 2977.1 809.931 2977.58 813.082C2977.58 814.052 2977.58 815.749 2977.58 818.173C2977.82 820.355 2977.94 822.779 2977.94 825.446C2978.19 828.112 2978.43 830.658 2978.67 833.082C2978.91 835.506 2979.15 837.324 2979.4 838.537C2980.6 840.476 2981.81 841.931 2983.02 842.9C2984.23 843.627 2985.93 843.991 2988.1 843.991H2991.37C2991.85 843.264 2992.7 842.294 2993.91 841.082C2995.12 839.627 2996.45 838.173 2997.9 836.718C2999.35 835.264 3000.68 833.931 3001.89 832.718C3003.1 831.264 3003.94 830.173 3004.43 829.446C3004.43 829.203 3004.91 828.355 3005.88 826.9C3007.09 825.446 3007.69 824.476 3007.69 823.991C3009.87 820.597 3012.41 818.415 3015.31 817.446C3018.45 816.234 3021.35 813.931 3024.02 810.537C3029.58 803.022 3035.5 796.961 3041.79 792.355C3048.08 787.507 3055.33 782.294 3063.56 776.719C3068.88 772.598 3074.68 770.294 3080.97 769.81C3087.26 769.082 3093.91 768.719 3100.92 768.719C3106.73 768.719 3111.92 769.204 3116.52 770.173C3121.36 771.143 3125.83 772.598 3129.94 774.537C3134.05 776.234 3138.04 778.416 3141.91 781.082C3146.02 783.749 3150.14 786.9 3154.25 790.537C3159.08 794.9 3164.04 799.87 3169.12 805.446C3174.44 811.022 3178.07 817.203 3180 823.991C3180 825.688 3180.12 828.112 3180.37 831.264C3180.85 834.173 3181.33 837.082 3181.82 839.991C3182.54 842.9 3183.15 845.567 3183.63 847.991C3184.11 850.415 3184.48 851.87 3184.72 852.355V879.991C3184.72 880.233 3184.84 881.203 3185.08 882.9C3185.32 884.355 3185.57 886.052 3185.81 887.991C3186.29 889.688 3186.65 891.385 3186.9 893.082C3187.38 894.779 3187.62 895.87 3187.62 896.354V899.264V901.809C3187.62 902.536 3187.38 904.233 3186.9 906.9C3186.65 909.567 3186.29 912.476 3185.81 915.627C3185.57 918.779 3185.32 921.809 3185.08 924.718C3184.84 927.385 3184.72 929.203 3184.72 930.173V949.809V999.263C3184.72 999.748 3184.6 1000.84 3184.36 1002.54C3184.11 1004.23 3183.75 1006.05 3183.27 1007.99C3183.03 1009.69 3182.78 1011.38 3182.54 1013.08C3182.3 1014.54 3182.18 1015.38 3182.18 1015.63V1053.44C3182.18 1056.84 3182.42 1060.84 3182.91 1065.44C3183.39 1069.81 3184.96 1074.05 3187.62 1078.17C3190.28 1077.69 3192.82 1077.32 3195.24 1077.08C3197.9 1076.84 3200.56 1076.72 3203.22 1076.72C3205.88 1076.72 3208.42 1076.84 3210.84 1077.08C3213.26 1077.32 3215.55 1077.69 3217.73 1078.17C3218.46 1078.17 3219.42 1079.02 3220.63 1080.72C3222.08 1082.17 3223.05 1083.38 3223.54 1084.35C3223.54 1084.84 3223.66 1085.44 3223.9 1086.17C3223.9 1086.66 3223.9 1087.14 3223.9 1087.63C3224.14 1088.11 3224.26 1088.47 3224.26 1088.72C3224.26 1090.9 3223.66 1093.2 3222.45 1095.63C3221.48 1097.81 3220.15 1099.87 3218.46 1101.81C3217.01 1103.75 3215.19 1105.32 3213.02 1106.54C3211.08 1107.75 3209.15 1108.35 3207.21 1108.35H3204.67C3204.19 1108.11 3202.98 1107.75 3201.04 1107.26C3199.11 1106.78 3197.05 1106.41 3194.88 1106.17C3192.7 1105.93 3190.52 1105.69 3188.35 1105.44C3186.41 1105.2 3185.2 1105.08 3184.72 1105.08C3183.99 1105.08 3182.06 1105.2 3178.92 1105.44C3176.01 1105.69 3172.75 1105.93 3169.12 1106.17C3165.49 1106.41 3161.99 1106.78 3158.6 1107.26C3155.21 1107.75 3152.8 1108.11 3151.35 1108.35C3150.86 1108.35 3149.53 1108.6 3147.35 1109.08C3145.18 1109.81 3143.73 1110.17 3143 1110.17H3101.65C3100.92 1110.41 3099.35 1110.66 3096.93 1110.9C3094.51 1111.14 3091.85 1111.38 3088.95 1111.63C3086.29 1111.87 3083.75 1112.11 3081.33 1112.35C3078.91 1112.6 3077.34 1112.72 3076.62 1112.72H3072.26C3071.05 1112.72 3069.84 1111.99 3068.64 1110.54C3067.43 1109.08 3066.34 1107.38 3065.37 1105.44C3064.4 1103.51 3063.56 1101.44 3062.83 1099.26C3062.35 1097.08 3062.11 1095.26 3062.11 1093.81C3062.11 1090.66 3064.16 1088.35 3068.27 1086.9C3072.63 1085.44 3077.46 1084.35 3082.78 1083.63C3088.35 1082.9 3093.67 1082.29 3098.74 1081.81C3104.07 1081.08 3107.81 1079.99 3109.99 1078.54C3110.72 1078.05 3111.56 1076.96 3112.53 1075.26C3113.74 1073.57 3114.95 1071.75 3116.16 1069.81C3117.37 1067.87 3118.33 1065.93 3119.06 1063.99C3120.03 1062.05 3120.75 1060.47 3121.24 1059.26C3121.96 1057.08 3122.45 1055.38 3122.69 1054.17C3122.93 1052.72 3123.17 1051.51 3123.41 1050.54C3123.65 1049.32 3123.78 1048.11 3123.78 1046.9C3123.78 1045.44 3123.78 1043.63 3123.78 1041.44V1015.63C3123.78 1014.9 3123.78 1012.96 3123.78 1009.81C3123.78 1006.66 3123.78 1003.26 3123.78 999.627C3124.02 995.748 3124.14 992.233 3124.14 989.081C3124.14 985.687 3124.14 983.627 3124.14 982.9C3123.9 980.233 3123.65 976.112 3123.41 970.536C3123.41 964.96 3123.29 958.778 3123.05 951.991C3122.81 944.96 3122.57 937.688 3122.32 930.173C3122.32 922.415 3122.2 915.142 3121.96 908.354C3121.96 901.324 3121.96 895.142 3121.96 889.809C3121.96 884.233 3121.96 880.112 3121.96 877.445C3121.48 871.385 3119.91 865.082 3117.25 858.536C3114.83 851.991 3111.44 846.052 3107.09 840.718C3102.73 835.143 3097.78 830.658 3092.21 827.264C3086.65 823.628 3080.61 821.688 3074.08 821.446C3071.42 821.203 3068.39 821.325 3065.01 821.809C3061.62 822.294 3058.12 822.9 3054.49 823.628C3050.86 824.355 3047.35 825.325 3043.97 826.537C3040.58 827.506 3037.44 828.476 3034.54 829.446C3033.08 830.173 3030.79 831.264 3027.64 832.718C3024.74 834.173 3021.84 835.749 3018.94 837.446C3016.03 838.9 3013.37 840.234 3010.96 841.446C3008.78 842.658 3007.69 843.506 3007.69 843.991C3006.97 844.476 3005.51 846.052 3003.34 848.718C3001.4 851.385 2999.35 854.294 2997.17 857.446C2995.24 860.597 2993.3 863.506 2991.37 866.173C2989.67 868.839 2988.59 870.536 2988.1 871.264C2983.75 877.567 2981.21 884.112 2980.48 890.9C2980 897.688 2979.03 904.961 2977.58 912.718C2977.1 913.688 2976.49 915.627 2975.77 918.536C2975.28 921.445 2975.04 923.506 2975.04 924.718V946.536C2975.04 947.263 2974.8 948.96 2974.32 951.627C2973.83 954.294 2973.35 957.203 2972.87 960.354C2972.38 963.506 2971.9 966.536 2971.41 969.445C2970.93 972.112 2970.69 973.93 2970.69 974.9V1011.99C2970.69 1018.54 2970.69 1024.48 2970.69 1029.81C2970.69 1035.14 2970.81 1040.35 2971.05 1045.44C2971.54 1050.29 2972.02 1055.38 2972.5 1060.72C2972.99 1065.81 2973.83 1071.63 2975.04 1078.17C2976.49 1080.84 2978.55 1082.54 2981.21 1083.26C2984.11 1083.99 2987.26 1084.35 2990.64 1084.35C2992.58 1084.35 2994.51 1084.23 2996.45 1083.99C2998.38 1083.75 3000.44 1083.63 3002.61 1083.63C3006 1083.63 3009.02 1085.44 3011.68 1089.08C3014.34 1092.47 3015.67 1096.11 3015.67 1099.99C3015.67 1104.35 3013.98 1107.26 3010.59 1108.72C3007.21 1110.17 3003.46 1110.9 2999.35 1110.9C2997.41 1110.9 2995.6 1110.78 2993.91 1110.54C2992.45 1110.29 2991.12 1110.17 2989.92 1110.17C2982.42 1110.17 2974.92 1109.69 2967.42 1108.72C2959.93 1107.99 2952.43 1107.63 2944.93 1107.63C2935.5 1107.63 2925.83 1107.99 2915.91 1108.72C2906 1109.69 2895.96 1110.17 2885.8 1110.17C2884.11 1110.17 2881.81 1110.29 2878.91 1110.54C2876.01 1111.02 2873.35 1111.26 2870.93 1111.26C2867.06 1111.26 2863.67 1110.66 2860.77 1109.44C2858.11 1108.23 2856.78 1105.93 2856.78 1102.54Z" fill="#F5F5F5"/>
<path d="M2546.91 963.631C2546.91 977.409 2549.67 990.703 2555.2 1003.51C2560.97 1016.08 2568.43 1027.32 2577.56 1037.23C2580.45 1040.13 2583.33 1043.4 2586.22 1047.02C2589.1 1050.65 2592.11 1054.15 2595.24 1057.54C2598.6 1060.92 2602.09 1064.06 2605.69 1066.96C2609.54 1069.87 2613.63 1072.04 2617.96 1073.49L2640.68 1078.57H2643.56H2646.81C2648.97 1078.33 2651.98 1078.08 2655.83 1077.84C2659.67 1077.6 2663.52 1077.36 2667.37 1077.12C2671.21 1076.88 2674.58 1076.63 2677.47 1076.39C2680.35 1076.15 2682.03 1076.03 2682.51 1076.03C2686.12 1075.3 2690.09 1073.49 2694.42 1070.59C2698.98 1067.69 2703.55 1064.43 2708.12 1060.8C2712.69 1056.93 2717.02 1053.07 2721.11 1049.2C2725.43 1045.09 2729.16 1041.71 2732.29 1039.05C2732.53 1039.05 2732.89 1038.8 2733.37 1038.32C2733.61 1038.08 2733.85 1037.72 2734.09 1037.23C2740.1 1024.66 2744.91 1011.49 2748.52 997.713C2752.36 983.693 2754.29 970.036 2754.29 956.742C2754.29 945.864 2753.32 935.712 2751.4 926.285C2749.72 916.858 2746.83 907.431 2742.74 898.004C2742.74 897.279 2742.26 895.829 2741.3 893.653C2740.58 891.478 2740.22 890.149 2740.22 889.665C2738.78 883.38 2737.21 876.612 2735.53 869.361C2734.09 861.868 2730.96 855.704 2726.15 850.869C2725.67 850.144 2724.35 848.694 2722.19 846.519C2720.02 844.343 2717.62 842.047 2714.97 839.63C2712.57 837.212 2710.29 834.916 2708.12 832.741C2706.2 830.565 2705.12 829.115 2704.88 828.39C2704.39 828.148 2703.67 827.544 2702.71 826.577C2701.99 825.368 2701.15 824.16 2700.19 822.951C2699.23 821.743 2698.26 820.655 2697.3 819.688C2696.58 818.479 2696.22 817.754 2696.22 817.512C2695.5 817.029 2694.42 816.062 2692.97 814.612C2691.77 812.92 2690.93 811.832 2690.45 811.349C2689.97 811.349 2689.13 811.107 2687.92 810.624C2686.72 809.898 2685.4 809.173 2683.96 808.448C2682.51 807.723 2681.19 807.119 2679.99 806.635C2678.79 805.91 2678.07 805.547 2677.83 805.547C2677.1 805.064 2675.18 804.46 2672.06 803.735C2668.93 803.009 2665.56 802.284 2661.96 801.559C2658.59 800.834 2655.35 800.23 2652.22 799.746C2649.33 799.021 2647.53 798.538 2646.81 798.296C2645.61 798.296 2643.68 798.538 2641.04 799.021C2638.39 799.263 2635.63 799.746 2632.74 800.471C2629.86 800.955 2627.09 801.438 2624.45 801.922C2621.8 802.405 2619.64 802.768 2617.96 803.009C2614.59 806.393 2611.1 809.536 2607.5 812.436C2604.13 815.095 2600.77 817.875 2597.4 820.776C2594.03 823.435 2590.79 826.335 2587.66 829.478C2584.78 832.378 2582.25 835.762 2580.09 839.63C2579.61 840.355 2578.65 841.926 2577.2 844.343C2576 846.76 2574.56 849.419 2572.87 852.32C2571.43 855.22 2569.99 857.879 2568.55 860.296C2567.34 862.714 2566.62 864.164 2566.38 864.647C2564.94 867.548 2563.26 870.69 2561.33 874.074C2559.65 877.217 2557.97 880.601 2556.28 884.226C2554.6 887.852 2553.16 891.599 2551.96 895.466C2550.99 899.092 2550.39 902.597 2550.15 905.981C2549.67 908.64 2549.19 912.87 2548.71 918.671C2548.47 924.472 2548.23 930.515 2547.99 936.8C2547.75 942.843 2547.51 948.523 2547.27 953.841C2547.03 958.917 2546.91 962.18 2546.91 963.631ZM2483.43 941.876C2483.43 936.8 2484.27 931.724 2485.96 926.648C2487.88 921.572 2489.44 916.617 2490.64 911.782C2490.89 910.815 2491.37 908.157 2492.09 903.806C2493.05 899.213 2494.01 894.379 2494.97 889.303C2496.17 884.226 2497.26 879.513 2498.22 875.162C2499.18 870.811 2499.78 868.152 2500.02 867.185C2500.5 865.735 2501.1 864.285 2501.83 862.835C2502.31 861.626 2502.79 860.417 2503.27 859.209C2503.99 857.758 2504.59 856.671 2505.07 855.946C2506.75 853.528 2508.8 850.144 2511.2 845.793C2513.61 841.443 2515.89 837.212 2518.05 833.103C2520.46 828.994 2522.5 825.489 2524.19 822.589C2526.11 819.446 2527.31 817.754 2527.79 817.512C2528.03 816.787 2528.99 815.579 2530.68 813.887C2532.36 811.953 2534.16 809.898 2536.09 807.723C2538.25 805.547 2540.3 803.614 2542.22 801.922C2544.14 799.988 2545.71 798.779 2546.91 798.296C2547.39 797.571 2548.71 796.967 2550.87 796.483C2553.28 796 2554.72 795.758 2555.2 795.758C2562.42 792.132 2569.27 788.748 2575.76 785.606C2582.25 782.463 2588.74 779.442 2595.24 776.541C2601.97 773.641 2608.82 770.982 2615.79 768.565C2622.77 766.148 2630.46 763.851 2638.88 761.676H2639.24H2640.68C2644.77 761.917 2650.06 762.28 2656.55 762.764C2663.04 763.005 2669.29 763.368 2675.3 763.851C2681.55 764.093 2686.84 764.335 2691.17 764.576C2695.74 764.818 2698.26 764.939 2698.74 764.939C2709.56 765.906 2720.26 769.29 2730.84 775.091C2741.66 780.651 2751.64 787.66 2760.78 796.121C2770.15 804.581 2778.21 814.008 2784.94 824.401C2791.91 834.554 2797.08 844.464 2800.45 854.133C2800.69 854.374 2800.93 855.462 2801.17 857.396C2801.65 859.088 2802.01 861.022 2802.25 863.197C2802.73 865.373 2803.09 867.427 2803.33 869.361C2803.82 871.053 2804.3 872.141 2804.78 872.624C2804.78 873.107 2805.14 874.558 2805.86 876.975C2806.82 879.15 2807.78 881.568 2808.74 884.226C2809.95 886.885 2810.91 889.303 2811.63 891.478C2812.59 893.653 2813.19 894.983 2813.43 895.466C2813.43 895.95 2813.55 896.554 2813.79 897.279C2813.79 897.763 2813.79 898.246 2813.79 898.73C2814.03 899.213 2814.15 899.576 2814.15 899.817C2814.15 903.926 2813.91 907.915 2813.43 911.782C2812.95 915.408 2812.71 919.155 2812.71 923.022C2812.71 926.164 2812.95 928.944 2813.43 931.361C2814.15 933.779 2814.52 936.437 2814.52 939.338V945.502C2811.39 960.005 2808.38 974.024 2805.5 987.561C2802.61 1000.86 2798.53 1013.42 2793.24 1025.27C2787.95 1036.87 2780.97 1047.63 2772.32 1057.54C2763.66 1067.45 2752 1076.15 2737.33 1083.64C2723.15 1090.89 2708.48 1096.58 2693.33 1100.68C2678.43 1104.79 2663.16 1106.85 2647.53 1106.85C2646.09 1106.85 2644.16 1106.73 2641.76 1106.49C2639.6 1106.49 2637.43 1106.49 2635.27 1106.49C2633.1 1106.49 2631.18 1106.36 2629.5 1106.12C2627.81 1106.12 2626.97 1106.12 2626.97 1106.12C2626.73 1106.12 2624.93 1105.76 2621.56 1105.04C2618.44 1104.07 2614.59 1102.98 2610.02 1101.77C2605.69 1100.56 2601.25 1099.35 2596.68 1098.15C2592.11 1096.7 2588.38 1095.61 2585.5 1094.88C2582.85 1094.16 2580.09 1093.43 2577.2 1092.71C2574.32 1091.98 2571.55 1090.77 2568.91 1089.08C2562.18 1085.46 2555.56 1081.59 2549.07 1077.48C2542.58 1073.37 2536.21 1069.14 2529.96 1064.79C2529.72 1064.31 2529.36 1063.82 2528.87 1063.34C2528.39 1062.61 2528.03 1062.01 2527.79 1061.53C2522.5 1055 2517.21 1046.9 2511.92 1037.23C2506.63 1027.32 2501.83 1016.93 2497.5 1006.05C2493.41 994.933 2490.04 983.814 2487.4 972.695C2484.75 961.334 2483.43 951.061 2483.43 941.876Z" fill="#F5F5F5"/>
<path d="M2053.73 1100.16V1097.99C2055.42 1095.34 2057.6 1092.09 2060.27 1088.23C2062.93 1084.14 2065.96 1081.97 2069.35 1081.73C2070.56 1081.73 2072.62 1081.61 2075.53 1081.37C2078.68 1080.88 2081.83 1080.52 2084.98 1080.28C2088.37 1079.8 2091.4 1079.44 2094.06 1079.2C2096.97 1078.71 2099.03 1078.47 2100.24 1078.47C2100.97 1078.47 2101.82 1078.11 2102.79 1077.39C2104 1076.43 2105.21 1075.34 2106.42 1074.14C2107.63 1072.93 2108.72 1071.73 2109.69 1070.52C2110.66 1069.32 2111.26 1068.35 2111.51 1067.63C2111.75 1067.63 2111.99 1066.79 2112.23 1065.1C2112.48 1063.41 2112.72 1061.61 2112.96 1059.68C2113.2 1057.51 2113.45 1055.46 2113.69 1053.53C2113.93 1051.37 2114.05 1049.68 2114.05 1048.47C2114.78 1039.08 2115.14 1029.68 2115.14 1020.28C2115.38 1010.89 2115.5 1001.49 2115.5 992.092C2115.5 985.827 2115.38 979.562 2115.14 973.297C2114.9 966.791 2114.78 960.406 2114.78 954.141C2114.78 936.793 2115.14 919.564 2115.87 902.457C2116.84 885.108 2119.02 867.639 2122.41 850.049L2125.32 676.201C2125.32 674.273 2124.71 671.623 2123.5 668.249C2122.29 664.876 2120.71 661.503 2118.77 658.129C2116.84 654.515 2114.78 651.382 2112.6 648.732C2110.42 646.081 2108.48 644.515 2106.78 644.033C2106.06 643.792 2104.84 643.551 2103.15 643.311C2101.45 643.07 2099.64 642.829 2097.7 642.588C2095.76 642.106 2093.94 641.744 2092.25 641.503C2090.55 641.262 2089.46 641.021 2088.98 640.78C2087.52 640.54 2085.71 640.058 2083.53 639.335C2081.34 638.612 2079.16 637.769 2076.98 636.805C2075.05 635.6 2073.23 634.275 2071.53 632.829C2070.08 631.383 2069.35 629.697 2069.35 627.769C2069.35 623.191 2071.05 619.697 2074.44 617.287C2077.83 614.637 2081.71 612.589 2086.07 611.143C2090.67 609.697 2095.28 608.613 2099.88 607.89C2104.72 607.167 2108.6 606.204 2111.51 604.999C2113.93 604.035 2118.17 602.228 2124.23 599.577C2130.28 596.686 2136.58 593.674 2143.12 590.542C2149.91 587.168 2156.33 584.036 2162.38 581.144C2168.44 578.253 2172.68 576.205 2175.1 575C2178.98 575.482 2182.01 576.566 2184.19 578.253C2186.37 579.94 2187.94 582.108 2188.91 584.759C2190.12 587.409 2190.85 590.421 2191.09 593.794C2191.33 597.168 2191.45 600.541 2191.45 603.914V604.999C2191.45 606.204 2191.33 608.131 2191.09 610.782C2190.85 613.191 2190.49 615.842 2190 618.733C2189.76 621.625 2189.4 624.396 2188.91 627.046C2188.43 629.697 2188.06 631.504 2187.82 632.468V640.78C2188.06 643.913 2188.31 648.732 2188.55 655.238C2188.79 661.743 2189.03 669.093 2189.27 677.285C2189.52 685.477 2189.76 694.031 2190 702.947C2190.24 711.862 2190.49 720.416 2190.73 728.608C2190.97 736.801 2191.09 744.15 2191.09 750.656C2191.33 757.161 2191.45 761.98 2191.45 765.113C2191.94 767.04 2192.18 770.414 2192.18 775.233C2192.18 779.811 2192.18 784.751 2192.18 790.052C2192.18 795.594 2192.18 800.654 2192.18 805.232C2192.18 809.569 2191.94 812.701 2191.45 814.629C2192.18 815.834 2193.03 816.557 2194 816.797C2195.21 817.038 2196.66 817.159 2198.36 817.159C2200.3 817.159 2203.08 815.593 2206.72 812.46C2210.59 809.328 2214.71 805.714 2219.07 801.617C2223.43 797.28 2227.67 793.184 2231.79 789.329C2235.91 785.233 2239.18 782.341 2241.6 780.654C2242.09 780.654 2243.06 780.413 2244.51 779.932C2245.96 779.45 2247.42 778.968 2248.87 778.486C2250.57 778.004 2252.02 777.522 2253.23 777.04C2254.69 776.558 2255.65 776.197 2256.14 775.956C2260.5 773.546 2263.89 771.619 2266.31 770.173C2268.98 768.486 2271.52 767.281 2273.95 766.559C2276.37 765.595 2279.03 764.872 2281.94 764.39C2285.09 763.667 2289.33 762.944 2294.66 762.221C2295.14 762.221 2295.99 762.101 2297.2 761.86C2298.66 761.619 2300.11 761.378 2301.56 761.137C2303.26 760.655 2304.83 760.294 2306.29 760.053C2307.74 759.812 2308.71 759.691 2309.2 759.691C2320.58 759.691 2330.39 760.896 2338.63 763.306C2347.11 765.715 2355.47 769.932 2363.71 775.956C2363.95 776.197 2364.92 776.92 2366.61 778.124C2368.31 779.088 2370 780.172 2371.7 781.377C2373.64 782.582 2375.33 783.787 2376.79 784.992C2378.48 786.196 2379.33 786.919 2379.33 787.16C2381.03 788.124 2382.84 790.413 2384.78 794.027C2386.96 797.642 2389.02 801.617 2390.96 805.955C2392.9 810.051 2394.59 814.027 2396.05 817.882C2397.74 821.737 2398.95 824.388 2399.68 825.833V842.098V858.362C2399.68 858.844 2399.32 860.29 2398.59 862.699C2398.11 865.109 2397.62 866.555 2397.14 867.036V869.566V872.819C2399.32 886.554 2400.77 900.65 2401.5 915.107C2402.23 929.323 2402.59 943.539 2402.59 957.756C2402.59 963.78 2402.59 969.321 2402.59 974.382C2402.59 979.442 2402.47 984.381 2402.23 989.2C2401.98 994.019 2401.62 999.079 2401.14 1004.38C2400.89 1009.44 2400.41 1015.1 2399.68 1021.37C2399.68 1021.85 2399.32 1023.3 2398.59 1025.7C2398.11 1027.87 2397.62 1029.2 2397.14 1029.68V1037.27V1044.5C2397.14 1050.04 2397.5 1055.7 2398.23 1061.49C2399.2 1067.03 2401.5 1071.25 2405.13 1074.14C2407.8 1073.65 2410.46 1073.29 2413.13 1073.05C2415.79 1072.57 2418.46 1072.33 2421.12 1072.33C2428.63 1072.33 2435.42 1073.9 2441.47 1077.03C2447.53 1079.92 2450.56 1085.58 2450.56 1094.02C2450.56 1094.98 2450.56 1096.42 2450.56 1098.35C2450.56 1100.04 2450.32 1100.88 2449.83 1100.88C2449.83 1102.09 2448.98 1103.29 2447.29 1104.5C2445.83 1105.46 2444.62 1105.94 2443.65 1105.94H2285.94C2284.73 1105.94 2284 1104.98 2283.76 1103.05C2283.52 1100.88 2283.39 1099.2 2283.39 1097.99C2283.39 1095.34 2284.12 1092.81 2285.57 1090.4C2287.27 1087.99 2289.21 1085.82 2291.39 1083.9C2295.27 1083.9 2299.14 1083.9 2303.02 1083.9C2306.89 1083.65 2310.53 1083.17 2313.92 1082.45C2317.31 1081.49 2320.22 1079.92 2322.64 1077.75C2325.06 1075.34 2326.64 1071.97 2327.37 1067.63C2327.37 1067.15 2327.49 1065.58 2327.73 1062.93C2328.21 1060.28 2328.58 1057.39 2328.82 1054.26C2329.3 1051.13 2329.67 1048.23 2329.91 1045.58C2330.39 1042.93 2330.76 1041.37 2331 1040.88C2331 1040.4 2331.24 1038.96 2331.73 1036.55C2332.45 1033.9 2332.82 1032.21 2332.82 1031.49C2332.82 1031.25 2332.82 1030.4 2332.82 1028.96C2333.06 1027.51 2333.3 1025.95 2333.54 1024.26C2333.79 1022.33 2333.91 1020.52 2333.91 1018.84C2334.15 1016.91 2334.27 1015.34 2334.27 1014.14C2334.27 1012.93 2334.15 1011.37 2333.91 1009.44C2333.91 1007.51 2333.79 1005.59 2333.54 1003.66C2333.3 1001.25 2333.06 998.838 2332.82 996.429C2332.82 996.188 2332.45 994.863 2331.73 992.453C2331.24 990.044 2331 988.718 2331 988.477V982.694C2331 980.044 2331 977.755 2331 975.827C2331.24 973.9 2331.85 971.611 2332.82 968.96C2333.06 966.551 2333.3 962.454 2333.54 956.671C2334.03 950.888 2334.39 944.865 2334.63 938.6C2334.88 932.094 2335.12 925.95 2335.36 920.167C2335.6 914.384 2335.84 910.288 2336.09 907.878C2336.09 905.951 2335.97 902.939 2335.72 898.842C2335.48 894.505 2335.12 890.048 2334.63 885.469C2334.39 880.891 2334.03 876.554 2333.54 872.458C2333.3 868.362 2333.06 865.47 2332.82 863.784C2330.64 862.579 2329.3 860.892 2328.82 858.724C2328.33 856.314 2327.85 854.507 2327.37 853.302C2324.7 847.037 2322.04 841.977 2319.37 838.122C2316.71 834.267 2313.56 831.134 2309.92 828.725C2306.53 826.074 2302.41 823.906 2297.57 822.219C2292.96 820.532 2287.39 818.846 2280.85 817.159C2280.12 817.159 2278.67 816.797 2276.49 816.075C2274.31 815.111 2272.98 814.629 2272.49 814.629C2272.01 814.147 2270.55 813.906 2268.13 813.906C2265.95 813.906 2264.26 813.906 2263.04 813.906C2256.99 813.906 2250.81 814.388 2244.51 815.352C2238.21 816.316 2232.16 817.882 2226.34 820.05C2220.53 822.219 2215.08 825.11 2209.99 828.725C2204.9 832.339 2200.42 836.797 2196.54 842.098C2195.82 843.302 2195.09 845.592 2194.36 848.965C2193.63 852.097 2192.79 855.35 2191.82 858.724C2191.09 862.097 2190.24 865.229 2189.27 868.121C2188.31 870.771 2187.34 872.337 2186.37 872.819L2180.92 896.312V1074.14C2183.58 1075.34 2186 1076.67 2188.18 1078.11C2190.36 1079.56 2192.54 1080.88 2194.73 1082.09H2233.61C2234.58 1082.09 2235.43 1082.81 2236.15 1084.26C2237.12 1085.46 2237.85 1086.91 2238.33 1088.59C2238.82 1090.28 2239.18 1091.97 2239.42 1093.65C2239.67 1095.34 2239.79 1096.55 2239.79 1097.27C2239.79 1100.64 2238.21 1103.53 2235.06 1105.94C2231.91 1108.11 2228.88 1109.2 2225.98 1109.2H2222.34C2221.86 1109.2 2220.77 1109.07 2219.07 1108.83C2217.38 1108.59 2215.56 1108.23 2213.62 1107.75C2211.93 1107.51 2210.23 1107.15 2208.53 1106.67C2207.08 1106.42 2206.23 1106.18 2205.99 1105.94H2168.92C2154.39 1105.94 2139.73 1106.42 2124.95 1107.39C2110.42 1108.59 2095.76 1109.2 2080.98 1109.2H2062.08C2061.36 1108.71 2059.9 1107.39 2057.72 1105.22C2055.54 1103.05 2054.21 1101.61 2053.73 1100.88V1100.16Z" fill="#F5F5F5"/>
<path d="M1844.25 1059.67C1850.75 1061.84 1856.18 1064.26 1860.51 1066.92C1865.09 1069.58 1870.52 1070.91 1876.78 1070.91H1886.18C1886.9 1070.67 1888.35 1070.06 1890.52 1069.1C1892.69 1067.89 1894.98 1066.68 1897.39 1065.47C1900.04 1064.26 1902.33 1063.17 1904.26 1062.21C1906.43 1061 1907.87 1060.15 1908.6 1059.67C1908.84 1059.67 1909.56 1059.42 1910.77 1058.94C1911.97 1058.22 1913.3 1057.49 1914.74 1056.76C1916.43 1056.04 1918 1055.43 1919.44 1054.95C1920.89 1054.23 1921.85 1053.74 1922.33 1053.5C1922.58 1053.26 1923.3 1052.53 1924.5 1051.32C1925.95 1049.87 1927.52 1048.3 1929.2 1046.61C1931.13 1044.92 1932.94 1043.22 1934.63 1041.53C1936.31 1039.84 1937.64 1038.63 1938.6 1037.9C1938.6 1037.42 1939.08 1036.45 1940.05 1035C1941.01 1033.31 1941.5 1032.1 1941.5 1031.37C1941.74 1031.13 1941.98 1030.04 1942.22 1028.11C1942.46 1026.17 1942.7 1024.12 1942.94 1021.94C1943.18 1019.77 1943.42 1017.71 1943.66 1015.78C1944.15 1013.84 1944.51 1012.63 1944.75 1012.15C1944.75 1011.91 1945.11 1011.18 1945.83 1009.97C1946.56 1008.76 1947.4 1007.43 1948.36 1005.98C1949.33 1004.53 1950.29 1003.08 1951.26 1001.63C1952.22 1000.18 1952.94 999.211 1953.43 998.728C1955.35 993.891 1956.56 989.055 1957.04 984.218C1957.52 979.14 1957.76 974.183 1957.76 969.347V956.288C1957.76 942.505 1957.28 928.963 1956.32 915.663C1955.59 902.362 1954.63 889.546 1953.43 877.213C1951.26 871.893 1949.45 866.694 1948 861.616C1946.8 856.538 1945.35 851.701 1943.66 847.107C1941.98 842.27 1939.93 837.676 1937.52 833.323C1935.35 828.97 1932.1 824.738 1927.76 820.627C1921.97 815.307 1916.55 810.592 1911.49 806.481C1906.67 802.37 1901.61 798.985 1896.3 796.325C1891.24 793.665 1885.58 791.609 1879.31 790.158C1873.29 788.707 1866.18 787.982 1857.98 787.982H1855.81C1854.85 788.465 1853.28 789.191 1851.11 790.158C1848.95 791.125 1846.66 792.214 1844.25 793.423C1841.84 794.632 1839.55 795.841 1837.38 797.05C1835.45 798.017 1834.12 798.622 1833.4 798.864C1829.3 801.282 1826.17 803.942 1824 806.844C1822.07 809.504 1820.63 812.406 1819.66 815.549C1818.7 818.693 1818.1 822.078 1817.85 825.706C1817.61 829.333 1817.13 833.323 1816.41 837.676C1816.41 839.127 1816.05 841.908 1815.32 846.019C1814.6 849.888 1813.76 853.999 1812.79 858.351C1812.07 862.704 1811.23 866.936 1810.26 871.047C1809.54 874.916 1808.94 877.576 1808.45 879.027C1808.7 879.511 1808.94 880.478 1809.18 881.929C1809.66 883.138 1810.02 884.589 1810.26 886.281C1810.74 887.732 1811.11 889.183 1811.35 890.634C1811.59 891.843 1811.71 892.569 1811.71 892.811C1811.71 894.503 1811.83 898.01 1812.07 903.33C1812.31 908.408 1812.55 913.97 1812.79 920.015C1813.03 925.819 1813.27 931.502 1813.52 937.064C1814 942.384 1814.36 946.253 1814.6 948.671V1009.61C1814.84 1010.33 1815.32 1011.66 1816.05 1013.6C1816.77 1015.29 1817.49 1017.23 1818.22 1019.4C1819.18 1021.58 1820.02 1023.64 1820.75 1025.57C1821.71 1027.5 1822.43 1028.83 1822.92 1029.56C1823.16 1029.8 1823.28 1030.29 1823.28 1031.01C1823.52 1031.49 1823.88 1031.98 1824.36 1032.46C1824.6 1033.19 1824.96 1033.91 1825.45 1034.64C1826.17 1035.61 1827.37 1037.3 1829.06 1039.72C1830.99 1042.13 1832.92 1044.79 1834.85 1047.7C1837.01 1050.36 1838.94 1052.9 1840.63 1055.31C1842.32 1057.49 1843.52 1058.94 1844.25 1059.67ZM1672.16 1278.03C1672.16 1277.55 1672.28 1276.7 1672.52 1275.49C1672.76 1274.52 1672.88 1273.68 1672.88 1272.95C1674.57 1269.08 1676.86 1265.94 1679.75 1263.52C1682.4 1261.34 1685.3 1259.65 1688.43 1258.44C1691.8 1257.47 1695.3 1256.87 1698.91 1256.63C1702.53 1256.39 1706.14 1256.27 1709.76 1256.27C1717.95 1256.27 1725.18 1255.78 1731.45 1254.81C1737.96 1254.09 1741.69 1251.19 1742.66 1246.11C1743.38 1241.03 1743.74 1235.95 1743.74 1230.87C1743.98 1225.8 1744.1 1220.23 1744.1 1214.19C1744.1 1208.14 1744.59 1202.7 1745.55 1197.87C1746.51 1193.03 1747.48 1187.83 1748.44 1182.27V1001.27C1748.44 1000.3 1748.56 998.849 1748.8 996.914C1749.04 994.738 1749.16 992.561 1749.16 990.385C1749.41 987.967 1749.65 985.79 1749.89 983.856C1750.13 981.679 1750.25 980.228 1750.25 979.503V976.238V973.699C1750.25 972.974 1750.13 970.797 1749.89 967.17C1749.65 963.543 1749.41 959.674 1749.16 955.563C1749.16 951.452 1749.04 947.583 1748.8 943.955C1748.56 940.086 1748.44 937.668 1748.44 936.701V906.594C1747.96 904.902 1747.6 902 1747.36 897.889C1747.12 893.778 1746.87 889.546 1746.63 885.193C1746.39 880.841 1746.15 876.73 1745.91 872.86C1745.67 868.991 1745.43 866.452 1745.19 865.243C1744.22 857.021 1741.81 850.613 1737.96 846.019C1734.34 841.182 1728.44 837.313 1720.24 834.411C1719.04 834.169 1716.99 833.807 1714.1 833.323C1711.2 832.598 1708.19 831.993 1705.06 831.509C1701.93 830.784 1698.91 830.179 1696.02 829.696C1693.13 829.212 1691.2 828.97 1690.24 828.97C1688.31 828.97 1687.22 828.487 1686.98 827.519C1686.74 826.31 1686.62 825.101 1686.62 823.892C1686.62 819.056 1688.19 815.307 1691.32 812.647C1694.45 809.746 1698.07 807.448 1702.17 805.756C1706.5 804.063 1710.84 802.854 1715.18 802.128C1719.76 801.161 1723.38 800.073 1726.03 798.864C1726.03 798.864 1726.51 798.501 1727.47 797.775C1728.68 796.808 1729.88 795.841 1731.09 794.874C1732.29 793.906 1733.38 792.939 1734.34 791.972C1735.55 791.005 1736.27 790.279 1736.51 789.795C1737.23 789.312 1738.8 788.465 1741.21 787.256C1743.86 786.047 1746.63 784.838 1749.53 783.629C1752.42 782.178 1755.07 780.848 1757.48 779.639C1760.13 778.43 1762.06 777.463 1763.26 776.737C1766.64 775.044 1768.93 774.077 1770.13 773.835C1771.58 773.352 1773.27 773.11 1775.19 773.11C1778.57 773.11 1781.34 773.956 1783.51 775.649C1785.92 777.1 1788.09 778.793 1790.02 780.727C1792.19 782.42 1794.36 784.113 1796.52 785.805C1798.93 787.256 1801.71 787.982 1804.84 787.982C1810.62 787.982 1815.56 786.652 1819.66 783.992C1824 781.09 1828.58 778.672 1833.4 776.737C1838.22 774.803 1842.8 772.868 1847.14 770.934C1851.72 768.757 1856.18 766.823 1860.51 765.13C1865.09 763.437 1869.67 762.107 1874.25 761.14C1879.07 759.931 1884.25 759.326 1889.8 759.326C1891.48 759.326 1893.89 759.447 1897.03 759.689C1900.4 759.689 1902.09 759.931 1902.09 760.414C1902.57 760.414 1903.54 760.656 1904.98 761.14C1906.67 761.382 1908.36 761.744 1910.04 762.228C1911.73 762.712 1913.18 763.195 1914.38 763.679C1915.83 764.163 1916.55 764.525 1916.55 764.767C1916.79 764.767 1917.63 764.767 1919.08 764.767C1920.53 764.767 1921.97 764.767 1923.42 764.767C1925.11 764.767 1926.67 764.888 1928.12 765.13C1929.56 765.13 1930.53 765.251 1931.01 765.493C1934.87 765.976 1938.6 767.911 1942.22 771.296C1946.07 774.44 1949.81 777.1 1953.43 779.276C1953.43 779.518 1953.91 780.002 1954.87 780.727C1956.08 781.453 1957.4 782.299 1958.85 783.266C1960.29 784.234 1961.74 785.201 1963.19 786.168C1964.87 786.894 1966.08 787.498 1966.8 787.982C1973.55 791.609 1979.58 796.325 1984.88 802.128C1990.18 807.69 1995 813.857 1999.34 820.627C2003.92 827.157 2008.02 834.048 2011.63 841.303C2015.25 848.316 2018.62 855.208 2021.75 861.979C2022.24 863.188 2022.72 864.639 2023.2 866.331C2023.92 867.782 2024.52 869.354 2025.01 871.047C2025.73 872.498 2026.21 873.828 2026.45 875.037C2026.94 876.246 2027.18 876.971 2027.18 877.213C2027.42 877.213 2027.54 877.818 2027.54 879.027C2027.78 880.236 2027.9 881.687 2027.9 883.38C2027.9 885.072 2027.9 886.886 2027.9 888.821C2027.9 890.755 2027.9 892.327 2027.9 893.536C2027.9 894.745 2027.9 896.317 2027.9 898.252C2027.9 900.186 2027.9 902.242 2027.9 904.418C2027.9 906.353 2027.78 908.166 2027.54 909.859C2027.54 911.31 2027.42 912.156 2027.18 912.398C2027.18 912.882 2026.81 914.333 2026.09 916.751C2025.37 918.927 2025.01 920.378 2025.01 921.104V936.701C2025.01 937.426 2024.52 939.24 2023.56 942.142C2022.84 944.802 2022.24 946.978 2021.75 948.671C2021.51 949.155 2021.15 950.243 2020.67 951.936C2020.19 953.386 2019.58 955.079 2018.86 957.014C2018.38 958.706 2017.9 960.399 2017.41 962.092C2016.93 963.543 2016.69 964.51 2016.69 964.994C2016.45 965.961 2015.97 968.137 2015.25 971.523C2014.76 974.908 2014.16 978.536 2013.44 982.405C2012.96 986.032 2012.47 989.538 2011.99 992.924C2011.51 996.068 2011.27 998.002 2011.27 998.728C2010.06 1003.56 2008.5 1007.43 2006.57 1010.33C2004.88 1012.99 2002.47 1016.74 1999.34 1021.58C1992.59 1033.19 1985.6 1043.46 1978.37 1052.41C1971.38 1061.36 1963.55 1068.86 1954.87 1074.9C1946.19 1080.7 1936.43 1085.18 1925.59 1088.32C1914.74 1091.47 1902.21 1093.04 1887.99 1093.04C1882.21 1093.04 1876.42 1092.67 1870.64 1091.95C1865.09 1090.98 1859.43 1090.01 1853.64 1089.05C1848.1 1087.84 1842.44 1086.75 1836.65 1085.78C1830.87 1084.82 1824.96 1084.33 1818.94 1084.33H1814.6C1813.64 1084.82 1812.91 1085.9 1812.43 1087.6C1811.95 1089.05 1811.71 1090.01 1811.71 1090.5C1810.99 1098.96 1810.38 1106.82 1809.9 1114.08C1809.42 1121.57 1809.06 1128.95 1808.82 1136.2C1808.57 1143.7 1808.45 1151.19 1808.45 1158.69C1808.45 1166.43 1808.45 1174.65 1808.45 1183.36V1228.7C1808.45 1235.71 1809.9 1240.91 1812.79 1244.3C1815.68 1247.68 1819.9 1251.07 1825.45 1254.45C1826.17 1254.69 1827.25 1255.06 1828.7 1255.54C1830.39 1256.27 1832.8 1256.87 1835.93 1257.35C1839.06 1258.08 1843.28 1258.68 1848.58 1259.17C1853.89 1259.65 1860.75 1259.89 1869.19 1259.89C1870.64 1260.38 1871.84 1260.98 1872.81 1261.71C1873.77 1262.19 1874.73 1262.67 1875.7 1263.16C1876.66 1263.88 1877.63 1264.49 1878.59 1264.97C1879.8 1266.18 1880.52 1267.15 1880.76 1267.87C1881 1268.6 1881.12 1269.57 1881.12 1270.77V1275.13C1881.12 1275.37 1880.88 1276.34 1880.4 1278.03C1879.92 1279.72 1879.67 1280.81 1879.67 1281.29C1875.58 1284.44 1871.6 1286.37 1867.74 1287.1C1863.89 1287.82 1859.55 1288.19 1854.73 1288.19C1848.22 1288.19 1841.84 1287.58 1835.57 1286.37C1829.54 1285.4 1823.16 1284.92 1816.41 1284.92H1811.71C1810.99 1284.92 1809.06 1285.04 1805.92 1285.28C1803.03 1285.53 1799.78 1285.77 1796.16 1286.01C1792.79 1286.49 1789.53 1286.86 1786.4 1287.1C1783.51 1287.34 1781.7 1287.46 1780.98 1287.46H1762.9H1714.1C1713.37 1287.46 1711.81 1287.58 1709.4 1287.82C1707.23 1288.06 1704.82 1288.31 1702.17 1288.55C1699.52 1289.03 1696.98 1289.39 1694.57 1289.64C1692.41 1289.88 1690.96 1290 1690.24 1290H1686.62H1684.09C1683.37 1289.76 1682.52 1289.27 1681.56 1288.55C1680.35 1287.82 1679.15 1286.98 1677.94 1286.01C1676.74 1285.04 1675.65 1284.07 1674.69 1283.11C1673.73 1282.38 1673.12 1281.78 1672.88 1281.29C1672.64 1280.81 1672.52 1280.33 1672.52 1279.84C1672.28 1279.36 1672.16 1278.75 1672.16 1278.03Z" fill="#F5F5F5"/>
<path d="M1296.5 1105.94C1293.36 1105.46 1290.69 1104.13 1288.52 1101.96C1286.34 1099.55 1285.25 1096.54 1285.25 1092.92C1285.25 1091.71 1285.73 1089.91 1286.7 1087.49C1287.91 1085.08 1290.21 1083.28 1293.6 1082.07C1298.44 1081.59 1303.4 1080.98 1308.48 1080.26C1313.57 1079.54 1318.65 1078.94 1323.73 1078.45C1324.22 1078.45 1324.7 1078.21 1325.18 1077.73C1325.91 1077.25 1326.39 1076.89 1326.64 1076.64C1330.27 1072.06 1332.69 1067.36 1333.9 1062.54C1335.11 1057.72 1335.83 1052.9 1336.08 1048.07C1336.56 1043.25 1336.8 1038.43 1336.8 1033.61C1336.8 1028.54 1337.29 1023.48 1338.25 1018.42C1338.25 1017.69 1338.5 1016.25 1338.98 1014.08C1339.71 1011.91 1340.43 1009.62 1341.16 1007.21C1342.13 1004.55 1342.85 1002.26 1343.34 1000.33C1344.06 998.164 1344.43 996.838 1344.43 996.356V956.935C1344.43 956.693 1344.67 955.367 1345.15 952.956C1345.88 950.545 1346.24 948.978 1346.24 948.255L1346.6 947.893C1346.6 947.652 1346.6 947.531 1346.6 947.531C1346.85 947.531 1346.97 947.411 1346.97 947.17C1346.73 947.17 1346.6 947.049 1346.6 946.808C1346.36 946.567 1346.24 946.205 1346.24 945.723C1346.24 945.241 1345.88 943.915 1345.15 941.745C1344.67 939.334 1344.43 938.008 1344.43 937.766V909.557C1344.43 908.833 1344.18 907.146 1343.7 904.493C1343.46 901.841 1343.09 898.948 1342.61 895.814C1342.13 892.679 1341.64 889.786 1341.16 887.134C1340.92 884.481 1340.8 882.794 1340.8 882.07V857.477C1340.55 854.343 1339.34 850.123 1337.16 844.819C1335.23 839.515 1332.69 834.21 1329.54 828.906C1326.64 823.602 1323.25 818.9 1319.38 814.801C1315.5 810.461 1311.75 807.809 1308.12 806.845C1306.91 806.845 1304.85 806.965 1301.95 807.206C1299.04 807.447 1296.26 807.568 1293.6 807.568C1292.39 807.568 1291.18 807.447 1289.97 807.206C1289 806.965 1288.27 806.845 1287.79 806.845C1287.3 806.845 1285.97 806.603 1283.8 806.121C1281.86 805.398 1280.65 805.036 1280.16 805.036C1279.68 805.036 1278.71 805.157 1277.26 805.398C1276.05 805.398 1274.72 805.518 1273.27 805.76C1271.81 806.001 1270.36 806.242 1268.91 806.483C1267.7 806.483 1266.73 806.603 1266.01 806.845C1256.81 809.738 1248.34 812.993 1240.59 816.609C1232.85 820.226 1224.5 824.325 1215.54 828.906C1213.36 830.353 1211.06 832.764 1208.64 836.139C1206.46 839.274 1204.29 842.89 1202.11 846.989C1200.17 850.847 1198.36 854.825 1196.66 858.924C1194.97 862.782 1193.76 865.916 1193.03 868.327C1192.79 869.533 1192.43 871.462 1191.94 874.114C1191.46 876.525 1190.97 879.057 1190.49 881.709C1190.01 884.361 1189.52 886.893 1189.04 889.304C1188.79 891.715 1188.67 893.282 1188.67 894.005V925.832C1188.67 926.796 1188.55 928.484 1188.31 930.895C1188.07 933.306 1187.71 935.958 1187.22 938.851C1186.74 941.504 1186.25 944.156 1185.77 946.808C1185.29 949.219 1184.92 950.786 1184.68 951.51V961.275V970.678C1185.41 975.741 1186.01 979.84 1186.5 982.974C1186.98 985.868 1187.34 988.64 1187.58 991.293C1188.07 993.945 1188.31 996.838 1188.31 999.972C1188.55 1002.87 1188.67 1006.96 1188.67 1012.27V1062.18C1189.16 1067.72 1190.85 1071.82 1193.76 1074.47C1196.66 1076.89 1200.05 1078.69 1203.92 1079.9C1208.04 1080.86 1212.27 1081.59 1216.63 1082.07C1221.23 1082.31 1225.34 1082.79 1228.97 1083.52C1232.12 1084 1234.78 1084.84 1236.96 1086.05C1239.38 1087.01 1240.83 1089.91 1241.32 1094.73V1100.88C1241.32 1102.81 1240.35 1104.13 1238.41 1104.85C1237.2 1104.85 1235.39 1104.85 1232.97 1104.85C1230.79 1104.61 1228.49 1104.49 1226.07 1104.49C1223.65 1104.49 1221.35 1104.49 1219.17 1104.49C1216.99 1104.25 1215.42 1104.13 1214.45 1104.13C1208.4 1104.13 1202.83 1104.25 1197.75 1104.49C1192.91 1104.73 1188.07 1104.98 1183.23 1105.22C1178.39 1105.22 1173.43 1105.34 1168.34 1105.58C1163.26 1105.82 1157.69 1105.94 1151.64 1105.94C1140.75 1105.94 1130.22 1105.7 1120.06 1105.22C1110.13 1104.49 1099.72 1104.13 1088.83 1104.13C1086.9 1104.13 1084.72 1104.25 1082.3 1104.49C1080.12 1104.73 1077.82 1104.85 1075.4 1104.85C1073.46 1103.65 1072.25 1102.32 1071.77 1100.88C1071.29 1099.43 1071.04 1097.62 1071.04 1095.45C1071.04 1094.25 1071.16 1092.8 1071.41 1091.11C1071.65 1089.42 1072.62 1088.1 1074.31 1087.13C1076.25 1086.65 1078.06 1086.17 1079.76 1085.69C1081.21 1085.2 1082.66 1084.84 1084.11 1084.6C1085.81 1084.36 1087.14 1084.12 1088.11 1083.88C1093.19 1083.4 1098.03 1082.55 1102.63 1081.35C1107.23 1079.9 1111.22 1077.97 1114.61 1075.56C1118.24 1073.15 1121.15 1070.01 1123.32 1066.16C1125.5 1062.06 1126.59 1057.12 1126.59 1051.33V1005.04C1126.59 995.874 1127.08 987.917 1128.04 981.166C1129.01 974.415 1129.5 967.182 1129.5 959.466C1129.5 956.332 1129.37 953.438 1129.13 950.786C1129.13 947.893 1129.13 945.12 1129.13 942.468C1129.13 941.262 1129.13 940.057 1129.13 938.851C1129.13 937.646 1129.25 936.44 1129.5 935.235C1129.98 934.27 1130.58 932.341 1131.31 929.448C1132.28 926.314 1132.76 924.264 1132.76 923.3V896.175V873.029L1129.5 863.264C1128.53 860.612 1127.56 857.96 1126.59 855.307C1125.62 852.655 1124.9 850.485 1124.41 848.797C1122.96 845.422 1120.54 842.287 1117.15 839.394C1114 836.501 1110.62 833.728 1106.99 831.076C1103.6 828.424 1100.57 825.892 1097.91 823.481C1095.25 820.829 1093.92 818.177 1093.92 815.524C1093.92 812.872 1094.52 810.943 1095.73 809.738C1097.18 808.291 1099.24 806.724 1101.9 805.036C1112.07 797.321 1122.72 789.726 1133.85 782.251C1145.23 774.536 1156.85 767.905 1168.71 762.36H1173.06C1174.51 762.36 1176.09 762.481 1177.78 762.722C1179.72 762.963 1181.29 763.927 1182.5 765.615C1183.71 766.82 1185.04 768.87 1186.5 771.763C1187.95 774.657 1188.67 776.344 1188.67 776.826V825.651C1189.16 825.651 1190.37 825.892 1192.3 826.374C1194.24 826.615 1195.57 826.736 1196.3 826.736C1202.83 825.048 1208.64 822.396 1213.72 818.779C1218.81 815.163 1223.65 811.305 1228.25 807.206C1233.09 802.866 1237.81 798.526 1242.41 794.186C1247.01 789.846 1252.09 785.989 1257.66 782.613C1258.38 782.131 1259.83 781.649 1262.01 781.166C1264.19 780.443 1265.52 779.84 1266.01 779.358C1270.12 777.911 1274.23 776.103 1278.35 773.933C1282.71 771.522 1287.06 769.352 1291.42 767.423C1296.02 765.494 1300.62 763.807 1305.22 762.36C1309.81 760.913 1314.53 760.311 1319.38 760.552C1320.1 760.552 1321.92 760.793 1324.82 761.275C1327.73 761.516 1330.87 761.998 1334.26 762.722C1337.89 763.204 1341.4 763.807 1344.79 764.53C1348.18 765.012 1350.72 765.374 1352.41 765.615C1358.22 767.062 1362.94 768.87 1366.57 771.04C1370.45 773.21 1373.83 775.862 1376.74 778.996C1379.64 781.89 1382.43 785.265 1385.09 789.123C1387.75 792.981 1390.78 797.2 1394.17 801.781C1395.62 804.192 1396.71 807.086 1397.43 810.461C1398.16 813.596 1399.01 816.609 1399.97 819.503C1400.94 822.396 1402.27 824.928 1403.97 827.098C1405.66 829.026 1408.2 829.991 1411.59 829.991C1412.08 829.991 1412.8 829.87 1413.77 829.629C1414.98 829.147 1415.95 828.906 1416.67 828.906C1421.52 823.36 1426.72 818.056 1432.29 812.993C1438.1 807.929 1443.78 803.348 1449.35 799.25C1449.83 799.25 1450.68 798.888 1451.89 798.165C1453.34 797.441 1454.31 796.838 1454.8 796.356C1462.06 793.463 1468.83 789.846 1475.13 785.506C1481.66 781.166 1488.8 777.429 1496.55 774.295C1497.52 773.813 1498.97 773.33 1500.9 772.848C1503.08 772.366 1504.53 771.763 1505.26 771.04C1505.99 771.04 1507.68 770.919 1510.34 770.678C1513.25 770.196 1516.39 769.714 1519.78 769.232C1523.41 768.508 1526.92 767.905 1530.31 767.423C1533.7 766.7 1536.24 766.097 1537.94 765.615H1539.75C1552.82 765.615 1564.08 767.544 1573.52 771.402C1582.96 775.018 1590.82 780.081 1597.11 786.591C1603.41 793.101 1608.37 800.696 1612 809.376C1615.87 818.056 1618.66 827.339 1620.35 837.224C1622.29 846.869 1623.5 856.995 1623.98 867.604C1624.71 878.213 1625.07 888.58 1625.07 898.707V929.448C1625.07 941.021 1624.59 952.715 1623.62 964.529C1622.65 976.344 1622.17 988.279 1622.17 1000.33V1014.44C1622.17 1016.61 1622.29 1020.59 1622.53 1026.37C1622.77 1031.92 1623.01 1037.83 1623.26 1044.1C1623.5 1050.36 1623.74 1056.39 1623.98 1062.18C1624.22 1067.72 1624.34 1071.7 1624.34 1074.11C1625.07 1074.35 1626.16 1074.72 1627.61 1075.2C1629.31 1075.68 1631 1076.16 1632.69 1076.64C1634.63 1077.13 1636.33 1077.61 1637.78 1078.09C1639.23 1078.33 1640.2 1078.45 1640.68 1078.45C1641.89 1078.94 1643.59 1079.42 1645.76 1079.9C1648.19 1080.38 1650.36 1080.98 1652.3 1081.71C1653.51 1081.95 1655.57 1082.55 1658.47 1083.52C1661.38 1084.24 1663.43 1085.45 1664.64 1087.13C1665.13 1087.86 1665.49 1088.7 1665.73 1089.66C1666.22 1090.39 1666.7 1091.23 1667.19 1092.2C1667.67 1093.16 1668.15 1094.25 1668.64 1095.45C1668.64 1097.38 1667.55 1099.07 1665.37 1100.51C1663.43 1101.96 1661.13 1103.17 1658.47 1104.13C1655.81 1105.1 1653.15 1105.82 1650.48 1106.3C1648.06 1106.78 1646.37 1107.02 1645.4 1107.02C1643.71 1107.02 1642.5 1106.9 1641.77 1106.66C1641.04 1106.66 1640.08 1106.42 1638.87 1105.94C1637.9 1105.46 1635.96 1105.1 1633.06 1104.85C1630.15 1104.37 1628.1 1104.13 1626.89 1104.13C1626.89 1104.13 1625.92 1104.13 1623.98 1104.13C1622.04 1103.89 1619.75 1103.77 1617.08 1103.77C1614.66 1103.77 1612.12 1103.77 1609.46 1103.77C1606.8 1103.53 1604.5 1103.41 1602.56 1103.41C1590.22 1103.41 1578.11 1104.01 1566.25 1105.22C1554.39 1106.42 1542.17 1107.02 1529.59 1107.02C1528.86 1107.02 1527.41 1106.9 1525.23 1106.66C1523.29 1106.66 1521.11 1106.54 1518.69 1106.3C1516.27 1106.3 1513.97 1106.18 1511.8 1105.94C1509.86 1105.94 1508.53 1105.94 1507.8 1105.94C1505.14 1105.46 1503.57 1104.37 1503.08 1102.68C1502.84 1100.76 1502.72 1098.71 1502.72 1096.54C1502.72 1091.96 1504.29 1088.82 1507.44 1087.13C1510.83 1085.2 1514.7 1083.76 1519.06 1082.79C1523.66 1081.83 1528.5 1080.86 1533.58 1079.9C1538.66 1078.94 1543.02 1077.01 1546.65 1074.11C1547.86 1072.18 1549.55 1070.26 1551.73 1068.33C1554.15 1066.4 1555.36 1065.19 1555.36 1064.71C1555.36 1064.23 1555.48 1063.63 1555.73 1062.9C1555.97 1062.18 1556.09 1061.33 1556.09 1060.37C1556.09 1057.72 1555.97 1055.19 1555.73 1052.78C1555.48 1050.36 1555.36 1048.92 1555.36 1048.44C1555.36 1047.23 1555.61 1044.1 1556.09 1039.03C1556.57 1033.73 1557.18 1028.06 1557.9 1022.03C1558.63 1016.01 1559.24 1010.46 1559.72 1005.4C1560.2 1000.33 1560.45 997.32 1560.45 996.356C1560.45 995.874 1560.45 994.065 1560.45 990.931C1560.69 987.555 1560.81 983.698 1560.81 979.358C1560.81 975.018 1560.81 970.678 1560.81 966.338C1561.05 961.998 1561.17 958.502 1561.17 955.85C1561.17 952.956 1561.05 948.978 1560.81 943.915C1560.81 938.851 1560.81 933.909 1560.81 929.087C1560.81 924.023 1560.69 919.683 1560.45 916.067C1560.45 912.209 1560.45 910.039 1560.45 909.557C1560.45 908.833 1560.32 907.146 1560.08 904.493C1559.84 901.841 1559.6 898.948 1559.36 895.814C1559.36 892.679 1559.24 889.786 1558.99 887.134C1558.75 884.481 1558.63 882.794 1558.63 882.07V880.624C1558.63 877.972 1558.87 875.56 1559.36 873.39C1560.08 870.979 1560.45 868.448 1560.45 865.796C1560.45 862.42 1559.72 859.286 1558.27 856.392C1557.06 853.499 1555.36 850.726 1553.18 848.074C1551.25 845.181 1549.19 842.529 1547.01 840.117C1544.83 837.706 1543.02 835.175 1541.57 832.523C1534.55 823.119 1526.68 817.092 1517.97 814.439C1509.25 811.787 1498.97 810.461 1487.11 810.461C1481.3 810.461 1474.89 812.39 1467.87 816.248C1461.09 820.105 1454.92 823.602 1449.35 826.736C1448.87 827.218 1447.53 828.062 1445.36 829.268C1443.18 830.232 1440.76 831.317 1438.1 832.523C1435.67 833.728 1433.38 834.934 1431.2 836.139C1429.02 837.345 1427.69 838.068 1427.2 838.309C1423.57 840.479 1420.55 843.372 1418.13 846.989C1415.71 850.606 1413.77 854.584 1412.32 858.924C1410.87 863.264 1409.78 867.724 1409.05 872.305C1408.32 876.645 1407.72 880.744 1407.24 884.602C1406.99 886.531 1406.75 889.665 1406.51 894.005C1406.27 898.345 1406.03 902.926 1405.78 907.748C1405.78 912.329 1405.66 916.79 1405.42 921.13C1405.18 925.229 1404.94 928.002 1404.69 929.448C1404.69 930.172 1404.69 931.498 1404.69 933.426C1404.94 935.355 1405.06 937.766 1405.06 940.66C1405.06 943.312 1405.06 946.205 1405.06 949.34C1405.3 952.474 1405.42 955.608 1405.42 958.743C1405.42 963.083 1405.3 966.699 1405.06 969.593C1405.06 972.245 1404.94 974.656 1404.69 976.826C1404.45 978.996 1404.09 981.287 1403.6 983.698C1403.36 985.868 1402.88 988.881 1402.15 992.739V996.356C1402.15 998.767 1402.27 1003.23 1402.52 1009.74C1402.76 1016.01 1403 1022.76 1403.24 1029.99C1403.73 1037.22 1404.09 1044.22 1404.33 1050.97C1404.57 1057.48 1404.69 1062.06 1404.69 1064.71C1404.94 1066.4 1405.66 1068.09 1406.87 1069.77C1408.08 1071.46 1409.41 1072.91 1410.87 1074.11C1412.56 1075.32 1414.25 1076.4 1415.95 1077.37C1417.88 1078.09 1419.58 1078.45 1421.03 1078.45C1422.24 1078.69 1424.18 1079.06 1426.84 1079.54C1429.74 1079.78 1432.65 1080.14 1435.55 1080.62C1438.46 1080.86 1441.24 1081.11 1443.9 1081.35C1446.57 1081.59 1448.38 1081.71 1449.35 1081.71C1450.56 1081.95 1452.13 1083.28 1454.07 1085.69C1456.01 1087.86 1457.1 1089.42 1457.34 1090.39C1457.34 1090.87 1457.46 1091.35 1457.7 1091.83V1092.92C1457.7 1093.16 1457.82 1093.28 1458.06 1093.28C1458.06 1097.14 1456.97 1100.15 1454.8 1102.32C1452.86 1104.25 1450.44 1105.7 1447.53 1106.66C1444.63 1107.87 1441.48 1108.59 1438.1 1108.83C1434.71 1109.07 1431.68 1109.19 1429.02 1109.19H1419.22C1418.25 1109.19 1415.95 1108.95 1412.32 1108.47C1408.69 1108.23 1404.81 1107.87 1400.7 1107.39C1396.83 1107.15 1393.08 1106.78 1389.45 1106.3C1385.81 1106.06 1383.52 1105.94 1382.55 1105.94H1296.5Z" fill="#F5F5F5"/>
<path d="M722.533 1243.22C722.533 1240.07 722.774 1236.33 723.256 1231.97C723.739 1227.62 725.548 1224.35 728.683 1222.18C730.372 1220.48 732.543 1218.79 735.196 1217.1C738.09 1215.4 741.105 1213.83 744.241 1212.38C747.618 1210.93 750.874 1209.72 754.01 1208.75C757.146 1208.03 759.799 1207.66 761.97 1207.66C768.965 1207.66 775.477 1208.63 781.507 1210.57C787.538 1212.74 794.171 1213.83 801.407 1213.83H811.538C812.02 1213.59 812.985 1212.86 814.432 1211.65C815.879 1210.45 817.447 1208.99 819.135 1207.3C821.065 1205.85 822.754 1204.4 824.201 1202.95C825.889 1201.74 827.095 1200.77 827.819 1200.04C828.06 1199.8 828.422 1198.96 828.904 1197.51C829.387 1196.3 829.869 1194.84 830.352 1193.15C831.075 1191.46 831.678 1189.89 832.161 1188.44C832.884 1186.98 833.246 1186.02 833.246 1185.53C833.728 1185.29 834.693 1184.44 836.14 1182.99C837.588 1181.78 838.311 1180.94 838.311 1180.45C841.206 1176.1 844.221 1170.42 847.357 1163.4C850.733 1156.39 853.748 1149.01 856.402 1141.27C859.296 1133.53 861.708 1125.91 863.638 1118.41C865.568 1110.92 866.532 1104.63 866.532 1099.55C866.532 1098.34 866.291 1097.73 865.809 1097.73C863.155 1090.72 860.02 1084.55 856.402 1079.23C852.784 1073.91 849.648 1068.11 846.995 1061.82C845.065 1056.74 843.497 1051.66 842.291 1046.58C841.085 1041.5 839.879 1036.42 838.673 1031.34C837.708 1026.26 836.623 1021.18 835.417 1016.1C834.452 1011.03 833.125 1006.07 831.437 1001.23C829.99 997.843 828.301 994.578 826.372 991.434C824.442 988.048 822.512 984.783 820.583 981.638C818.653 978.494 816.844 975.35 815.156 972.205C813.467 968.819 812.261 965.433 811.538 962.047V948.261C811.055 945.358 810.211 942.335 809.005 939.19C807.799 936.046 806.472 932.902 805.025 929.758C803.578 926.613 802.13 923.59 800.683 920.688C799.477 917.785 798.512 915.125 797.789 912.706C797.789 911.98 797.306 910.65 796.342 908.715C795.618 906.538 795.256 905.087 795.256 904.361C793.085 896.622 790.673 889.124 788.02 881.868C785.608 874.37 783.437 866.872 781.507 859.374C781.507 859.132 781.387 858.407 781.146 857.197C780.904 855.988 780.543 854.658 780.06 853.206C779.819 851.513 779.578 850.062 779.337 848.853C779.095 847.402 778.975 846.434 778.975 845.95C776.08 837.485 771.98 828.778 766.673 819.829C761.608 810.88 756.06 802.898 750.03 795.884C748.342 793.707 745.809 791.651 742.432 789.716C739.055 787.539 735.678 785.362 732.301 783.186C729.166 780.767 726.271 778.227 723.618 775.567C721.206 772.664 720 769.399 720 765.771C720 763.836 720.603 762.385 721.809 761.418C723.015 760.45 724.462 759.724 726.151 759.241C728.08 758.757 730.01 758.515 731.94 758.515C733.869 758.273 735.558 758.152 737.005 758.152C741.829 758.152 746.291 758.999 750.392 760.692C754.492 762.385 758.593 763.232 762.693 763.232H765.226C766.914 762.99 769.327 762.748 772.462 762.506C775.839 762.264 779.095 762.022 782.231 761.78C785.608 761.538 788.502 761.418 790.914 761.418C793.326 761.176 794.774 760.934 795.256 760.692C795.497 760.692 796.342 760.692 797.789 760.692C799.477 760.45 801.166 760.329 802.854 760.329C804.784 760.087 806.593 759.966 808.281 759.966C809.97 759.724 811.055 759.604 811.538 759.604C815.397 759.604 819.98 759.362 825.286 758.878C830.593 758.394 834.934 758.152 838.311 758.152C840.482 758.152 842.774 758.394 845.186 758.878C847.839 759.362 850.251 760.208 852.422 761.418C854.834 762.627 856.764 764.199 858.211 766.134C859.899 768.069 860.743 770.488 860.743 773.39C860.743 776.776 860.02 779.437 858.573 781.372C857.125 783.065 855.316 784.637 853.145 786.088C851.216 787.297 849.166 788.628 846.995 790.079C844.824 791.53 843.015 793.465 841.568 795.884C839.879 799.995 838.914 803.382 838.673 806.042C838.432 808.703 838.311 812.21 838.311 816.563C838.311 821.401 838.432 825.633 838.673 829.262C838.914 832.648 839.879 836.397 841.568 840.508C841.809 841.234 842.532 843.048 843.738 845.95C845.186 848.611 846.633 851.513 848.08 854.658C849.769 857.56 851.216 860.342 852.422 863.002C853.869 865.663 854.834 867.356 855.316 868.081C855.558 868.565 855.799 869.653 856.04 871.347C856.522 872.798 856.884 874.491 857.125 876.426C857.367 878.119 857.608 879.812 857.849 881.505C858.09 883.198 858.331 884.166 858.573 884.407C860.02 892.873 861.949 901.459 864.362 910.166C866.774 918.632 869.427 926.734 872.321 934.474C873.769 940.037 876.181 945.116 879.557 949.712C883.176 954.307 886.191 959.265 888.603 964.587C889.567 967.247 890.412 970.512 891.135 974.382C891.859 978.01 892.703 981.517 893.668 984.903C894.874 988.29 896.442 991.192 898.372 993.611C900.542 996.029 903.557 997.239 907.417 997.239C909.588 997.239 911.276 997.118 912.482 996.876C913.929 996.392 915.135 994.82 916.1 992.16C918.271 987.322 920.442 982.122 922.613 976.559C924.784 970.754 926.954 965.07 929.125 959.507C929.849 958.056 931.417 954.791 933.829 949.712C936.482 944.632 939.256 939.19 942.15 933.386C945.045 927.339 947.698 921.897 950.11 917.06C952.763 911.98 954.331 908.836 954.814 907.627C955.055 906.901 955.417 905.45 955.899 903.273C956.381 901.096 956.984 898.678 957.708 896.017C958.432 893.356 959.035 890.938 959.517 888.761C960 886.584 960.361 885.133 960.603 884.407C960.603 883.924 960.964 882.835 961.688 881.142C962.412 879.207 962.773 877.998 962.773 877.514C964.462 872.919 965.788 868.565 966.753 864.453C967.718 860.1 968.562 855.988 969.286 852.118C970.01 848.006 970.613 843.895 971.095 839.783C971.819 835.671 972.663 831.317 973.628 826.722C973.628 826.238 974.11 825.271 975.075 823.819C976.281 822.368 976.884 821.401 976.884 820.917V815.475V810.759C976.884 809.791 976.522 808.461 975.798 806.768C975.075 805.075 974.231 803.382 973.266 801.689C972.301 799.754 971.336 798.061 970.371 796.609C969.407 794.916 968.804 793.828 968.562 793.344C966.874 791.167 964.1 789.232 960.241 787.539C956.623 785.846 952.884 784.274 949.025 782.823C945.407 781.13 942.15 779.558 939.256 778.106C936.603 776.655 935.276 775.083 935.276 773.39C935.276 770.971 936.482 769.036 938.894 767.585C941.306 765.892 944.201 764.562 947.577 763.594C950.954 762.627 954.211 761.901 957.346 761.418C960.723 760.934 963.376 760.692 965.306 760.692C969.407 760.692 973.266 761.176 976.884 762.143C980.743 762.869 985.085 763.232 989.909 763.232C993.045 763.232 996.06 763.594 998.954 764.32C1002.09 764.804 1005.47 765.046 1009.08 765.046C1013.19 765.046 1016.68 765.167 1019.58 765.408C1022.71 765.65 1026.33 765.771 1030.43 765.771C1033.81 765.771 1036.94 765.408 1039.84 764.683C1042.73 763.715 1046.11 763.232 1049.97 763.232C1051.9 763.232 1053.95 763.353 1056.12 763.594C1058.53 763.594 1060.7 763.957 1062.63 764.683C1064.8 765.167 1066.49 766.134 1067.7 767.585C1069.15 769.036 1069.87 770.971 1069.87 773.39C1069.87 776.776 1067.58 780.162 1062.99 783.548C1058.65 786.693 1053.59 789.958 1047.8 793.344C1042.01 796.73 1036.22 800.116 1030.43 803.503C1024.88 806.889 1020.78 810.154 1018.13 813.298C1016.2 815.475 1014.99 818.015 1014.51 820.917C1014.27 823.819 1013.55 826.601 1012.34 829.262C1012.1 829.987 1011.38 831.438 1010.17 833.615C1009.21 835.55 1008.12 837.727 1006.91 840.146C1005.71 842.564 1004.5 844.983 1003.3 847.402C1002.33 849.578 1001.85 851.03 1001.85 851.755C1001.61 851.997 1001.13 852.844 1000.4 854.295C999.919 855.504 999.316 856.955 998.592 858.648C997.869 860.1 997.145 861.551 996.422 863.002C995.939 864.453 995.577 865.3 995.336 865.542C995.336 866.025 994.974 866.872 994.251 868.081C993.768 869.291 993.406 870.137 993.165 870.621C992.924 871.105 992.321 871.951 991.356 873.161C990.633 874.37 989.788 875.579 988.824 876.789C988.1 877.998 987.256 879.207 986.291 880.417C985.567 881.626 985.085 882.352 984.844 882.593C984.602 883.077 983.999 884.407 983.035 886.584C982.311 888.519 981.467 890.696 980.502 893.115C979.537 895.533 978.693 897.831 977.969 900.008C977.246 902.185 976.884 903.636 976.884 904.361C976.401 905.087 975.075 907.385 972.904 911.255C970.974 914.883 968.924 918.874 966.753 923.227C964.582 927.581 962.532 931.693 960.603 935.562C958.673 939.432 957.587 941.972 957.346 943.181C956.14 945.842 955.055 948.986 954.09 952.614C953.366 956.242 952.522 959.991 951.557 963.861C950.834 967.489 949.989 971.117 949.025 974.745C948.06 978.131 947.095 981.275 946.13 984.178C941.788 996.513 936.723 1008.24 930.934 1019.37C925.387 1030.25 920.442 1041.5 916.1 1053.11C915.859 1053.59 915.497 1054.68 915.015 1056.38C914.532 1058.07 913.929 1059.88 913.206 1061.82C912.723 1063.51 912.12 1065.2 911.397 1066.9C910.914 1068.59 910.552 1069.68 910.311 1070.16C908.382 1075 906.693 1080.56 905.246 1086.85C904.04 1093.14 901.99 1098.7 899.095 1103.54C898.854 1103.78 898.251 1104.75 897.286 1106.44C896.321 1107.89 895.236 1109.47 894.03 1111.16C892.824 1113.09 891.618 1114.91 890.412 1116.6C889.447 1118.29 888.844 1119.38 888.603 1119.87C888.361 1119.87 888.12 1120.47 887.879 1121.68C887.638 1123.13 887.397 1124.7 887.155 1126.4C886.914 1128.09 886.673 1129.66 886.432 1131.11C886.191 1132.56 886.07 1133.41 886.07 1133.65C885.588 1135.83 884.864 1138.61 883.899 1142C882.934 1145.62 881.97 1149.13 881.005 1152.52C880.04 1156.15 879.196 1159.29 878.472 1161.95C877.748 1164.61 877.266 1166.18 877.025 1166.67C872.442 1180.21 866.05 1192.43 857.849 1203.31C849.648 1214.19 841.447 1225.2 833.246 1236.33C833.246 1236.57 832.643 1237.41 831.437 1238.86C830.472 1240.56 829.387 1242.25 828.181 1243.94C826.975 1245.88 825.769 1247.69 824.563 1249.39C823.598 1251.08 822.995 1252.05 822.754 1252.29C822.03 1253.26 820.342 1254.83 817.688 1257C815.276 1259.42 812.744 1261.96 810.09 1264.62C807.437 1267.28 804.904 1269.82 802.492 1272.24C800.08 1274.66 798.512 1276.35 797.789 1277.32C791.035 1277.81 784.764 1279.26 778.975 1281.68C773.427 1284.09 767.397 1285.3 760.884 1285.3C747.136 1285.3 737.246 1281.55 731.216 1274.06C725.427 1266.8 722.533 1256.52 722.533 1243.22Z" fill="#F5F5F5"/>
</svg>
