<svg width="2589" height="1291" viewBox="0 0 2589 1291" fill="none" xmlns="http://www.w3.org/2000/svg">
<path fill-rule="evenodd" clip-rule="evenodd" d="M443.558 1V342.935C398.637 406.431 378.029 383.165 358.931 427.126C348.014 351.819 375.206 333.574 421.385 287.546V185.63C380.363 257.606 326.203 289.479 320.496 323.364C307.36 378.57 312.723 415.411 391.448 513.164C514.136 636.864 570.194 702.431 617.612 803.771C663.593 952.538 662.57 1143.32 481.351 1250.32C471.587 1256.09 461.095 1260.69 450.393 1264.44C340.164 1303.01 268.356 1309.7 166.141 1199.71C150.289 1182.65 133.706 1162.79 116.134 1139.8C72.3495 1027.48 86.8327 971.58 141.191 886.221C146.572 877.771 152.678 869.739 159.634 862.53C206.204 814.273 246.415 800.137 323.781 812.248C342.518 815.181 360.582 821.662 376.823 831.456C443.446 871.634 464.374 910.061 465.349 979.374C465.57 995.152 462.768 1010.89 456.83 1025.51C434.487 1080.52 406.074 1101.49 351.688 1105.66C325.995 1107.63 299.712 1102.58 277.825 1088.98C253.238 1073.7 241.363 1056.2 236.497 1030.57C231.911 1006.41 236.889 981.285 247.725 959.216C268.423 917.061 292.185 904.65 334.539 897.564C285.63 936.922 276.918 957.946 291.302 993.571C313.639 1035.67 367.676 1042.16 399.573 1001.99C403.834 996.624 406.91 990.433 409.449 984.069C427.282 939.367 426.178 911.442 389.195 871.508C387.037 869.177 384.6 867.078 381.964 865.304C338.698 836.173 304.217 836.679 261.457 848.831C251.008 851.8 240.915 855.986 231.528 861.451C198.02 880.958 182.698 899.463 169.374 925.898C161.103 942.308 156.259 960.326 155.14 978.668C152.638 1019.71 159.514 1050.96 184.502 1102.13C189.811 1110.38 194.477 1117.29 198.963 1123.31C217.989 1148.81 249.702 1160.24 281.309 1163.92C353.853 1172.36 398.313 1160.95 461.664 1127.24C529.138 1082.01 554.135 1040.82 562.521 967.878C564.081 954.308 563.82 940.54 561.969 927.006C551.655 851.624 529.177 806.773 473.859 735.089C411.157 661.137 374.52 620.787 321.235 539.75C276.536 469.356 260.423 427.622 259.151 346.258C269.902 247.687 298.31 212.387 358.931 158.305C407.526 108.319 424.828 72.9662 443.558 1ZM586.083 1013.04C592.241 994.139 595.051 974.259 595.003 954.381C594.807 872.463 584.135 820.363 527.074 742.105C598.962 819.852 612.33 870.331 617.612 965.138C614.139 1029.54 602.977 1095.26 510.075 1162.32C426.421 1216.97 376.993 1225.52 283.541 1194.08C360.948 1196.74 400.658 1191.15 461.664 1162.32C530.701 1125.54 560.978 1090.1 586.083 1013.04Z" fill="white"/>
<path d="M116.134 1139.8C53.6603 1094.68 23.5365 1034.97 25.1142 953.759C25.4258 937.724 28.3264 921.805 33.0027 906.464C47.858 857.73 62.8036 835.209 84.1553 810.885C94.7283 798.841 106.634 787.951 119.736 778.719C167.24 745.248 197.436 737.933 245.847 735.089C308.703 732.38 343.917 742.69 387.135 765.83C408.807 777.433 428.245 792.89 444.898 810.973C491.874 861.983 512.82 898.693 520.908 959.968C521.104 914.97 530.553 895.111 480.149 811.518C463.101 783.245 440.233 758.576 412.213 741.115C357.115 706.78 314.332 697.766 245.847 702.963C178.998 706.419 144.298 723.915 85.9499 774.969C46.6428 812.162 25.6615 839.794 8.46932 902.385C3.51355 920.427 0.779465 939.098 1.03058 957.807C1.56255 997.44 9.04734 1027.82 25.4584 1064.59C37.9884 1092.67 57.0708 1117.37 80.1136 1137.72C110.082 1164.2 133.071 1180.32 166.141 1199.71C150.289 1182.65 133.706 1162.79 116.134 1139.8Z" fill="white"/>
<path d="M116.134 1139.8C72.3495 1027.48 86.8327 971.58 141.191 886.221C146.572 877.771 152.678 869.739 159.634 862.53C206.204 814.273 246.415 800.137 323.781 812.248C342.518 815.181 360.582 821.662 376.823 831.456C443.446 871.634 464.374 910.061 465.349 979.374C465.57 995.152 462.768 1010.89 456.83 1025.51C434.487 1080.52 406.074 1101.49 351.688 1105.66C325.995 1107.63 299.712 1102.58 277.825 1088.98C253.238 1073.7 241.363 1056.2 236.497 1030.57C231.911 1006.41 236.889 981.285 247.725 959.216C268.423 917.061 292.185 904.65 334.539 897.564C285.63 936.922 276.918 957.946 291.302 993.571C313.639 1035.67 367.676 1042.16 399.573 1001.99C403.834 996.624 406.91 990.433 409.449 984.069C427.282 939.367 426.178 911.442 389.195 871.508C387.037 869.177 384.6 867.078 381.964 865.304C338.698 836.173 304.217 836.679 261.457 848.831C251.008 851.8 240.915 855.986 231.528 861.451C198.02 880.958 182.698 899.463 169.374 925.898C161.103 942.308 156.259 960.326 155.14 978.668C152.638 1019.71 159.514 1050.96 184.502 1102.13C189.811 1110.38 194.477 1117.29 198.963 1123.31C217.989 1148.81 249.702 1160.24 281.309 1163.92C353.853 1172.36 398.313 1160.95 461.664 1127.24C529.138 1082.01 554.135 1040.82 562.521 967.878C564.081 954.308 563.82 940.54 561.969 927.006C551.655 851.624 529.177 806.773 473.859 735.089C411.157 661.137 374.52 620.787 321.235 539.75C276.536 469.356 260.423 427.622 259.151 346.258C269.902 247.687 298.31 212.387 358.931 158.305C407.526 108.319 424.828 72.9662 443.558 1V342.935C398.637 406.431 378.029 383.165 358.931 427.126C348.014 351.819 375.206 333.574 421.385 287.546V185.63C380.363 257.606 326.203 289.479 320.496 323.364C307.36 378.57 312.723 415.411 391.448 513.164C514.136 636.864 570.194 702.431 617.612 803.771C663.593 952.538 662.57 1143.32 481.351 1250.32C471.587 1256.09 461.095 1260.69 450.393 1264.44C340.164 1303.01 268.356 1309.7 166.141 1199.71M116.134 1139.8C53.6603 1094.68 23.5365 1034.97 25.1142 953.759C25.4258 937.724 28.3264 921.805 33.0027 906.464C47.858 857.73 62.8036 835.209 84.1553 810.885C94.7283 798.841 106.634 787.951 119.736 778.719C167.24 745.248 197.436 737.933 245.847 735.089C308.703 732.38 343.917 742.69 387.135 765.83C408.807 777.433 428.245 792.89 444.898 810.973C491.874 861.983 512.82 898.693 520.908 959.968C521.104 914.97 530.553 895.111 480.149 811.518C463.101 783.245 440.233 758.576 412.213 741.115C357.115 706.78 314.332 697.766 245.847 702.963C178.998 706.419 144.298 723.915 85.9499 774.969C46.6428 812.162 25.6615 839.794 8.46932 902.385C3.51355 920.427 0.779465 939.098 1.03058 957.807C1.56255 997.44 9.04734 1027.82 25.4584 1064.59C37.9884 1092.67 57.0708 1117.37 80.1136 1137.72C110.082 1164.2 133.071 1180.32 166.141 1199.71M116.134 1139.8C133.706 1162.79 150.289 1182.65 166.141 1199.71M527.074 742.105C584.135 820.363 594.807 872.463 595.003 954.381C595.051 974.259 592.241 994.139 586.083 1013.04C560.978 1090.1 530.701 1125.54 461.664 1162.32C400.658 1191.15 360.948 1196.74 283.541 1194.08C376.993 1225.52 426.421 1216.97 510.075 1162.32C602.977 1095.26 614.139 1029.54 617.612 965.138C612.33 870.331 598.962 819.852 527.074 742.105Z" stroke="white"/>
<path d="M2365.15 1186.65C2365.15 1184.63 2365.3 1182.23 2365.61 1179.44C2365.92 1176.64 2367.08 1174.55 2369.1 1173.15C2370.19 1172.07 2371.58 1170.98 2373.29 1169.9C2375.15 1168.81 2377.09 1167.8 2379.1 1166.87C2381.28 1165.94 2383.37 1165.17 2385.39 1164.55C2387.4 1164.08 2389.11 1163.85 2390.5 1163.85C2395 1163.85 2399.19 1164.47 2403.07 1165.71C2406.95 1167.11 2411.21 1167.8 2415.86 1167.8H2422.38C2422.69 1167.65 2423.31 1167.18 2424.24 1166.41C2425.17 1165.63 2426.18 1164.7 2427.26 1163.62C2428.51 1162.68 2429.59 1161.75 2430.52 1160.82C2431.61 1160.05 2432.38 1159.43 2432.85 1158.96C2433 1158.81 2433.24 1158.26 2433.55 1157.33C2433.86 1156.56 2434.17 1155.63 2434.48 1154.54C2434.94 1153.46 2435.33 1152.45 2435.64 1151.52C2436.11 1150.59 2436.34 1149.97 2436.34 1149.66C2436.65 1149.5 2437.27 1148.96 2438.2 1148.03C2439.13 1147.25 2439.59 1146.71 2439.59 1146.4C2441.46 1143.61 2443.4 1139.96 2445.41 1135.46C2447.58 1130.97 2449.52 1126.24 2451.23 1121.27C2453.09 1116.31 2454.64 1111.42 2455.88 1106.61C2457.12 1101.81 2457.74 1097.77 2457.74 1094.52C2457.74 1093.74 2457.59 1093.35 2457.28 1093.35C2455.57 1088.86 2453.55 1084.9 2451.23 1081.49C2448.9 1078.08 2446.88 1074.35 2445.18 1070.32C2443.94 1067.06 2442.93 1063.81 2442.15 1060.55C2441.38 1057.29 2440.6 1054.03 2439.83 1050.78C2439.21 1047.52 2438.51 1044.26 2437.73 1041.01C2437.11 1037.75 2436.26 1034.57 2435.17 1031.47C2434.24 1029.3 2433.16 1027.2 2431.92 1025.19C2430.68 1023.01 2429.44 1020.92 2428.19 1018.9C2426.95 1016.89 2425.79 1014.87 2424.71 1012.85C2423.62 1010.68 2422.84 1008.51 2422.38 1006.34V997.499C2422.07 995.638 2421.53 993.699 2420.75 991.683C2419.97 989.667 2419.12 987.65 2418.19 985.634C2417.26 983.618 2416.33 981.679 2415.4 979.818C2414.62 977.956 2414 976.25 2413.54 974.699C2413.54 974.234 2413.23 973.381 2412.61 972.14C2412.14 970.744 2411.91 969.813 2411.91 969.348C2410.51 964.385 2408.96 959.577 2407.26 954.923C2405.7 950.115 2404.31 945.307 2403.07 940.499C2403.07 940.344 2402.99 939.878 2402.84 939.103C2402.68 938.327 2402.45 937.474 2402.14 936.544C2401.98 935.458 2401.83 934.527 2401.67 933.752C2401.52 932.821 2401.44 932.201 2401.44 931.891C2399.58 926.462 2396.94 920.878 2393.53 915.139C2390.27 909.401 2386.7 904.282 2382.83 899.784C2381.74 898.388 2380.11 897.07 2377.94 895.829C2375.77 894.433 2373.6 893.037 2371.43 891.641C2369.41 890.09 2367.55 888.461 2365.84 886.755C2364.29 884.894 2363.52 882.8 2363.52 880.474C2363.52 879.233 2363.9 878.302 2364.68 877.682C2365.46 877.061 2366.39 876.596 2367.47 876.286C2368.71 875.976 2369.95 875.821 2371.19 875.821C2372.44 875.665 2373.52 875.588 2374.45 875.588C2377.55 875.588 2380.42 876.131 2383.06 877.216C2385.7 878.302 2388.33 878.845 2390.97 878.845H2392.6C2393.68 878.69 2395.24 878.535 2397.25 878.38C2399.42 878.225 2401.52 878.07 2403.53 877.914C2405.7 877.759 2407.57 877.682 2409.12 877.682C2410.67 877.527 2411.6 877.372 2411.91 877.216C2412.06 877.216 2412.61 877.216 2413.54 877.216C2414.62 877.061 2415.71 876.984 2416.79 876.984C2418.04 876.829 2419.2 876.751 2420.28 876.751C2421.37 876.596 2422.07 876.519 2422.38 876.519C2424.86 876.519 2427.81 876.363 2431.22 876.053C2434.63 875.743 2437.42 875.588 2439.59 875.588C2440.99 875.588 2442.46 875.743 2444.02 876.053C2445.72 876.363 2447.27 876.906 2448.67 877.682C2450.22 878.457 2451.46 879.465 2452.39 880.706C2453.48 881.947 2454.02 883.498 2454.02 885.359C2454.02 887.531 2453.55 889.237 2452.62 890.478C2451.69 891.564 2450.53 892.572 2449.13 893.502C2447.89 894.278 2446.57 895.131 2445.18 896.062C2443.78 896.992 2442.62 898.233 2441.69 899.784C2440.6 902.421 2439.98 904.592 2439.83 906.298C2439.67 908.005 2439.59 910.254 2439.59 913.045C2439.59 916.148 2439.67 918.862 2439.83 921.188C2439.98 923.36 2440.6 925.764 2441.69 928.401C2441.84 928.866 2442.31 930.029 2443.08 931.891C2444.02 933.597 2444.95 935.458 2445.88 937.474C2446.96 939.336 2447.89 941.119 2448.67 942.825C2449.6 944.531 2450.22 945.617 2450.53 946.083C2450.68 946.393 2450.84 947.091 2451 948.176C2451.31 949.107 2451.54 950.193 2451.69 951.434C2451.85 952.519 2452 953.605 2452.16 954.691C2452.31 955.777 2452.47 956.397 2452.62 956.552C2453.55 961.981 2454.8 967.487 2456.35 973.071C2457.9 978.499 2459.6 983.695 2461.46 988.659C2462.4 992.226 2463.95 995.483 2466.12 998.43C2468.44 1001.38 2470.38 1004.56 2471.93 1007.97C2472.55 1009.68 2473.1 1011.77 2473.56 1014.25C2474.03 1016.58 2474.57 1018.83 2475.19 1021C2475.97 1023.17 2476.97 1025.03 2478.22 1026.58C2479.61 1028.13 2481.55 1028.91 2484.03 1028.91C2485.43 1028.91 2486.51 1028.83 2487.29 1028.68C2488.22 1028.37 2489 1027.36 2489.62 1025.65C2491.01 1022.55 2492.41 1019.21 2493.8 1015.65C2495.2 1011.92 2496.6 1008.28 2497.99 1004.71C2498.46 1003.78 2499.47 1001.69 2501.02 998.43C2502.72 995.173 2504.51 991.683 2506.37 987.961C2508.23 984.083 2509.93 980.593 2511.49 977.491C2513.19 974.234 2514.2 972.218 2514.51 971.442C2514.67 970.977 2514.9 970.046 2515.21 968.65C2515.52 967.254 2515.91 965.703 2516.37 963.997C2516.84 962.291 2517.22 960.74 2517.53 959.344C2517.84 957.948 2518.08 957.017 2518.23 956.552C2518.23 956.242 2518.47 955.544 2518.93 954.458C2519.4 953.217 2519.63 952.442 2519.63 952.132C2520.71 949.185 2521.57 946.393 2522.19 943.756C2522.81 940.964 2523.35 938.327 2523.82 935.846C2524.28 933.209 2524.67 930.572 2524.98 927.935C2525.44 925.299 2525.99 922.507 2526.61 919.56C2526.61 919.25 2526.92 918.629 2527.54 917.699C2528.31 916.768 2528.7 916.148 2528.7 915.837V912.347V909.323C2528.7 908.703 2528.47 907.849 2528 906.764C2527.54 905.678 2527 904.592 2526.38 903.507C2525.76 902.266 2525.13 901.18 2524.51 900.249C2523.89 899.164 2523.51 898.466 2523.35 898.155C2522.27 896.76 2520.48 895.519 2518 894.433C2515.67 893.347 2513.27 892.339 2510.79 891.408C2508.46 890.323 2506.37 889.315 2504.51 888.384C2502.8 887.453 2501.95 886.445 2501.95 885.359C2501.95 883.808 2502.72 882.568 2504.27 881.637C2505.82 880.551 2507.69 879.698 2509.86 879.078C2512.03 878.457 2514.12 877.992 2516.14 877.682C2518.31 877.372 2520.02 877.216 2521.26 877.216C2523.89 877.216 2526.38 877.527 2528.7 878.147C2531.18 878.612 2533.98 878.845 2537.08 878.845C2539.09 878.845 2541.03 879.078 2542.89 879.543C2544.91 879.853 2547.08 880.008 2549.41 880.008C2552.05 880.008 2554.29 880.086 2556.16 880.241C2558.17 880.396 2560.5 880.474 2563.14 880.474C2565.31 880.474 2567.32 880.241 2569.18 879.776C2571.05 879.155 2573.22 878.845 2575.7 878.845C2576.94 878.845 2578.26 878.923 2579.65 879.078C2581.2 879.078 2582.6 879.31 2583.84 879.776C2585.24 880.086 2586.32 880.706 2587.1 881.637C2588.03 882.568 2588.49 883.808 2588.49 885.359C2588.49 887.531 2587.02 889.702 2584.07 891.874C2581.28 893.89 2578.03 895.984 2574.3 898.155C2570.58 900.327 2566.86 902.498 2563.14 904.67C2559.57 906.841 2556.93 908.935 2555.22 910.952C2553.98 912.347 2553.21 913.976 2552.9 915.837C2552.74 917.699 2552.28 919.482 2551.5 921.188C2551.35 921.654 2550.88 922.584 2550.11 923.98C2549.49 925.221 2548.79 926.617 2548.01 928.168C2547.24 929.719 2546.46 931.27 2545.69 932.821C2545.07 934.217 2544.76 935.148 2544.76 935.613C2544.6 935.768 2544.29 936.311 2543.82 937.242C2543.51 938.017 2543.13 938.948 2542.66 940.033C2542.2 940.964 2541.73 941.895 2541.27 942.825C2540.96 943.756 2540.72 944.299 2540.57 944.454C2540.57 944.764 2540.33 945.307 2539.87 946.083C2539.56 946.858 2539.33 947.401 2539.17 947.711C2539.02 948.021 2538.63 948.564 2538.01 949.34C2537.54 950.115 2537 950.891 2536.38 951.666C2535.91 952.442 2535.37 953.217 2534.75 953.993C2534.29 954.768 2533.98 955.234 2533.82 955.389C2533.67 955.699 2533.28 956.552 2532.66 957.948C2532.19 959.189 2531.65 960.585 2531.03 962.136C2530.41 963.687 2529.87 965.16 2529.4 966.556C2528.93 967.952 2528.7 968.883 2528.7 969.348C2528.39 969.813 2527.54 971.287 2526.14 973.769C2524.9 976.095 2523.58 978.654 2522.19 981.446C2520.79 984.238 2519.47 986.875 2518.23 989.356C2516.99 991.838 2516.29 993.467 2516.14 994.242C2515.36 995.948 2514.67 997.965 2514.04 1000.29C2513.58 1002.62 2513.04 1005.02 2512.42 1007.5C2511.95 1009.83 2511.41 1012.16 2510.79 1014.48C2510.17 1016.65 2509.55 1018.67 2508.93 1020.53C2506.13 1028.44 2502.88 1035.97 2499.15 1043.1C2495.59 1050.08 2492.41 1057.29 2489.62 1064.74C2489.46 1065.05 2489.23 1065.75 2488.92 1066.83C2488.61 1067.92 2488.22 1069.08 2487.75 1070.32C2487.44 1071.41 2487.06 1072.49 2486.59 1073.58C2486.28 1074.66 2486.05 1075.36 2485.89 1075.67C2484.65 1078.77 2483.57 1082.34 2482.64 1086.37C2481.86 1090.41 2480.54 1093.97 2478.68 1097.08C2478.53 1097.23 2478.14 1097.85 2477.52 1098.94C2476.9 1099.87 2476.2 1100.88 2475.42 1101.96C2474.65 1103.2 2473.87 1104.37 2473.1 1105.45C2472.48 1106.54 2472.09 1107.24 2471.93 1107.55C2471.78 1107.55 2471.62 1107.93 2471.47 1108.71C2471.31 1109.64 2471.16 1110.65 2471 1111.73C2470.85 1112.82 2470.69 1113.83 2470.54 1114.76C2470.38 1115.69 2470.31 1116.23 2470.31 1116.39C2470 1117.78 2469.53 1119.57 2468.91 1121.74C2468.29 1124.06 2467.67 1126.31 2467.05 1128.48C2466.43 1130.81 2465.89 1132.83 2465.42 1134.53C2464.95 1136.24 2464.64 1137.25 2464.49 1137.56C2461.54 1146.24 2457.43 1154.08 2452.16 1161.06C2446.88 1168.04 2441.61 1175.09 2436.34 1182.23C2436.34 1182.38 2435.95 1182.93 2435.17 1183.86C2434.55 1184.94 2433.86 1186.03 2433.08 1187.11C2432.31 1188.35 2431.53 1189.52 2430.75 1190.6C2430.13 1191.69 2429.75 1192.31 2429.59 1192.46C2429.13 1193.09 2428.04 1194.09 2426.33 1195.49C2424.78 1197.04 2423.15 1198.67 2421.45 1200.38C2419.74 1202.08 2418.11 1203.71 2416.56 1205.26C2415.01 1206.81 2414 1207.9 2413.54 1208.52C2409.19 1208.83 2405.16 1209.76 2401.44 1211.31C2397.87 1212.86 2393.99 1213.64 2389.81 1213.64C2380.97 1213.64 2374.61 1211.23 2370.73 1206.42C2367.01 1201.77 2365.15 1195.18 2365.15 1186.65Z" fill="white"/>
<path d="M2120.39 1096.15C2120.39 1094.45 2120.47 1092.82 2120.62 1091.27C2120.93 1089.72 2121.71 1088.4 2122.95 1087.31C2123.57 1087.31 2124.81 1087.23 2126.67 1087.08C2128.53 1086.77 2130.39 1086.54 2132.26 1086.38C2134.27 1086.07 2136.13 1085.76 2137.84 1085.45C2139.7 1085.14 2141.02 1084.98 2141.79 1084.98C2145.36 1084.52 2147.84 1083.05 2149.24 1080.56C2150.79 1078.08 2151.8 1075.14 2152.26 1071.72C2152.73 1068.31 2153.04 1064.82 2153.19 1061.25C2153.35 1057.53 2153.97 1054.27 2155.06 1051.48C2155.21 1049.47 2155.29 1046.05 2155.29 1041.25C2155.44 1036.28 2155.6 1031.09 2155.75 1025.66C2155.91 1020.23 2155.99 1015.11 2155.99 1010.3C2156.14 1005.34 2156.22 1001.93 2156.22 1000.07C2156.22 999.6 2156.22 998.437 2156.22 996.575C2156.37 994.559 2156.45 992.31 2156.45 989.828C2156.45 987.347 2156.45 984.865 2156.45 982.383C2156.61 979.747 2156.68 977.575 2156.68 975.869C2156.68 974.628 2156.61 972.922 2156.45 970.751C2156.45 968.424 2156.45 966.175 2156.45 964.004C2156.45 961.832 2156.37 959.893 2156.22 958.187C2156.22 956.326 2156.22 955.24 2156.22 954.93C2156.22 954.465 2156.14 953.534 2155.99 952.138C2155.99 950.742 2155.91 949.269 2155.75 947.718C2155.6 946.167 2155.44 944.771 2155.29 943.53C2155.29 942.289 2155.21 941.514 2155.06 941.203C2154.9 940.583 2154.28 939.73 2153.19 938.644C2152.11 937.558 2151.26 936.705 2150.63 936.085C2150.32 934.844 2149.32 933.371 2147.61 931.665C2145.9 929.803 2144.66 928.718 2143.89 928.407C2142.34 927.322 2140.55 926.779 2138.54 926.779C2136.52 926.624 2134.5 926.469 2132.49 926.313C2130.47 926.158 2128.69 925.693 2127.14 924.918C2125.59 924.142 2124.58 922.436 2124.11 919.799C2124.11 919.489 2124.34 918.946 2124.81 918.171C2125.43 917.24 2125.9 916.619 2126.21 916.309C2126.36 915.844 2126.75 915.301 2127.37 914.681C2128.14 913.905 2128.92 913.13 2129.7 912.354C2130.47 911.579 2131.17 910.958 2131.79 910.493C2132.57 909.872 2133.11 909.485 2133.42 909.33C2133.57 909.019 2134.43 908.321 2135.98 907.236C2137.68 906.15 2139.7 904.987 2142.03 903.746C2144.35 902.35 2146.68 901.032 2149.01 899.791C2151.49 898.395 2153.5 897.309 2155.06 896.534C2157.54 895.138 2160.33 894.052 2163.43 893.276C2166.53 892.346 2169.56 891.182 2172.5 889.787C2175.14 888.08 2177.31 886.452 2179.02 884.901C2180.88 883.35 2183.36 882.574 2186.46 882.574C2189.41 882.574 2191.58 883.737 2192.98 886.064C2194.37 888.236 2195.38 890.872 2196 893.974C2196.62 896.921 2197.01 900.023 2197.17 903.281C2197.32 906.383 2197.55 908.942 2197.86 910.958C2197.86 911.579 2197.86 912.664 2197.86 914.215C2198.02 915.611 2198.1 917.162 2198.1 918.868C2198.25 920.575 2198.41 922.203 2198.56 923.754C2198.72 925.305 2198.87 926.469 2199.03 927.244C2199.8 928.485 2200.58 929.416 2201.35 930.036C2202.13 930.501 2203.22 930.734 2204.61 930.734H2206.7C2207.02 930.269 2207.56 929.648 2208.33 928.873C2209.11 927.942 2209.96 927.011 2210.89 926.081C2211.82 925.15 2212.68 924.297 2213.45 923.522C2214.23 922.591 2214.77 921.893 2215.08 921.428C2215.08 921.273 2215.39 920.73 2216.01 919.799C2216.79 918.868 2217.17 918.248 2217.17 917.938C2218.57 915.766 2220.2 914.37 2222.06 913.75C2224.08 912.975 2225.94 911.501 2227.64 909.33C2231.21 904.521 2235.01 900.644 2239.04 897.697C2243.08 894.595 2247.73 891.26 2253 887.693C2256.42 885.056 2260.14 883.582 2264.17 883.272C2268.2 882.807 2272.47 882.574 2276.97 882.574C2280.69 882.574 2284.02 882.884 2286.97 883.505C2290.07 884.125 2292.94 885.056 2295.58 886.297C2298.22 887.382 2300.78 888.778 2303.26 890.485C2305.89 892.191 2308.53 894.207 2311.17 896.534C2314.27 899.325 2317.45 902.505 2320.71 906.072C2324.12 909.64 2326.44 913.595 2327.69 917.938C2327.69 919.024 2327.76 920.575 2327.92 922.591C2328.23 924.452 2328.54 926.313 2328.85 928.175C2329.31 930.036 2329.7 931.742 2330.01 933.293C2330.32 934.844 2330.56 935.775 2330.71 936.085V953.767C2330.71 953.922 2330.79 954.542 2330.94 955.628C2331.1 956.559 2331.25 957.644 2331.41 958.885C2331.72 959.971 2331.95 961.057 2332.11 962.142C2332.42 963.228 2332.57 963.926 2332.57 964.236V966.098V967.726C2332.57 968.191 2332.42 969.277 2332.11 970.983C2331.95 972.689 2331.72 974.551 2331.41 976.567C2331.25 978.583 2331.1 980.522 2330.94 982.383C2330.79 984.09 2330.71 985.253 2330.71 985.873V998.437V1030.08C2330.71 1030.39 2330.63 1031.09 2330.48 1032.17C2330.32 1033.26 2330.09 1034.42 2329.78 1035.66C2329.62 1036.75 2329.47 1037.83 2329.31 1038.92C2329.16 1039.85 2329.08 1040.39 2329.08 1040.55V1064.74C2329.08 1066.91 2329.24 1069.47 2329.55 1072.42C2329.86 1075.21 2330.87 1077.93 2332.57 1080.56C2334.28 1080.25 2335.91 1080.02 2337.46 1079.87C2339.16 1079.71 2340.87 1079.63 2342.58 1079.63C2344.28 1079.63 2345.91 1079.71 2347.46 1079.87C2349.01 1080.02 2350.49 1080.25 2351.88 1080.56C2352.35 1080.56 2352.97 1081.11 2353.74 1082.19C2354.67 1083.12 2355.29 1083.9 2355.6 1084.52C2355.6 1084.83 2355.68 1085.22 2355.84 1085.68C2355.84 1085.99 2355.84 1086.3 2355.84 1086.61C2355.99 1086.92 2356.07 1087.16 2356.07 1087.31C2356.07 1088.71 2355.68 1090.18 2354.91 1091.73C2354.29 1093.13 2353.43 1094.45 2352.35 1095.69C2351.42 1096.93 2350.25 1097.94 2348.86 1098.71C2347.62 1099.49 2346.38 1099.87 2345.13 1099.87H2343.51C2343.2 1099.72 2342.42 1099.49 2341.18 1099.18C2339.94 1098.87 2338.62 1098.63 2337.22 1098.48C2335.83 1098.32 2334.43 1098.17 2333.04 1098.01C2331.8 1097.86 2331.02 1097.78 2330.71 1097.78C2330.24 1097.78 2329 1097.86 2326.99 1098.01C2325.13 1098.17 2323.03 1098.32 2320.71 1098.48C2318.38 1098.63 2316.13 1098.87 2313.96 1099.18C2311.79 1099.49 2310.24 1099.72 2309.31 1099.87C2309 1099.87 2308.14 1100.03 2306.75 1100.34C2305.35 1100.81 2304.42 1101.04 2303.95 1101.04H2277.43C2276.97 1101.19 2275.96 1101.35 2274.41 1101.5C2272.86 1101.66 2271.15 1101.81 2269.29 1101.97C2267.58 1102.12 2265.95 1102.28 2264.4 1102.43C2262.85 1102.59 2261.84 1102.67 2261.38 1102.67H2258.59C2257.81 1102.67 2257.04 1102.2 2256.26 1101.27C2255.48 1100.34 2254.79 1099.25 2254.17 1098.01C2253.55 1096.77 2253 1095.45 2252.54 1094.06C2252.23 1092.66 2252.07 1091.5 2252.07 1090.57C2252.07 1088.55 2253.39 1087.08 2256.03 1086.15C2258.82 1085.22 2261.92 1084.52 2265.33 1084.05C2268.9 1083.59 2272.31 1083.2 2275.57 1082.89C2278.98 1082.43 2281.39 1081.73 2282.78 1080.8C2283.25 1080.49 2283.79 1079.79 2284.41 1078.7C2285.19 1077.62 2285.96 1076.45 2286.74 1075.21C2287.51 1073.97 2288.13 1072.73 2288.6 1071.49C2289.22 1070.25 2289.69 1069.24 2290 1068.47C2290.46 1067.07 2290.77 1065.98 2290.93 1065.21C2291.08 1064.28 2291.24 1063.5 2291.39 1062.88C2291.55 1062.11 2291.62 1061.33 2291.62 1060.56C2291.62 1059.63 2291.62 1058.46 2291.62 1057.07V1040.55C2291.62 1040.08 2291.62 1038.84 2291.62 1036.82C2291.62 1034.81 2291.62 1032.64 2291.62 1030.31C2291.78 1027.83 2291.86 1025.58 2291.86 1023.56C2291.86 1021.39 2291.86 1020.07 2291.86 1019.61C2291.7 1017.9 2291.55 1015.27 2291.39 1011.7C2291.39 1008.13 2291.31 1004.18 2291.16 999.833C2291 995.335 2290.85 990.682 2290.69 985.873C2290.69 980.91 2290.62 976.257 2290.46 971.914C2290.46 967.416 2290.46 963.461 2290.46 960.049C2290.46 956.481 2290.46 953.844 2290.46 952.138C2290.15 948.261 2289.14 944.228 2287.44 940.04C2285.89 935.852 2283.71 932.052 2280.92 928.64C2278.13 925.073 2274.95 922.203 2271.38 920.032C2267.82 917.705 2263.94 916.464 2259.75 916.309C2258.04 916.154 2256.11 916.232 2253.93 916.542C2251.76 916.852 2249.51 917.24 2247.19 917.705C2244.86 918.171 2242.61 918.791 2240.44 919.566C2238.27 920.187 2236.25 920.807 2234.39 921.428C2233.46 921.893 2231.99 922.591 2229.97 923.522C2228.11 924.452 2226.25 925.46 2224.39 926.546C2222.53 927.477 2220.82 928.33 2219.27 929.105C2217.87 929.881 2217.17 930.424 2217.17 930.734C2216.71 931.044 2215.78 932.052 2214.38 933.758C2213.14 935.465 2211.82 937.326 2210.43 939.342C2209.19 941.359 2207.95 943.22 2206.7 944.926C2205.62 946.632 2204.92 947.718 2204.61 948.183C2201.82 952.216 2200.19 956.404 2199.73 960.746C2199.41 965.089 2198.79 969.743 2197.86 974.706C2197.55 975.326 2197.17 976.567 2196.7 978.428C2196.39 980.29 2196.24 981.608 2196.24 982.383V996.343C2196.24 996.808 2196.08 997.894 2195.77 999.6C2195.46 1001.31 2195.15 1003.17 2194.84 1005.18C2194.53 1007.2 2194.22 1009.14 2193.91 1011C2193.6 1012.71 2193.44 1013.87 2193.44 1014.49V1038.22C2193.44 1042.41 2193.44 1046.21 2193.44 1049.62C2193.44 1053.03 2193.52 1056.37 2193.68 1059.63C2193.99 1062.73 2194.3 1065.98 2194.61 1069.4C2194.92 1072.65 2195.46 1076.38 2196.24 1080.56C2197.17 1082.27 2198.48 1083.36 2200.19 1083.82C2202.05 1084.29 2204.07 1084.52 2206.24 1084.52C2207.48 1084.52 2208.72 1084.44 2209.96 1084.29C2211.2 1084.13 2212.52 1084.05 2213.92 1084.05C2216.09 1084.05 2218.03 1085.22 2219.73 1087.54C2221.44 1089.72 2222.29 1092.04 2222.29 1094.52C2222.29 1097.32 2221.21 1099.18 2219.04 1100.11C2216.86 1101.04 2214.46 1101.5 2211.82 1101.5C2210.58 1101.5 2209.42 1101.43 2208.33 1101.27C2207.4 1101.12 2206.55 1101.04 2205.77 1101.04C2200.97 1101.04 2196.16 1100.73 2191.35 1100.11C2186.54 1099.64 2181.73 1099.41 2176.92 1099.41C2170.88 1099.41 2164.67 1099.64 2158.31 1100.11C2151.95 1100.73 2145.52 1101.04 2139 1101.04C2137.92 1101.04 2136.44 1101.12 2134.58 1101.27C2132.72 1101.58 2131.01 1101.74 2129.46 1101.74C2126.98 1101.74 2124.81 1101.35 2122.95 1100.57C2121.24 1099.8 2120.39 1098.32 2120.39 1096.15Z" fill="white"/>
<path d="M1921.01 1007.97C1921.01 1016.81 1922.79 1025.34 1926.36 1033.56C1930.08 1041.63 1934.89 1048.84 1940.78 1055.2C1942.64 1057.06 1944.5 1059.15 1946.37 1061.48C1948.23 1063.81 1950.17 1066.05 1952.18 1068.23C1954.35 1070.4 1956.6 1072.41 1958.93 1074.27C1961.41 1076.14 1964.05 1077.53 1966.84 1078.46L1981.5 1081.72H1983.36H1985.45C1986.85 1081.56 1988.79 1081.41 1991.27 1081.25C1993.75 1081.1 1996.23 1080.94 1998.71 1080.79C2001.19 1080.63 2003.37 1080.48 2005.23 1080.32C2007.09 1080.17 2008.17 1080.09 2008.48 1080.09C2010.81 1079.63 2013.37 1078.46 2016.16 1076.6C2019.11 1074.74 2022.06 1072.65 2025 1070.32C2027.95 1067.84 2030.74 1065.36 2033.38 1062.87C2036.17 1060.24 2038.57 1058.07 2040.59 1056.36C2040.75 1056.36 2040.98 1056.21 2041.29 1055.9C2041.44 1055.74 2041.6 1055.51 2041.75 1055.2C2045.63 1047.13 2048.73 1038.68 2051.06 1029.84C2053.54 1020.84 2054.78 1012.08 2054.78 1003.55C2054.78 996.568 2054.16 990.054 2052.92 984.005C2051.84 977.955 2049.97 971.906 2047.34 965.857C2047.34 965.392 2047.03 964.461 2046.41 963.066C2045.94 961.67 2045.71 960.817 2045.71 960.506C2044.78 956.474 2043.77 952.131 2042.68 947.478C2041.75 942.669 2039.74 938.714 2036.64 935.612C2036.33 935.147 2035.47 934.216 2034.08 932.82C2032.68 931.424 2031.13 929.951 2029.42 928.4C2027.87 926.849 2026.4 925.375 2025 923.979C2023.76 922.583 2023.06 921.653 2022.91 921.188C2022.6 921.032 2022.13 920.645 2021.51 920.024C2021.05 919.249 2020.51 918.473 2019.88 917.698C2019.26 916.922 2018.64 916.224 2018.02 915.604C2017.56 914.828 2017.33 914.363 2017.33 914.208C2016.86 913.898 2016.16 913.277 2015.23 912.347C2014.46 911.261 2013.91 910.563 2013.6 910.253C2013.29 910.253 2012.75 910.098 2011.97 909.787C2011.2 909.322 2010.35 908.857 2009.42 908.391C2008.48 907.926 2007.63 907.538 2006.86 907.228C2006.08 906.763 2005.62 906.53 2005.46 906.53C2004.99 906.22 2003.75 905.832 2001.74 905.367C1999.72 904.902 1997.55 904.436 1995.22 903.971C1993.05 903.506 1990.96 903.118 1988.94 902.808C1987.08 902.342 1985.92 902.032 1985.45 901.877C1984.68 901.877 1983.44 902.032 1981.73 902.342C1980.02 902.498 1978.24 902.808 1976.38 903.273C1974.52 903.583 1972.73 903.893 1971.03 904.204C1969.32 904.514 1967.92 904.747 1966.84 904.902C1964.67 907.073 1962.42 909.089 1960.09 910.951C1957.92 912.657 1955.75 914.441 1953.58 916.302C1951.41 918.008 1949.31 919.869 1947.3 921.885C1945.43 923.747 1943.81 925.918 1942.41 928.4C1942.1 928.865 1941.48 929.873 1940.55 931.424C1939.77 932.975 1938.84 934.682 1937.76 936.543C1936.83 938.404 1935.9 940.11 1934.97 941.661C1934.19 943.212 1933.72 944.143 1933.57 944.453C1932.64 946.314 1931.55 948.331 1930.31 950.502C1929.23 952.518 1928.14 954.69 1927.06 957.016C1925.97 959.343 1925.04 961.747 1924.26 964.229C1923.64 966.555 1923.25 968.804 1923.1 970.976C1922.79 972.682 1922.48 975.396 1922.17 979.119C1922.01 982.841 1921.86 986.719 1921.7 990.752C1921.55 994.629 1921.39 998.274 1921.24 1001.69C1921.08 1004.94 1921.01 1007.04 1921.01 1007.97ZM1880.06 994.009C1880.06 990.752 1880.6 987.494 1881.69 984.237C1882.93 980.98 1883.94 977.8 1884.71 974.698C1884.87 974.078 1885.18 972.372 1885.64 969.58C1886.26 966.633 1886.88 963.531 1887.5 960.274C1888.28 957.016 1888.98 953.992 1889.6 951.2C1890.22 948.408 1890.61 946.702 1890.76 946.082C1891.07 945.151 1891.46 944.22 1891.92 943.29C1892.23 942.514 1892.54 941.739 1892.85 940.963C1893.32 940.033 1893.71 939.335 1894.02 938.869C1895.1 937.318 1896.42 935.147 1897.97 932.355C1899.52 929.563 1901 926.849 1902.39 924.212C1903.94 921.575 1905.26 919.326 1906.35 917.465C1907.59 915.449 1908.37 914.363 1908.68 914.208C1908.83 913.743 1909.45 912.967 1910.54 911.881C1911.62 910.64 1912.79 909.322 1914.03 907.926C1915.42 906.53 1916.74 905.289 1917.98 904.204C1919.22 902.963 1920.23 902.187 1921.01 901.877C1921.32 901.412 1922.17 901.024 1923.57 900.714C1925.12 900.404 1926.05 900.249 1926.36 900.249C1931.01 897.922 1935.43 895.751 1939.62 893.734C1943.81 891.718 1947.99 889.779 1952.18 887.918C1956.52 886.057 1960.95 884.35 1965.44 882.799C1969.94 881.248 1974.9 879.775 1980.33 878.379H1980.57H1981.5C1984.13 878.534 1987.55 878.767 1991.73 879.077C1995.92 879.232 1999.95 879.465 2003.83 879.775C2007.86 879.93 2011.28 880.085 2014.07 880.24C2017.02 880.395 2018.64 880.473 2018.95 880.473C2025.93 881.093 2032.84 883.265 2039.66 886.987C2046.64 890.555 2053.08 895.053 2058.97 900.481C2065.02 905.91 2070.22 911.959 2074.56 918.628C2079.06 925.143 2082.39 931.502 2084.56 937.706C2084.72 937.861 2084.87 938.559 2085.03 939.8C2085.34 940.886 2085.57 942.127 2085.73 943.522C2086.04 944.918 2086.27 946.237 2086.42 947.478C2086.73 948.563 2087.04 949.261 2087.35 949.572C2087.35 949.882 2087.59 950.812 2088.05 952.363C2088.67 953.759 2089.29 955.31 2089.91 957.016C2090.69 958.723 2091.31 960.274 2091.78 961.67C2092.4 963.066 2092.78 963.919 2092.94 964.229C2092.94 964.539 2093.02 964.927 2093.17 965.392C2093.17 965.702 2093.17 966.012 2093.17 966.323C2093.33 966.633 2093.4 966.866 2093.4 967.021C2093.4 969.657 2093.25 972.217 2092.94 974.698C2092.63 977.025 2092.47 979.429 2092.47 981.911C2092.47 983.927 2092.63 985.711 2092.94 987.262C2093.4 988.813 2093.64 990.519 2093.64 992.38V996.335C2091.62 1005.64 2089.68 1014.64 2087.82 1023.32C2085.96 1031.85 2083.32 1039.92 2079.91 1047.52C2076.5 1054.96 2072 1061.87 2066.42 1068.23C2060.83 1074.59 2053.31 1080.17 2043.85 1084.98C2034.7 1089.63 2025.24 1093.28 2015.46 1095.91C2005.85 1098.55 1996 1099.87 1985.92 1099.87C1984.99 1099.87 1983.75 1099.79 1982.19 1099.63C1980.8 1099.63 1979.4 1099.63 1978.01 1099.63C1976.61 1099.63 1975.37 1099.56 1974.28 1099.4C1973.2 1099.4 1972.66 1099.4 1972.66 1099.4C1972.5 1099.4 1971.34 1099.17 1969.17 1098.7C1967.15 1098.08 1964.67 1097.39 1961.72 1096.61C1958.93 1095.83 1956.06 1095.06 1953.11 1094.28C1950.17 1093.35 1947.76 1092.65 1945.9 1092.19C1944.19 1091.72 1942.41 1091.26 1940.55 1090.79C1938.69 1090.33 1936.9 1089.55 1935.2 1088.47C1930.86 1086.14 1926.59 1083.66 1922.4 1081.02C1918.21 1078.39 1914.1 1075.67 1910.07 1072.88C1909.92 1072.57 1909.68 1072.26 1909.37 1071.95C1909.06 1071.48 1908.83 1071.1 1908.68 1070.79C1905.26 1066.6 1901.85 1061.4 1898.44 1055.2C1895.03 1048.84 1891.92 1042.17 1889.13 1035.19C1886.5 1028.05 1884.32 1020.92 1882.62 1013.78C1880.91 1006.49 1880.06 999.903 1880.06 994.009Z" fill="white"/>
<path d="M1605.52 1095.68V1094.29C1606.61 1092.58 1608.01 1090.49 1609.71 1088.01C1611.42 1085.37 1613.36 1083.97 1615.53 1083.82C1616.3 1083.82 1617.62 1083.74 1619.48 1083.59C1621.5 1083.28 1623.52 1083.04 1625.53 1082.89C1627.7 1082.58 1629.64 1082.34 1631.35 1082.19C1633.21 1081.88 1634.53 1081.72 1635.3 1081.72C1635.77 1081.72 1636.31 1081.49 1636.93 1081.03C1637.71 1080.41 1638.48 1079.71 1639.26 1078.93C1640.03 1078.16 1640.73 1077.38 1641.35 1076.61C1641.97 1075.83 1642.36 1075.21 1642.52 1074.74C1642.67 1074.74 1642.83 1074.2 1642.98 1073.12C1643.14 1072.03 1643.29 1070.87 1643.45 1069.63C1643.6 1068.23 1643.76 1066.91 1643.91 1065.67C1644.07 1064.27 1644.15 1063.19 1644.15 1062.41C1644.61 1056.36 1644.84 1050.32 1644.84 1044.27C1645 1038.22 1645.08 1032.17 1645.08 1026.12C1645.08 1022.09 1645 1018.05 1644.84 1014.02C1644.69 1009.83 1644.61 1005.72 1644.61 1001.69C1644.61 990.523 1644.84 979.433 1645.31 968.421C1645.93 957.253 1647.32 946.008 1649.5 934.686L1651.36 822.778C1651.36 821.537 1650.97 819.831 1650.19 817.66C1649.42 815.488 1648.41 813.317 1647.17 811.146C1645.93 808.819 1644.61 806.803 1643.21 805.097C1641.82 803.39 1640.58 802.382 1639.49 802.072C1639.03 801.917 1638.25 801.762 1637.17 801.607C1636.08 801.452 1634.92 801.296 1633.68 801.141C1632.43 800.831 1631.27 800.598 1630.19 800.443C1629.1 800.288 1628.4 800.133 1628.09 799.978C1627.16 799.823 1626 799.513 1624.6 799.047C1623.21 798.582 1621.81 798.039 1620.41 797.419C1619.17 796.643 1618.01 795.79 1616.92 794.86C1615.99 793.929 1615.53 792.843 1615.53 791.602C1615.53 788.656 1616.61 786.407 1618.79 784.855C1620.96 783.149 1623.44 781.831 1626.23 780.9C1629.18 779.97 1632.12 779.272 1635.07 778.806C1638.17 778.341 1640.66 777.721 1642.52 776.945C1644.07 776.325 1646.78 775.161 1650.66 773.455C1654.54 771.594 1658.57 769.655 1662.76 767.639C1667.1 765.468 1671.21 763.451 1675.09 761.59C1678.97 759.729 1681.68 758.41 1683.23 757.635C1685.71 757.945 1687.65 758.643 1689.05 759.729C1690.44 760.814 1691.45 762.21 1692.07 763.916C1692.85 765.623 1693.31 767.561 1693.47 769.733C1693.62 771.904 1693.7 774.076 1693.7 776.247V776.945C1693.7 777.721 1693.62 778.962 1693.47 780.668C1693.31 782.219 1693.08 783.925 1692.77 785.786C1692.62 787.647 1692.38 789.431 1692.07 791.137C1691.76 792.843 1691.53 794.007 1691.37 794.627V799.978C1691.53 801.994 1691.68 805.097 1691.84 809.284C1691.99 813.472 1692.15 818.203 1692.3 823.476C1692.46 828.75 1692.62 834.256 1692.77 839.995C1692.93 845.734 1693.08 851.24 1693.24 856.513C1693.39 861.787 1693.47 866.518 1693.47 870.705C1693.62 874.893 1693.7 877.995 1693.7 880.012C1694.01 881.252 1694.17 883.424 1694.17 886.526C1694.17 889.473 1694.17 892.653 1694.17 896.065C1694.17 899.632 1694.17 902.889 1694.17 905.836C1694.17 908.628 1694.01 910.645 1693.7 911.885C1694.17 912.661 1694.71 913.126 1695.33 913.281C1696.1 913.436 1697.04 913.514 1698.12 913.514C1699.36 913.514 1701.15 912.506 1703.47 910.489C1705.95 908.473 1708.59 906.147 1711.38 903.51C1714.17 900.718 1716.89 898.081 1719.53 895.6C1722.16 892.963 1724.26 891.102 1725.81 890.016C1726.12 890.016 1726.74 889.861 1727.67 889.55C1728.6 889.24 1729.53 888.93 1730.46 888.62C1731.55 888.31 1732.48 887.999 1733.25 887.689C1734.18 887.379 1734.8 887.146 1735.11 886.991C1737.91 885.44 1740.08 884.199 1741.63 883.269C1743.33 882.183 1744.96 881.408 1746.51 880.942C1748.06 880.322 1749.77 879.856 1751.63 879.546C1753.65 879.081 1756.36 878.616 1759.78 878.15C1760.09 878.15 1760.63 878.073 1761.4 877.918C1762.33 877.763 1763.26 877.607 1764.2 877.452C1765.28 877.142 1766.29 876.91 1767.22 876.754C1768.15 876.599 1768.77 876.522 1769.08 876.522C1776.37 876.522 1782.65 877.297 1787.93 878.848C1793.35 880.399 1798.71 883.114 1803.98 886.991C1804.13 887.146 1804.76 887.612 1805.84 888.387C1806.93 889.008 1808.01 889.706 1809.1 890.481C1810.34 891.257 1811.42 892.032 1812.36 892.808C1813.44 893.583 1813.98 894.048 1813.98 894.204C1815.07 894.824 1816.23 896.297 1817.47 898.624C1818.87 900.951 1820.19 903.51 1821.43 906.302C1822.67 908.938 1823.76 911.498 1824.69 913.979C1825.77 916.461 1826.55 918.167 1827.01 919.098V929.567V940.037C1827.01 940.347 1826.78 941.278 1826.31 942.829C1826 944.38 1825.69 945.31 1825.38 945.62V947.249V949.343C1826.78 958.184 1827.71 967.257 1828.18 976.564C1828.64 985.715 1828.87 994.866 1828.87 1004.02C1828.87 1007.89 1828.87 1011.46 1828.87 1014.72C1828.87 1017.98 1828.8 1021.16 1828.64 1024.26C1828.49 1027.36 1828.25 1030.62 1827.94 1034.03C1827.79 1037.29 1827.48 1040.93 1827.01 1044.96C1827.01 1045.27 1826.78 1046.21 1826.31 1047.76C1826 1049.15 1825.69 1050.01 1825.38 1050.32V1055.2V1059.85C1825.38 1063.42 1825.62 1067.07 1826.08 1070.79C1826.7 1074.36 1828.18 1077.07 1830.5 1078.93C1832.21 1078.62 1833.91 1078.39 1835.62 1078.23C1837.33 1077.92 1839.03 1077.77 1840.74 1077.77C1845.55 1077.77 1849.89 1078.78 1853.77 1080.79C1857.65 1082.65 1859.58 1086.3 1859.58 1091.73C1859.58 1092.35 1859.58 1093.28 1859.58 1094.52C1859.58 1095.61 1859.43 1096.15 1859.12 1096.15C1859.12 1096.92 1858.58 1097.7 1857.49 1098.48C1856.56 1099.1 1855.78 1099.41 1855.16 1099.41H1754.19C1753.42 1099.41 1752.95 1098.79 1752.8 1097.54C1752.64 1096.15 1752.56 1095.06 1752.56 1094.29C1752.56 1092.58 1753.03 1090.95 1753.96 1089.4C1755.04 1087.85 1756.29 1086.45 1757.68 1085.21C1760.16 1085.21 1762.64 1085.21 1765.13 1085.21C1767.61 1085.06 1769.93 1084.75 1772.11 1084.28C1774.28 1083.66 1776.14 1082.65 1777.69 1081.26C1779.24 1079.71 1780.25 1077.54 1780.71 1074.74C1780.71 1074.43 1780.79 1073.43 1780.95 1071.72C1781.26 1070.01 1781.49 1068.15 1781.64 1066.14C1781.95 1064.12 1782.19 1062.26 1782.34 1060.55C1782.65 1058.85 1782.89 1057.84 1783.04 1057.53C1783.04 1057.22 1783.2 1056.29 1783.51 1054.74C1783.97 1053.03 1784.2 1051.94 1784.2 1051.48C1784.2 1051.32 1784.2 1050.78 1784.2 1049.85C1784.36 1048.92 1784.51 1047.91 1784.67 1046.83C1784.82 1045.58 1784.9 1044.42 1784.9 1043.34C1785.06 1042.09 1785.13 1041.09 1785.13 1040.31C1785.13 1039.54 1785.06 1038.53 1784.9 1037.29C1784.9 1036.05 1784.82 1034.81 1784.67 1033.56C1784.51 1032.01 1784.36 1030.46 1784.2 1028.91C1784.2 1028.76 1783.97 1027.9 1783.51 1026.35C1783.2 1024.8 1783.04 1023.95 1783.04 1023.79V1020.07C1783.04 1018.36 1783.04 1016.89 1783.04 1015.65C1783.2 1014.41 1783.58 1012.94 1784.2 1011.23C1784.36 1009.68 1784.51 1007.04 1784.67 1003.32C1784.98 999.597 1785.21 995.719 1785.37 991.686C1785.52 987.498 1785.68 983.543 1785.83 979.821C1785.99 976.098 1786.14 973.462 1786.3 971.911C1786.3 970.67 1786.22 968.731 1786.07 966.094C1785.91 963.302 1785.68 960.433 1785.37 957.486C1785.21 954.539 1784.98 951.747 1784.67 949.11C1784.51 946.474 1784.36 944.612 1784.2 943.527C1782.81 942.751 1781.95 941.665 1781.64 940.269C1781.33 938.718 1781.02 937.555 1780.71 936.78C1779.01 932.747 1777.3 929.49 1775.6 927.008C1773.89 924.526 1771.87 922.51 1769.55 920.959C1767.38 919.253 1764.74 917.857 1761.64 916.771C1758.69 915.685 1755.12 914.6 1750.93 913.514C1750.47 913.514 1749.54 913.281 1748.14 912.816C1746.75 912.196 1745.89 911.885 1745.58 911.885C1745.27 911.575 1744.34 911.42 1742.79 911.42C1741.4 911.42 1740.31 911.42 1739.53 911.42C1735.66 911.42 1731.7 911.73 1727.67 912.351C1723.64 912.971 1719.76 913.979 1716.04 915.375C1712.31 916.771 1708.82 918.632 1705.57 920.959C1702.31 923.286 1699.44 926.155 1696.96 929.567C1696.49 930.343 1696.03 931.816 1695.56 933.988C1695.1 936.004 1694.55 938.098 1693.93 940.269C1693.47 942.441 1692.93 944.457 1692.3 946.318C1691.68 948.025 1691.06 949.033 1690.44 949.343L1686.95 964.466V1078.93C1688.66 1079.71 1690.21 1080.56 1691.61 1081.49C1693 1082.42 1694.4 1083.28 1695.79 1084.05H1720.69C1721.31 1084.05 1721.85 1084.52 1722.32 1085.45C1722.94 1086.22 1723.4 1087.15 1723.71 1088.24C1724.02 1089.32 1724.26 1090.41 1724.41 1091.5C1724.57 1092.58 1724.64 1093.36 1724.64 1093.82C1724.64 1095.99 1723.64 1097.85 1721.62 1099.41C1719.6 1100.8 1717.66 1101.5 1715.8 1101.5H1713.48C1713.17 1101.5 1712.47 1101.42 1711.38 1101.27C1710.3 1101.11 1709.13 1100.88 1707.89 1100.57C1706.81 1100.41 1705.72 1100.18 1704.64 1099.87C1703.71 1099.72 1703.16 1099.56 1703.01 1099.41H1679.28C1669.97 1099.41 1660.59 1099.72 1651.12 1100.34C1641.82 1101.11 1632.43 1101.5 1622.97 1101.5H1610.88C1610.41 1101.19 1609.48 1100.34 1608.08 1098.94C1606.69 1097.54 1605.83 1096.61 1605.52 1096.15V1095.68Z" fill="white"/>
<path d="M1470.58 1069.16C1474.77 1070.55 1478.26 1072.1 1481.05 1073.81C1484 1075.52 1487.49 1076.37 1491.52 1076.37H1497.57C1498.04 1076.21 1498.97 1075.83 1500.36 1075.21C1501.76 1074.43 1503.23 1073.65 1504.78 1072.88C1506.49 1072.1 1507.96 1071.41 1509.2 1070.78C1510.6 1070.01 1511.53 1069.47 1512 1069.16C1512.15 1069.16 1512.62 1069 1513.39 1068.69C1514.17 1068.23 1515.02 1067.76 1515.95 1067.3C1517.04 1066.83 1518.05 1066.44 1518.98 1066.13C1519.91 1065.67 1520.53 1065.36 1520.84 1065.2C1520.99 1065.05 1521.46 1064.58 1522.23 1063.81C1523.16 1062.87 1524.17 1061.87 1525.26 1060.78C1526.5 1059.7 1527.66 1058.61 1528.75 1057.52C1529.83 1056.44 1530.69 1055.66 1531.31 1055.2C1531.31 1054.89 1531.62 1054.27 1532.24 1053.34C1532.86 1052.25 1533.17 1051.47 1533.17 1051.01C1533.32 1050.85 1533.48 1050.16 1533.63 1048.92C1533.79 1047.67 1533.94 1046.36 1534.1 1044.96C1534.25 1043.56 1534.41 1042.25 1534.56 1041.01C1534.87 1039.76 1535.11 1038.99 1535.26 1038.68C1535.26 1038.52 1535.49 1038.06 1535.96 1037.28C1536.43 1036.51 1536.97 1035.65 1537.59 1034.72C1538.21 1033.79 1538.83 1032.86 1539.45 1031.93C1540.07 1031 1540.54 1030.38 1540.85 1030.07C1542.09 1026.97 1542.86 1023.87 1543.17 1020.76C1543.48 1017.51 1543.64 1014.33 1543.64 1011.23V1002.85C1543.64 994.009 1543.33 985.323 1542.71 976.792C1542.24 968.261 1541.62 960.041 1540.85 952.131C1539.45 948.718 1538.29 945.384 1537.36 942.126C1536.58 938.869 1535.65 935.767 1534.56 932.82C1533.48 929.718 1532.16 926.771 1530.61 923.979C1529.21 921.187 1527.12 918.473 1524.33 915.836C1520.6 912.424 1517.11 909.4 1513.86 906.763C1510.76 904.126 1507.5 901.955 1504.09 900.248C1500.83 898.542 1497.18 897.224 1493.15 896.293C1489.27 895.363 1484.7 894.897 1479.42 894.897H1478.03C1477.41 895.208 1476.4 895.673 1475 896.293C1473.61 896.914 1472.13 897.612 1470.58 898.387C1469.03 899.163 1467.56 899.938 1466.16 900.714C1464.92 901.334 1464.07 901.722 1463.6 901.877C1460.97 903.428 1458.95 905.134 1457.56 906.995C1456.31 908.702 1455.38 910.563 1454.76 912.579C1454.14 914.596 1453.76 916.767 1453.6 919.094C1453.44 921.42 1453.13 923.979 1452.67 926.771C1452.67 927.702 1452.44 929.485 1451.97 932.122C1451.51 934.604 1450.96 937.241 1450.34 940.033C1449.88 942.824 1449.33 945.539 1448.71 948.175C1448.25 950.657 1447.86 952.363 1447.55 953.294C1447.71 953.604 1447.86 954.225 1448.02 955.155C1448.33 955.931 1448.56 956.861 1448.71 957.947C1449.02 958.878 1449.26 959.808 1449.41 960.739C1449.57 961.514 1449.64 961.98 1449.64 962.135C1449.64 963.221 1449.72 965.47 1449.88 968.882C1450.03 972.139 1450.19 975.706 1450.34 979.584C1450.5 983.306 1450.65 986.951 1450.81 990.519C1451.12 993.931 1451.35 996.413 1451.51 997.964V1037.05C1451.66 1037.52 1451.97 1038.37 1452.44 1039.61C1452.9 1040.69 1453.37 1041.94 1453.83 1043.33C1454.45 1044.73 1455 1046.05 1455.46 1047.29C1456.08 1048.53 1456.55 1049.38 1456.86 1049.85C1457.01 1050 1457.09 1050.31 1457.09 1050.78C1457.24 1051.09 1457.48 1051.4 1457.79 1051.71C1457.94 1052.17 1458.18 1052.64 1458.49 1053.1C1458.95 1053.72 1459.73 1054.81 1460.81 1056.36C1462.05 1057.91 1463.29 1059.62 1464.53 1061.48C1465.93 1063.18 1467.17 1064.81 1468.26 1066.36C1469.34 1067.76 1470.12 1068.69 1470.58 1069.16ZM1359.84 1209.22C1359.84 1208.9 1359.92 1208.36 1360.07 1207.59C1360.23 1206.97 1360.31 1206.42 1360.31 1205.96C1361.39 1203.48 1362.86 1201.46 1364.73 1199.91C1366.43 1198.51 1368.29 1197.43 1370.31 1196.65C1372.48 1196.03 1374.73 1195.64 1377.06 1195.49C1379.38 1195.33 1381.71 1195.26 1384.04 1195.26C1389.31 1195.26 1393.96 1194.95 1398 1194.33C1402.18 1193.86 1404.59 1192 1405.21 1188.74C1405.67 1185.48 1405.91 1182.23 1405.91 1178.97C1406.06 1175.71 1406.14 1172.15 1406.14 1168.27C1406.14 1164.39 1406.45 1160.9 1407.07 1157.8C1407.69 1154.7 1408.31 1151.36 1408.93 1147.79V1031.7C1408.93 1031.08 1409.01 1030.15 1409.16 1028.91C1409.32 1027.51 1409.4 1026.12 1409.4 1024.72C1409.55 1023.17 1409.71 1021.77 1409.86 1020.53C1410.02 1019.14 1410.09 1018.2 1410.09 1017.74V1015.65V1014.02C1410.09 1013.55 1410.02 1012.16 1409.86 1009.83C1409.71 1007.5 1409.55 1005.02 1409.4 1002.38C1409.4 999.747 1409.32 997.266 1409.16 994.939C1409.01 992.458 1408.93 990.907 1408.93 990.286V970.976C1408.62 969.89 1408.39 968.029 1408.23 965.392C1408.08 962.755 1407.92 960.041 1407.77 957.249C1407.61 954.457 1407.46 951.82 1407.3 949.339C1407.15 946.857 1406.99 945.229 1406.84 944.453C1406.22 939.179 1404.66 935.069 1402.18 932.122C1399.86 929.02 1396.06 926.539 1390.78 924.677C1390.01 924.522 1388.69 924.29 1386.83 923.979C1384.97 923.514 1383.03 923.126 1381.01 922.816C1379 922.351 1377.06 921.963 1375.2 921.653C1373.33 921.343 1372.09 921.187 1371.47 921.187C1370.23 921.187 1369.53 920.877 1369.38 920.257C1369.22 919.481 1369.15 918.706 1369.15 917.93C1369.15 914.828 1370.15 912.424 1372.17 910.718C1374.19 908.857 1376.51 907.383 1379.15 906.297C1381.94 905.212 1384.73 904.436 1387.53 903.971C1390.47 903.351 1392.8 902.653 1394.51 901.877C1394.51 901.877 1394.82 901.644 1395.44 901.179C1396.21 900.559 1396.99 899.938 1397.76 899.318C1398.54 898.697 1399.24 898.077 1399.86 897.457C1400.63 896.836 1401.1 896.371 1401.25 896.061C1401.72 895.75 1402.73 895.208 1404.28 894.432C1405.98 893.657 1407.77 892.881 1409.63 892.106C1411.49 891.175 1413.2 890.322 1414.75 889.546C1416.45 888.771 1417.69 888.15 1418.47 887.685C1420.64 886.599 1422.11 885.979 1422.89 885.824C1423.82 885.514 1424.91 885.358 1426.15 885.358C1428.32 885.358 1430.1 885.901 1431.5 886.987C1433.05 887.918 1434.44 889.003 1435.69 890.244C1437.08 891.33 1438.48 892.416 1439.87 893.501C1441.42 894.432 1443.21 894.897 1445.22 894.897C1448.95 894.897 1452.13 894.044 1454.76 892.338C1457.56 890.477 1460.5 888.926 1463.6 887.685C1466.71 886.444 1469.65 885.203 1472.45 883.963C1475.39 882.567 1478.26 881.326 1481.05 880.24C1484 879.154 1486.95 878.301 1489.89 877.681C1493 876.905 1496.33 876.518 1499.9 876.518C1500.98 876.518 1502.54 876.595 1504.55 876.75C1506.72 876.75 1507.81 876.905 1507.81 877.216C1508.12 877.216 1508.74 877.371 1509.67 877.681C1510.76 877.836 1511.84 878.069 1512.93 878.379C1514.01 878.689 1514.94 878.999 1515.72 879.309C1516.65 879.62 1517.11 879.852 1517.11 880.007C1517.27 880.007 1517.81 880.007 1518.74 880.007C1519.67 880.007 1520.6 880.007 1521.54 880.007C1522.62 880.007 1523.63 880.085 1524.56 880.24C1525.49 880.24 1526.11 880.318 1526.42 880.473C1528.9 880.783 1531.31 882.024 1533.63 884.195C1536.12 886.212 1538.52 887.918 1540.85 889.314C1540.85 889.469 1541.16 889.779 1541.78 890.244C1542.55 890.71 1543.41 891.252 1544.34 891.873C1545.27 892.493 1546.2 893.114 1547.13 893.734C1548.21 894.199 1548.99 894.587 1549.45 894.897C1553.8 897.224 1557.67 900.248 1561.09 903.971C1564.5 907.538 1567.6 911.493 1570.39 915.836C1573.34 920.024 1575.98 924.445 1578.3 929.098C1580.63 933.596 1582.8 938.016 1584.82 942.359C1585.13 943.135 1585.44 944.065 1585.75 945.151C1586.21 946.082 1586.6 947.09 1586.91 948.175C1587.38 949.106 1587.69 949.959 1587.84 950.735C1588.15 951.51 1588.31 951.976 1588.31 952.131C1588.46 952.131 1588.54 952.518 1588.54 953.294C1588.7 954.069 1588.77 955 1588.77 956.086C1588.77 957.172 1588.77 958.335 1588.77 959.576C1588.77 960.816 1588.77 961.825 1588.77 962.6C1588.77 963.376 1588.77 964.384 1588.77 965.625C1588.77 966.865 1588.77 968.184 1588.77 969.58C1588.77 970.821 1588.7 971.984 1588.54 973.07C1588.54 974 1588.46 974.543 1588.31 974.698C1588.31 975.008 1588.07 975.939 1587.61 977.49C1587.14 978.886 1586.91 979.817 1586.91 980.282V990.286C1586.91 990.751 1586.6 991.915 1585.98 993.776C1585.52 995.482 1585.13 996.878 1584.82 997.964C1584.66 998.274 1584.43 998.972 1584.12 1000.06C1583.81 1000.99 1583.42 1002.07 1582.96 1003.31C1582.65 1004.4 1582.34 1005.49 1582.03 1006.57C1581.72 1007.5 1581.56 1008.12 1581.56 1008.43C1581.41 1009.05 1581.1 1010.45 1580.63 1012.62C1580.32 1014.79 1579.93 1017.12 1579.47 1019.6C1579.16 1021.93 1578.85 1024.18 1578.54 1026.35C1578.23 1028.36 1578.07 1029.6 1578.07 1030.07C1577.3 1033.17 1576.29 1035.65 1575.05 1037.52C1573.96 1039.22 1572.41 1041.63 1570.39 1044.73C1566.05 1052.17 1561.55 1058.76 1556.9 1064.5C1552.4 1070.24 1547.36 1075.05 1541.78 1078.93C1536.19 1082.65 1529.91 1085.52 1522.93 1087.54C1515.95 1089.55 1507.89 1090.56 1498.74 1090.56C1495.01 1090.56 1491.29 1090.33 1487.57 1089.86C1484 1089.24 1480.36 1088.62 1476.63 1088C1473.07 1087.23 1469.42 1086.53 1465.7 1085.91C1461.98 1085.29 1458.18 1084.98 1454.3 1084.98H1451.51C1450.89 1085.29 1450.42 1085.99 1450.11 1087.07C1449.8 1088 1449.64 1088.62 1449.64 1088.93C1449.18 1094.36 1448.79 1099.4 1448.48 1104.05C1448.17 1108.86 1447.94 1113.59 1447.78 1118.25C1447.63 1123.05 1447.55 1127.86 1447.55 1132.67C1447.55 1137.63 1447.55 1142.91 1447.55 1148.49V1177.57C1447.55 1182.07 1448.48 1185.41 1450.34 1187.58C1452.2 1189.75 1454.92 1191.92 1458.49 1194.09C1458.95 1194.25 1459.65 1194.48 1460.58 1194.79C1461.67 1195.26 1463.22 1195.64 1465.23 1195.95C1467.25 1196.42 1469.96 1196.81 1473.38 1197.12C1476.79 1197.43 1481.21 1197.58 1486.64 1197.58C1487.57 1197.89 1488.34 1198.28 1488.96 1198.75C1489.58 1199.06 1490.2 1199.37 1490.82 1199.68C1491.45 1200.14 1492.07 1200.53 1492.69 1200.84C1493.46 1201.61 1493.93 1202.24 1494.08 1202.7C1494.24 1203.17 1494.31 1203.79 1494.31 1204.56V1207.35C1494.31 1207.51 1494.16 1208.13 1493.85 1209.22C1493.54 1210.3 1493.38 1211 1493.38 1211.31C1490.75 1213.33 1488.19 1214.57 1485.71 1215.03C1483.22 1215.5 1480.43 1215.73 1477.33 1215.73C1473.14 1215.73 1469.03 1215.34 1465 1214.57C1461.12 1213.95 1457.01 1213.64 1452.67 1213.64H1449.64C1449.18 1213.64 1447.94 1213.71 1445.92 1213.87C1444.06 1214.02 1441.97 1214.18 1439.64 1214.33C1437.47 1214.64 1435.38 1214.88 1433.36 1215.03C1431.5 1215.19 1430.33 1215.26 1429.87 1215.26H1418.24H1386.83C1386.36 1215.26 1385.35 1215.34 1383.8 1215.5C1382.41 1215.65 1380.86 1215.81 1379.15 1215.96C1377.44 1216.27 1375.82 1216.5 1374.26 1216.66C1372.87 1216.82 1371.94 1216.89 1371.47 1216.89H1369.15H1367.52C1367.05 1216.74 1366.51 1216.43 1365.89 1215.96C1365.11 1215.5 1364.34 1214.95 1363.56 1214.33C1362.79 1213.71 1362.09 1213.09 1361.47 1212.47C1360.85 1212.01 1360.46 1211.62 1360.31 1211.31C1360.15 1211 1360.07 1210.69 1360.07 1210.38C1359.92 1210.07 1359.84 1209.68 1359.84 1209.22Z" fill="white"/>
<path d="M1118.81 1099.4C1116.8 1099.09 1115.09 1098.24 1113.69 1096.85C1112.3 1095.29 1111.6 1093.36 1111.6 1091.03C1111.6 1090.25 1111.91 1089.09 1112.53 1087.54C1113.31 1085.99 1114.78 1084.83 1116.95 1084.05C1120.05 1083.74 1123.23 1083.35 1126.49 1082.89C1129.75 1082.42 1133 1082.03 1136.26 1081.72C1136.57 1081.72 1136.88 1081.57 1137.19 1081.26C1137.66 1080.95 1137.97 1080.71 1138.12 1080.56C1140.45 1077.61 1142 1074.59 1142.78 1071.49C1143.55 1068.38 1144.02 1065.28 1144.17 1062.18C1144.48 1059.08 1144.64 1055.98 1144.64 1052.87C1144.64 1049.62 1144.95 1046.36 1145.57 1043.1C1145.57 1042.64 1145.72 1041.71 1146.03 1040.31C1146.5 1038.91 1146.96 1037.44 1147.43 1035.89C1148.05 1034.18 1148.51 1032.71 1148.82 1031.47C1149.29 1030.07 1149.52 1029.22 1149.52 1028.91V1003.55C1149.52 1003.4 1149.68 1002.54 1149.99 1000.99C1150.45 999.44 1150.69 998.432 1150.69 997.967L1150.92 997.734C1150.92 997.579 1150.92 997.502 1150.92 997.502C1151.07 997.502 1151.15 997.424 1151.15 997.269C1151 997.269 1150.92 997.191 1150.92 997.036C1150.76 996.881 1150.69 996.649 1150.69 996.338C1150.69 996.028 1150.45 995.175 1149.99 993.779C1149.68 992.228 1149.52 991.375 1149.52 991.22V973.073C1149.52 972.608 1149.37 971.522 1149.06 969.816C1148.9 968.11 1148.67 966.248 1148.36 964.232C1148.05 962.216 1147.74 960.354 1147.43 958.648C1147.27 956.942 1147.2 955.856 1147.2 955.391V939.57C1147.04 937.554 1146.27 934.84 1144.87 931.428C1143.63 928.015 1142 924.603 1139.98 921.191C1138.12 917.778 1135.95 914.754 1133.47 912.117C1130.99 909.325 1128.58 907.619 1126.26 906.999C1125.48 906.999 1124.16 907.076 1122.3 907.231C1120.44 907.386 1118.66 907.464 1116.95 907.464C1116.18 907.464 1115.4 907.386 1114.62 907.231C1114 907.076 1113.54 906.999 1113.23 906.999C1112.92 906.999 1112.07 906.844 1110.67 906.533C1109.43 906.068 1108.65 905.835 1108.34 905.835C1108.03 905.835 1107.41 905.913 1106.48 906.068C1105.71 906.068 1104.85 906.146 1103.92 906.301C1102.99 906.456 1102.06 906.611 1101.13 906.766C1100.35 906.766 1099.73 906.844 1099.27 906.999C1093.38 908.86 1087.95 910.954 1082.98 913.28C1078.02 915.607 1072.67 918.244 1066.93 921.191C1065.53 922.121 1064.06 923.672 1062.51 925.844C1061.11 927.86 1059.72 930.187 1058.32 932.823C1057.08 935.305 1055.92 937.864 1054.83 940.501C1053.75 942.983 1052.97 944.999 1052.51 946.55C1052.35 947.326 1052.12 948.566 1051.81 950.273C1051.5 951.824 1051.19 953.452 1050.88 955.158C1050.57 956.865 1050.26 958.493 1049.95 960.044C1049.79 961.595 1049.71 962.603 1049.71 963.069V983.542C1049.71 984.163 1049.64 985.249 1049.48 986.8C1049.33 988.351 1049.09 990.057 1048.78 991.918C1048.47 993.624 1048.16 995.33 1047.85 997.036C1047.54 998.587 1047.31 999.596 1047.15 1000.06V1006.34V1012.39C1047.62 1015.65 1048.01 1018.29 1048.32 1020.3C1048.63 1022.16 1048.86 1023.95 1049.02 1025.65C1049.33 1027.36 1049.48 1029.22 1049.48 1031.24C1049.64 1033.1 1049.71 1035.73 1049.71 1039.15V1071.25C1050.02 1074.82 1051.11 1077.46 1052.97 1079.16C1054.83 1080.71 1057 1081.88 1059.48 1082.65C1062.12 1083.27 1064.84 1083.74 1067.63 1084.05C1070.57 1084.2 1073.21 1084.51 1075.54 1084.98C1077.55 1085.29 1079.26 1085.83 1080.66 1086.61C1082.21 1087.23 1083.14 1089.09 1083.45 1092.19V1096.15C1083.45 1097.39 1082.83 1098.24 1081.59 1098.71C1080.81 1098.71 1079.65 1098.71 1078.1 1098.71C1076.7 1098.55 1075.23 1098.47 1073.68 1098.47C1072.13 1098.47 1070.65 1098.47 1069.26 1098.47C1067.86 1098.32 1066.85 1098.24 1066.23 1098.24C1062.35 1098.24 1058.79 1098.32 1055.53 1098.47C1052.43 1098.63 1049.33 1098.78 1046.22 1098.94C1043.12 1098.94 1039.94 1099.02 1036.68 1099.17C1033.43 1099.33 1029.86 1099.4 1025.98 1099.4C1019 1099.4 1012.26 1099.25 1005.74 1098.94C999.382 1098.47 992.713 1098.24 985.733 1098.24C984.492 1098.24 983.096 1098.32 981.545 1098.47C980.149 1098.63 978.676 1098.71 977.125 1098.71C975.884 1097.93 975.109 1097.08 974.798 1096.15C974.488 1095.22 974.333 1094.05 974.333 1092.66C974.333 1091.88 974.411 1090.95 974.566 1089.87C974.721 1088.78 975.341 1087.93 976.427 1087.31C977.668 1087 978.831 1086.69 979.917 1086.38C980.847 1086.07 981.778 1085.83 982.709 1085.68C983.794 1085.52 984.647 1085.37 985.268 1085.21C988.525 1084.9 991.627 1084.36 994.574 1083.58C997.521 1082.65 1000.08 1081.41 1002.25 1079.86C1004.58 1078.31 1006.44 1076.29 1007.84 1073.81C1009.23 1071.18 1009.93 1068 1009.93 1064.27V1034.49C1009.93 1028.6 1010.24 1023.48 1010.86 1019.14C1011.48 1014.8 1011.79 1010.14 1011.79 1005.18C1011.79 1003.16 1011.71 1001.3 1011.56 999.596C1011.56 997.734 1011.56 995.951 1011.56 994.245C1011.56 993.469 1011.56 992.693 1011.56 991.918C1011.56 991.142 1011.64 990.367 1011.79 989.591C1012.1 988.971 1012.49 987.73 1012.95 985.869C1013.57 983.853 1013.88 982.534 1013.88 981.914V964.465V949.575L1011.79 943.293C1011.17 941.587 1010.55 939.881 1009.93 938.175C1009.31 936.468 1008.84 935.072 1008.53 933.987C1007.6 931.815 1006.05 929.799 1003.88 927.938C1001.86 926.076 999.692 924.293 997.366 922.587C995.194 920.88 993.256 919.252 991.55 917.701C989.843 915.995 988.99 914.289 988.99 912.582C988.99 910.876 989.378 909.635 990.154 908.86C991.084 907.929 992.403 906.921 994.109 905.835C1000.62 900.872 1007.45 895.986 1014.58 891.178C1021.87 886.215 1029.32 881.949 1036.92 878.382H1039.71C1040.64 878.382 1041.65 878.46 1042.73 878.615C1043.97 878.77 1044.98 879.39 1045.76 880.476C1046.53 881.251 1047.39 882.57 1048.32 884.431C1049.25 886.292 1049.71 887.378 1049.71 887.688V919.097C1050.02 919.097 1050.8 919.252 1052.04 919.562C1053.28 919.717 1054.13 919.795 1054.6 919.795C1058.79 918.709 1062.51 917.003 1065.77 914.676C1069.02 912.35 1072.13 909.868 1075.07 907.231C1078.17 904.439 1081.2 901.648 1084.15 898.856C1087.09 896.064 1090.35 893.582 1093.92 891.411C1094.38 891.101 1095.31 890.79 1096.71 890.48C1098.11 890.015 1098.96 889.627 1099.27 889.317C1101.91 888.386 1104.54 887.223 1107.18 885.827C1109.97 884.276 1112.76 882.88 1115.55 881.639C1118.5 880.398 1121.45 879.313 1124.4 878.382C1127.34 877.451 1130.37 877.064 1133.47 877.219C1133.93 877.219 1135.1 877.374 1136.96 877.684C1138.82 877.839 1140.84 878.149 1143.01 878.615C1145.33 878.925 1147.58 879.313 1149.76 879.778C1151.93 880.088 1153.56 880.321 1154.64 880.476C1158.36 881.407 1161.39 882.57 1163.71 883.966C1166.2 885.362 1168.37 887.068 1170.23 889.084C1172.09 890.945 1173.87 893.117 1175.58 895.599C1177.29 898.08 1179.22 900.795 1181.4 903.742C1182.33 905.293 1183.03 907.154 1183.49 909.325C1183.96 911.342 1184.5 913.28 1185.12 915.142C1185.74 917.003 1186.59 918.631 1187.68 920.027C1188.76 921.268 1190.39 921.889 1192.56 921.889C1192.87 921.889 1193.34 921.811 1193.96 921.656C1194.74 921.346 1195.36 921.191 1195.82 921.191C1198.92 917.623 1202.26 914.211 1205.83 910.954C1209.55 907.697 1213.19 904.75 1216.76 902.113C1217.07 902.113 1217.61 901.88 1218.39 901.415C1219.32 900.95 1219.94 900.562 1220.25 900.252C1224.9 898.39 1229.25 896.064 1233.28 893.272C1237.47 890.48 1242.04 888.076 1247.01 886.06C1247.63 885.749 1248.56 885.439 1249.8 885.129C1251.19 884.819 1252.12 884.431 1252.59 883.966C1253.05 883.966 1254.14 883.888 1255.85 883.733C1257.71 883.423 1259.72 883.113 1261.9 882.803C1264.22 882.337 1266.47 881.949 1268.64 881.639C1270.81 881.174 1272.44 880.786 1273.53 880.476H1274.69C1283.07 880.476 1290.28 881.717 1296.33 884.198C1302.38 886.525 1307.42 889.782 1311.45 893.97C1315.48 898.158 1318.66 903.044 1320.99 908.627C1323.47 914.211 1325.26 920.183 1326.34 926.542C1327.58 932.746 1328.36 939.26 1328.67 946.085C1329.13 952.909 1329.37 959.579 1329.37 966.093V985.869C1329.37 993.314 1329.06 1000.84 1328.43 1008.44C1327.81 1016.04 1327.5 1023.71 1327.5 1031.47V1040.54C1327.5 1041.94 1327.58 1044.5 1327.74 1048.22C1327.89 1051.79 1328.05 1055.59 1328.2 1059.62C1328.36 1063.65 1328.51 1067.53 1328.67 1071.25C1328.82 1074.82 1328.9 1077.38 1328.9 1078.93C1329.37 1079.09 1330.06 1079.32 1330.99 1079.63C1332.08 1079.94 1333.17 1080.25 1334.25 1080.56C1335.49 1080.87 1336.58 1081.18 1337.51 1081.49C1338.44 1081.65 1339.06 1081.72 1339.37 1081.72C1340.15 1082.03 1341.23 1082.34 1342.63 1082.65C1344.18 1082.96 1345.57 1083.35 1346.81 1083.82C1347.59 1083.97 1348.91 1084.36 1350.77 1084.98C1352.63 1085.45 1353.95 1086.22 1354.72 1087.31C1355.04 1087.77 1355.27 1088.31 1355.42 1088.94C1355.73 1089.4 1356.04 1089.94 1356.35 1090.56C1356.66 1091.18 1356.97 1091.88 1357.28 1092.66C1357.28 1093.9 1356.59 1094.98 1355.19 1095.92C1353.95 1096.85 1352.48 1097.62 1350.77 1098.24C1349.06 1098.86 1347.36 1099.33 1345.65 1099.64C1344.1 1099.95 1343.01 1100.1 1342.39 1100.1C1341.31 1100.1 1340.53 1100.03 1340.07 1099.87C1339.6 1099.87 1338.98 1099.72 1338.21 1099.4C1337.59 1099.09 1336.35 1098.86 1334.48 1098.71C1332.62 1098.4 1331.3 1098.24 1330.53 1098.24C1330.53 1098.24 1329.91 1098.24 1328.67 1098.24C1327.43 1098.09 1325.95 1098.01 1324.25 1098.01C1322.7 1098.01 1321.07 1098.01 1319.36 1098.01C1317.66 1097.85 1316.18 1097.78 1314.94 1097.78C1307.03 1097.78 1299.28 1098.16 1291.68 1098.94C1284.08 1099.72 1276.24 1100.1 1268.18 1100.1C1267.71 1100.1 1266.78 1100.03 1265.39 1099.87C1264.14 1099.87 1262.75 1099.79 1261.2 1099.64C1259.65 1099.64 1258.17 1099.56 1256.78 1099.4C1255.54 1099.4 1254.68 1099.4 1254.22 1099.4C1252.51 1099.09 1251.5 1098.4 1251.19 1097.31C1251.04 1096.07 1250.96 1094.75 1250.96 1093.36C1250.96 1090.41 1251.97 1088.39 1253.98 1087.31C1256.16 1086.07 1258.64 1085.14 1261.43 1084.51C1264.38 1083.89 1267.48 1083.27 1270.74 1082.65C1273.99 1082.03 1276.79 1080.79 1279.11 1078.93C1279.89 1077.69 1280.97 1076.45 1282.37 1075.21C1283.92 1073.97 1284.7 1073.19 1284.7 1072.88C1284.7 1072.57 1284.77 1072.18 1284.93 1071.72C1285.08 1071.25 1285.16 1070.71 1285.16 1070.09C1285.16 1068.38 1285.08 1066.76 1284.93 1065.2C1284.77 1063.65 1284.7 1062.72 1284.7 1062.41C1284.7 1061.64 1284.85 1059.62 1285.16 1056.36C1285.47 1052.95 1285.86 1049.31 1286.32 1045.43C1286.79 1041.55 1287.18 1037.98 1287.49 1034.73C1287.8 1031.47 1287.95 1029.53 1287.95 1028.91C1287.95 1028.6 1287.95 1027.44 1287.95 1025.42C1288.11 1023.25 1288.19 1020.77 1288.19 1017.98C1288.19 1015.18 1288.19 1012.39 1288.19 1009.6C1288.34 1006.81 1288.42 1004.56 1288.42 1002.85C1288.42 1000.99 1288.34 998.432 1288.19 995.175C1288.19 991.918 1288.19 988.738 1288.19 985.636C1288.19 982.379 1288.11 979.587 1287.95 977.261C1287.95 974.779 1287.95 973.383 1287.95 973.073C1287.95 972.608 1287.88 971.522 1287.72 969.816C1287.56 968.11 1287.41 966.248 1287.25 964.232C1287.25 962.216 1287.18 960.354 1287.02 958.648C1286.87 956.942 1286.79 955.856 1286.79 955.391V954.46C1286.79 952.754 1286.94 951.203 1287.25 949.807C1287.72 948.256 1287.95 946.628 1287.95 944.922C1287.95 942.75 1287.49 940.734 1286.56 938.873C1285.78 937.011 1284.7 935.228 1283.3 933.521C1282.06 931.66 1280.74 929.954 1279.34 928.403C1277.95 926.852 1276.79 925.223 1275.85 923.517C1271.36 917.468 1266.32 913.591 1260.73 911.884C1255.15 910.178 1248.56 909.325 1240.96 909.325C1237.23 909.325 1233.12 910.566 1228.63 913.048C1224.28 915.529 1220.33 917.778 1216.76 919.795C1216.45 920.105 1215.6 920.648 1214.2 921.423C1212.8 922.044 1211.25 922.742 1209.55 923.517C1208 924.293 1206.52 925.068 1205.13 925.844C1203.73 926.619 1202.88 927.085 1202.57 927.24C1200.24 928.636 1198.3 930.497 1196.75 932.823C1195.2 935.15 1193.96 937.709 1193.03 940.501C1192.1 943.293 1191.4 946.162 1190.94 949.109C1190.47 951.901 1190.08 954.538 1189.77 957.02C1189.62 958.26 1189.46 960.277 1189.31 963.069C1189.15 965.861 1189 968.808 1188.84 971.91C1188.84 974.857 1188.76 977.726 1188.61 980.518C1188.45 983.155 1188.3 984.938 1188.14 985.869C1188.14 986.334 1188.14 987.187 1188.14 988.428C1188.3 989.669 1188.38 991.22 1188.38 993.081C1188.38 994.787 1188.38 996.649 1188.38 998.665C1188.53 1000.68 1188.61 1002.7 1188.61 1004.71C1188.61 1007.51 1188.53 1009.83 1188.38 1011.69C1188.38 1013.4 1188.3 1014.95 1188.14 1016.35C1187.99 1017.74 1187.76 1019.22 1187.45 1020.77C1187.29 1022.16 1186.98 1024.1 1186.51 1026.58V1028.91C1186.51 1030.46 1186.59 1033.33 1186.75 1037.52C1186.9 1041.55 1187.06 1045.89 1187.21 1050.55C1187.52 1055.2 1187.76 1059.7 1187.91 1064.04C1188.07 1068.23 1188.14 1071.18 1188.14 1072.88C1188.3 1073.97 1188.76 1075.05 1189.54 1076.14C1190.31 1077.23 1191.17 1078.16 1192.1 1078.93C1193.18 1079.71 1194.27 1080.4 1195.36 1081.03C1196.6 1081.49 1197.68 1081.72 1198.61 1081.72C1199.39 1081.88 1200.63 1082.11 1202.34 1082.42C1204.2 1082.58 1206.06 1082.81 1207.92 1083.12C1209.78 1083.27 1211.56 1083.43 1213.27 1083.58C1214.98 1083.74 1216.14 1083.82 1216.76 1083.82C1217.54 1083.97 1218.54 1084.83 1219.78 1086.38C1221.03 1087.77 1221.72 1088.78 1221.88 1089.4C1221.88 1089.71 1221.96 1090.02 1222.11 1090.33V1091.03C1222.11 1091.18 1222.19 1091.26 1222.34 1091.26C1222.34 1093.74 1221.65 1095.68 1220.25 1097.08C1219.01 1098.32 1217.46 1099.25 1215.6 1099.87C1213.74 1100.65 1211.72 1101.11 1209.55 1101.27C1207.38 1101.42 1205.44 1101.5 1203.73 1101.5H1197.45C1196.83 1101.5 1195.36 1101.34 1193.03 1101.03C1190.7 1100.88 1188.22 1100.65 1185.58 1100.34C1183.1 1100.18 1180.7 1099.95 1178.37 1099.64C1176.05 1099.48 1174.57 1099.4 1173.95 1099.4H1118.81Z" fill="white"/>
<path d="M750.05 1186.65C750.05 1184.63 750.206 1182.23 750.516 1179.44C750.826 1176.64 751.989 1174.55 754.006 1173.15C755.091 1172.07 756.487 1170.98 758.193 1169.9C760.055 1168.81 761.993 1167.8 764.01 1166.87C766.181 1165.94 768.275 1165.17 770.291 1164.55C772.308 1164.08 774.014 1163.85 775.41 1163.85C779.908 1163.85 784.096 1164.47 787.973 1165.71C791.851 1167.11 796.116 1167.8 800.769 1167.8H807.284C807.594 1167.65 808.214 1167.18 809.145 1166.41C810.076 1165.63 811.084 1164.7 812.17 1163.62C813.41 1162.68 814.496 1161.75 815.427 1160.82C816.512 1160.05 817.288 1159.43 817.753 1158.96C817.908 1158.81 818.141 1158.26 818.451 1157.33C818.761 1156.56 819.072 1155.63 819.382 1154.54C819.847 1153.46 820.235 1152.45 820.545 1151.52C821.01 1150.59 821.243 1149.97 821.243 1149.66C821.553 1149.5 822.174 1148.96 823.104 1148.03C824.035 1147.25 824.5 1146.71 824.5 1146.4C826.361 1143.61 828.3 1139.96 830.317 1135.46C832.488 1130.97 834.427 1126.24 836.133 1121.27C837.994 1116.31 839.545 1111.42 840.786 1106.61C842.027 1101.81 842.647 1097.77 842.647 1094.52C842.647 1093.74 842.492 1093.35 842.182 1093.35C840.476 1088.86 838.46 1084.9 836.133 1081.49C833.806 1078.08 831.79 1074.35 830.084 1070.32C828.843 1067.06 827.835 1063.81 827.059 1060.55C826.284 1057.29 825.508 1054.03 824.733 1050.78C824.112 1047.52 823.415 1044.26 822.639 1041.01C822.019 1037.75 821.166 1034.57 820.08 1031.47C819.149 1029.3 818.063 1027.2 816.823 1025.19C815.582 1023.01 814.341 1020.92 813.1 1018.9C811.859 1016.89 810.696 1014.87 809.61 1012.85C808.525 1010.68 807.749 1008.51 807.284 1006.34V997.499C806.974 995.638 806.431 993.699 805.655 991.683C804.88 989.667 804.027 987.65 803.096 985.634C802.165 983.618 801.235 981.679 800.304 979.818C799.529 977.956 798.908 976.25 798.443 974.699C798.443 974.234 798.133 973.381 797.512 972.14C797.047 970.744 796.814 969.813 796.814 969.348C795.418 964.385 793.867 959.577 792.161 954.923C790.61 950.115 789.214 945.307 787.973 940.499C787.973 940.344 787.896 939.878 787.741 939.103C787.586 938.327 787.353 937.474 787.043 936.544C786.888 935.458 786.732 934.527 786.577 933.752C786.422 932.821 786.345 932.201 786.345 931.891C784.483 926.462 781.847 920.878 778.434 915.139C775.177 909.401 771.61 904.282 767.732 899.784C766.647 898.388 765.018 897.07 762.847 895.829C760.675 894.433 758.504 893.037 756.332 891.641C754.316 890.09 752.455 888.461 750.748 886.755C749.197 884.894 748.422 882.8 748.422 880.474C748.422 879.233 748.81 878.302 749.585 877.682C750.361 877.061 751.291 876.596 752.377 876.286C753.618 875.976 754.859 875.821 756.1 875.821C757.34 875.665 758.426 875.588 759.357 875.588C762.459 875.588 765.328 876.131 767.965 877.216C770.602 878.302 773.238 878.845 775.875 878.845H777.504C778.59 878.69 780.141 878.535 782.157 878.38C784.328 878.225 786.422 878.07 788.439 877.914C790.61 877.759 792.471 877.682 794.022 877.682C795.573 877.527 796.504 877.372 796.814 877.216C796.969 877.216 797.512 877.216 798.443 877.216C799.529 877.061 800.614 876.984 801.7 876.984C802.941 876.829 804.104 876.751 805.19 876.751C806.276 876.596 806.974 876.519 807.284 876.519C809.765 876.519 812.712 876.363 816.125 876.053C819.537 875.743 822.329 875.588 824.5 875.588C825.896 875.588 827.37 875.743 828.921 876.053C830.627 876.363 832.178 876.906 833.574 877.682C835.125 878.457 836.366 879.465 837.296 880.706C838.382 881.947 838.925 883.498 838.925 885.359C838.925 887.531 838.46 889.237 837.529 890.478C836.598 891.564 835.435 892.572 834.039 893.502C832.798 894.278 831.48 895.131 830.084 896.062C828.688 896.992 827.525 898.233 826.594 899.784C825.508 902.421 824.888 904.592 824.733 906.298C824.578 908.005 824.5 910.254 824.5 913.045C824.5 916.148 824.578 918.862 824.733 921.188C824.888 923.36 825.508 925.764 826.594 928.401C826.749 928.866 827.215 930.029 827.99 931.891C828.921 933.597 829.851 935.458 830.782 937.474C831.868 939.336 832.798 941.119 833.574 942.825C834.504 944.531 835.125 945.617 835.435 946.083C835.59 946.393 835.745 947.091 835.9 948.176C836.211 949.107 836.443 950.193 836.598 951.434C836.753 952.519 836.909 953.605 837.064 954.691C837.219 955.777 837.374 956.397 837.529 956.552C838.46 961.981 839.7 967.487 841.251 973.071C842.802 978.499 844.509 983.695 846.37 988.659C847.3 992.226 848.852 995.483 851.023 998.43C853.35 1001.38 855.288 1004.56 856.839 1007.97C857.46 1009.68 858.003 1011.77 858.468 1014.25C858.933 1016.58 859.476 1018.83 860.097 1021C860.872 1023.17 861.88 1025.03 863.121 1026.58C864.517 1028.13 866.456 1028.91 868.937 1028.91C870.333 1028.91 871.419 1028.83 872.195 1028.68C873.125 1028.37 873.901 1027.36 874.521 1025.65C875.917 1022.55 877.313 1019.21 878.709 1015.65C880.105 1011.92 881.501 1008.28 882.897 1004.71C883.362 1003.78 884.37 1001.69 885.921 998.43C887.627 995.173 889.411 991.683 891.272 987.961C893.134 984.083 894.84 980.593 896.391 977.491C898.097 974.234 899.105 972.218 899.415 971.442C899.57 970.977 899.803 970.046 900.113 968.65C900.424 967.254 900.811 965.703 901.277 963.997C901.742 962.291 902.13 960.74 902.44 959.344C902.75 957.948 902.983 957.017 903.138 956.552C903.138 956.242 903.37 955.544 903.836 954.458C904.301 953.217 904.534 952.442 904.534 952.132C905.619 949.185 906.473 946.393 907.093 943.756C907.713 940.964 908.256 938.327 908.722 935.846C909.187 933.209 909.575 930.572 909.885 927.935C910.35 925.299 910.893 922.507 911.513 919.56C911.513 919.25 911.824 918.629 912.444 917.699C913.22 916.768 913.607 916.148 913.607 915.837V912.347V909.323C913.607 908.703 913.375 907.849 912.909 906.764C912.444 905.678 911.901 904.592 911.281 903.507C910.66 902.266 910.04 901.18 909.42 900.249C908.799 899.164 908.411 898.466 908.256 898.155C907.171 896.76 905.387 895.519 902.905 894.433C900.579 893.347 898.175 892.339 895.693 891.408C893.366 890.323 891.272 889.315 889.411 888.384C887.705 887.453 886.852 886.445 886.852 885.359C886.852 883.808 887.627 882.568 889.178 881.637C890.73 880.551 892.591 879.698 894.762 879.078C896.934 878.457 899.028 877.992 901.044 877.682C903.215 877.372 904.922 877.216 906.162 877.216C908.799 877.216 911.281 877.527 913.607 878.147C916.089 878.612 918.881 878.845 921.983 878.845C923.999 878.845 925.938 879.078 927.799 879.543C929.816 879.853 931.987 880.008 934.314 880.008C936.95 880.008 939.199 880.086 941.061 880.241C943.077 880.396 945.404 880.474 948.04 880.474C950.212 880.474 952.228 880.241 954.089 879.776C955.951 879.155 958.122 878.845 960.604 878.845C961.845 878.845 963.163 878.923 964.559 879.078C966.11 879.078 967.506 879.31 968.747 879.776C970.143 880.086 971.228 880.706 972.004 881.637C972.935 882.568 973.4 883.808 973.4 885.359C973.4 887.531 971.926 889.702 968.979 891.874C966.187 893.89 962.93 895.984 959.208 898.155C955.485 900.327 951.763 902.498 948.04 904.67C944.473 906.841 941.836 908.935 940.13 910.952C938.889 912.347 938.114 913.976 937.804 915.837C937.648 917.699 937.183 919.482 936.408 921.188C936.252 921.654 935.787 922.584 935.012 923.98C934.391 925.221 933.693 926.617 932.918 928.168C932.142 929.719 931.367 931.27 930.591 932.821C929.971 934.217 929.661 935.148 929.661 935.613C929.505 935.768 929.195 936.311 928.73 937.242C928.42 938.017 928.032 938.948 927.567 940.033C927.101 940.964 926.636 941.895 926.171 942.825C925.861 943.756 925.628 944.299 925.473 944.454C925.473 944.764 925.24 945.307 924.775 946.083C924.465 946.858 924.232 947.401 924.077 947.711C923.922 948.021 923.534 948.564 922.914 949.34C922.448 950.115 921.905 950.891 921.285 951.666C920.82 952.442 920.277 953.217 919.656 953.993C919.191 954.768 918.881 955.234 918.726 955.389C918.571 955.699 918.183 956.552 917.562 957.948C917.097 959.189 916.554 960.585 915.934 962.136C915.313 963.687 914.771 965.16 914.305 966.556C913.84 967.952 913.607 968.883 913.607 969.348C913.297 969.813 912.444 971.287 911.048 973.769C909.807 976.095 908.489 978.654 907.093 981.446C905.697 984.238 904.379 986.875 903.138 989.356C901.897 991.838 901.199 993.467 901.044 994.242C900.268 995.948 899.57 997.965 898.95 1000.29C898.485 1002.62 897.942 1005.02 897.321 1007.5C896.856 1009.83 896.313 1012.16 895.693 1014.48C895.072 1016.65 894.452 1018.67 893.832 1020.53C891.04 1028.44 887.783 1035.97 884.06 1043.1C880.493 1050.08 877.313 1057.29 874.521 1064.74C874.366 1065.05 874.133 1065.75 873.823 1066.83C873.513 1067.92 873.125 1069.08 872.66 1070.32C872.35 1071.41 871.962 1072.49 871.497 1073.58C871.186 1074.66 870.954 1075.36 870.799 1075.67C869.558 1078.77 868.472 1082.34 867.542 1086.37C866.766 1090.41 865.448 1093.97 863.586 1097.08C863.431 1097.23 863.044 1097.85 862.423 1098.94C861.803 1099.87 861.105 1100.88 860.329 1101.96C859.554 1103.2 858.778 1104.37 858.003 1105.45C857.382 1106.54 856.994 1107.24 856.839 1107.55C856.684 1107.55 856.529 1107.93 856.374 1108.71C856.219 1109.64 856.064 1110.65 855.909 1111.73C855.754 1112.82 855.599 1113.83 855.443 1114.76C855.288 1115.69 855.211 1116.23 855.211 1116.39C854.901 1117.78 854.435 1119.57 853.815 1121.74C853.194 1124.06 852.574 1126.31 851.954 1128.48C851.333 1130.81 850.79 1132.83 850.325 1134.53C849.86 1136.24 849.549 1137.25 849.394 1137.56C846.447 1146.24 842.337 1154.08 837.064 1161.06C831.79 1168.04 826.517 1175.09 821.243 1182.23C821.243 1182.38 820.855 1182.93 820.08 1183.86C819.459 1184.94 818.761 1186.03 817.986 1187.11C817.21 1188.35 816.435 1189.52 815.659 1190.6C815.039 1191.69 814.651 1192.31 814.496 1192.46C814.031 1193.09 812.945 1194.09 811.239 1195.49C809.688 1197.04 808.059 1198.67 806.353 1200.38C804.647 1202.08 803.018 1203.71 801.467 1205.26C799.916 1206.81 798.908 1207.9 798.443 1208.52C794.1 1208.83 790.067 1209.76 786.345 1211.31C782.777 1212.86 778.9 1213.64 774.712 1213.64C765.871 1213.64 759.512 1211.23 755.634 1206.42C751.912 1201.77 750.05 1195.18 750.05 1186.65Z" fill="white"/>
</svg>
